{
	"asset":{
		"generator":"Khronos glTF Blender I/O v3.6.27",
		"version":"2.0"
	},
	"extensionsUsed":[
		"KHR_materials_specular",
		"KHR_materials_ior"
	],
	"scene":0,
	"scenes":[
		{
			"name":"Scene",
			"nodes":[
				0,
				1,
				2,
				3
			]
		}
	],
	"nodes":[
		{
			"mesh":0,
			"name":"Bathroom Galateya"
		},
		{
			"mesh":1,
			"name":"Bathroom Sink"
		},
		{
			"mesh":2,
			"name":"Bathroom Toilet"
		},
		{
			"mesh":3,
			"name":"Bathroom Aqua Radiator"
		}
	],
	"materials":[
		{
			"doubleSided":true,
			"extensions":{
				"KHR_materials_specular":{
					"specularColorFactor":[
						1,
						1,
						1
					]
				},
				"KHR_materials_ior":{
					"ior":1
				}
			},
			"name":"Metal Chrome",
			"pbrMetallicRoughness":{
				"baseColorFactor":[
					0.4910377264022827,
					0.4764433801174164,
					0.40801364183425903,
					1
				],
				"roughnessFactor":0.21590909361839294
			}
		},
		{
			"doubleSided":true,
			"extensions":{
				"KHR_materials_specular":{
					"specularColorFactor":[
						2.3713576144413984,
						2.3713576144413984,
						2.3713576144413984
					]
				},
				"KHR_materials_ior":{
					"ior":1.4500000476837158
				}
			},
			"name":"Paint White",
			"pbrMetallicRoughness":{
				"metallicFactor":0,
				"roughnessFactor":0.4000000059604645
			}
		},
		{
			"doubleSided":true,
			"extensions":{
				"KHR_materials_specular":{
					"specularColorFactor":[
						1,
						1,
						1
					]
				},
				"KHR_materials_ior":{
					"ior":1
				}
			},
			"name":"Display",
			"pbrMetallicRoughness":{
				"baseColorFactor":[
					0.004024717956781387,
					0.004024720750749111,
					0.08650046586990356,
					1
				],
				"metallicFactor":0
			}
		},
		{
			"doubleSided":true,
			"name":"Glass Matte",
			"pbrMetallicRoughness":{}
		},
		{
			"doubleSided":true,
			"name":"Mirror",
			"pbrMetallicRoughness":{}
		},
		{
			"doubleSided":true,
			"emissiveFactor":[
				1,
				1,
				1
			],
			"extensions":{
				"KHR_materials_specular":{
					"specularColorFactor":[
						0,
						0,
						0
					]
				},
				"KHR_materials_ior":{
					"ior":1.4500000476837158
				}
			},
			"name":"Lightning LED",
			"pbrMetallicRoughness":{
				"baseColorFactor":[
					0,
					0,
					0,
					1
				],
				"metallicFactor":0,
				"roughnessFactor":0.5527864098548889
			}
		},
		{
			"doubleSided":true,
			"extensions":{
				"KHR_materials_specular":{
					"specularColorFactor":[
						2.371357614441398,
						2.371357614441398,
						2.371357614441398
					]
				},
				"KHR_materials_ior":{
					"ior":1.4500000476837158
				}
			},
			"name":"Metal Mat",
			"pbrMetallicRoughness":{
				"baseColorFactor":[
					0.06993462890386581,
					0.06993462890386581,
					0.06993462890386581,
					1
				],
				"roughnessFactor":0.5527864098548889
			}
		}
	],
	"meshes":[
		{
			"name":"Galateya.152",
			"primitives":[
				{
					"attributes":{
						"POSITION":0,
						"NORMAL":1,
						"TEXCOORD_0":2
					},
					"indices":3,
					"material":0
				},
				{
					"attributes":{
						"POSITION":4,
						"NORMAL":5,
						"TEXCOORD_0":6
					},
					"indices":7,
					"material":1
				},
				{
					"attributes":{
						"POSITION":8,
						"NORMAL":9,
						"TEXCOORD_0":10
					},
					"indices":11,
					"material":2
				}
			]
		},
		{
			"name":"Praktik tumba-1050-1_001.001",
			"primitives":[
				{
					"attributes":{
						"POSITION":12,
						"NORMAL":13,
						"TEXCOORD_0":14
					},
					"indices":15,
					"material":1
				},
				{
					"attributes":{
						"POSITION":16,
						"NORMAL":17,
						"TEXCOORD_0":18
					},
					"indices":19,
					"material":3
				},
				{
					"attributes":{
						"POSITION":20,
						"NORMAL":21,
						"TEXCOORD_0":22
					},
					"indices":23,
					"material":4
				},
				{
					"attributes":{
						"POSITION":24,
						"NORMAL":25,
						"TEXCOORD_0":26
					},
					"indices":27,
					"material":5
				},
				{
					"attributes":{
						"POSITION":28,
						"NORMAL":29,
						"TEXCOORD_0":30
					},
					"indices":31,
					"material":0
				}
			]
		},
		{
			"name":"Mesh.001",
			"primitives":[
				{
					"attributes":{
						"POSITION":32,
						"NORMAL":33,
						"TEXCOORD_0":34
					},
					"indices":35,
					"material":1
				},
				{
					"attributes":{
						"POSITION":36,
						"NORMAL":37,
						"TEXCOORD_0":38
					},
					"indices":39,
					"material":5
				},
				{
					"attributes":{
						"POSITION":40,
						"NORMAL":41,
						"TEXCOORD_0":42
					},
					"indices":43,
					"material":6
				}
			]
		},
		{
			"name":"Mesh.002",
			"primitives":[
				{
					"attributes":{
						"POSITION":44,
						"NORMAL":45,
						"TEXCOORD_0":46
					},
					"indices":47,
					"material":1
				},
				{
					"attributes":{
						"POSITION":48,
						"NORMAL":49,
						"TEXCOORD_0":50
					},
					"indices":51,
					"material":2
				},
				{
					"attributes":{
						"POSITION":52,
						"NORMAL":53,
						"TEXCOORD_0":54
					},
					"indices":55,
					"material":6
				}
			]
		}
	],
	"accessors":[
		{
			"bufferView":0,
			"componentType":5126,
			"count":8068,
			"max":[
				8.919602394104004,
				0.7626837491989136,
				-10.782135963439941
			],
			"min":[
				7.612367153167725,
				0.1214296966791153,
				-12.012605667114258
			],
			"type":"VEC3"
		},
		{
			"bufferView":1,
			"componentType":5126,
			"count":8068,
			"type":"VEC3"
		},
		{
			"bufferView":2,
			"componentType":5126,
			"count":8068,
			"type":"VEC2"
		},
		{
			"bufferView":3,
			"componentType":5123,
			"count":29418,
			"type":"SCALAR"
		},
		{
			"bufferView":4,
			"componentType":5126,
			"count":7208,
			"max":[
				8.932535171508789,
				0.6539732813835144,
				-10.532953262329102
			],
			"min":[
				7.4309868812561035,
				-5.709879360438208e-07,
				-12.034479141235352
			],
			"type":"VEC3"
		},
		{
			"bufferView":5,
			"componentType":5126,
			"count":7208,
			"type":"VEC3"
		},
		{
			"bufferView":6,
			"componentType":5126,
			"count":7208,
			"type":"VEC2"
		},
		{
			"bufferView":7,
			"componentType":5123,
			"count":21831,
			"type":"SCALAR"
		},
		{
			"bufferView":8,
			"componentType":5126,
			"count":4,
			"max":[
				7.957090854644775,
				0.6345690488815308,
				-10.9113187789917
			],
			"min":[
				7.804332256317139,
				0.6345564723014832,
				-11.064269065856934
			],
			"type":"VEC3"
		},
		{
			"bufferView":9,
			"componentType":5126,
			"count":4,
			"type":"VEC3"
		},
		{
			"bufferView":10,
			"componentType":5126,
			"count":4,
			"type":"VEC2"
		},
		{
			"bufferView":11,
			"componentType":5123,
			"count":6,
			"type":"SCALAR"
		},
		{
			"bufferView":12,
			"componentType":5126,
			"count":23268,
			"max":[
				7.3747663497924805,
				1.7770006656646729,
				-11.559484481811523
			],
			"min":[
				5.935882091522217,
				0.25999999046325684,
				-12.034485816955566
			],
			"type":"VEC3"
		},
		{
			"bufferView":13,
			"componentType":5126,
			"count":23268,
			"type":"VEC3"
		},
		{
			"bufferView":14,
			"componentType":5126,
			"count":23268,
			"type":"VEC2"
		},
		{
			"bufferView":15,
			"componentType":5123,
			"count":117732,
			"type":"SCALAR"
		},
		{
			"bufferView":16,
			"componentType":5126,
			"count":504,
			"max":[
				7.353765964508057,
				0.8280001282691956,
				-11.567484855651855
			],
			"min":[
				6.330766201019287,
				0.260000079870224,
				-11.571234703063965
			],
			"type":"VEC3"
		},
		{
			"bufferView":17,
			"componentType":5126,
			"count":504,
			"type":"VEC3"
		},
		{
			"bufferView":18,
			"componentType":5126,
			"count":504,
			"type":"VEC2"
		},
		{
			"bufferView":19,
			"componentType":5123,
			"count":2688,
			"type":"SCALAR"
		},
		{
			"bufferView":20,
			"componentType":5126,
			"count":216,
			"max":[
				7.3672661781311035,
				1.7770001888275146,
				-11.90948486328125
			],
			"min":[
				6.31726598739624,
				1.0770000219345093,
				-11.912485122680664
			],
			"type":"VEC3"
		},
		{
			"bufferView":21,
			"componentType":5126,
			"count":216,
			"type":"VEC3"
		},
		{
			"bufferView":22,
			"componentType":5126,
			"count":216,
			"type":"VEC2"
		},
		{
			"bufferView":23,
			"componentType":5123,
			"count":378,
			"type":"SCALAR"
		},
		{
			"bufferView":24,
			"componentType":5126,
			"count":8,
			"max":[
				7.31726598739624,
				1.7269999980926514,
				-11.90948486328125
			],
			"min":[
				6.3672661781311035,
				1.127000093460083,
				-11.90948486328125
			],
			"type":"VEC3"
		},
		{
			"bufferView":25,
			"componentType":5126,
			"count":8,
			"type":"VEC3"
		},
		{
			"bufferView":26,
			"componentType":5126,
			"count":8,
			"type":"VEC2"
		},
		{
			"bufferView":27,
			"componentType":5123,
			"count":12,
			"type":"SCALAR"
		},
		{
			"bufferView":28,
			"componentType":5126,
			"count":22101,
			"max":[
				6.962266445159912,
				1.1385002136230469,
				-11.547484397888184
			],
			"min":[
				6.176382064819336,
				0.3950001001358032,
				-12.001839637756348
			],
			"type":"VEC3"
		},
		{
			"bufferView":29,
			"componentType":5126,
			"count":22101,
			"type":"VEC3"
		},
		{
			"bufferView":30,
			"componentType":5126,
			"count":22101,
			"type":"VEC2"
		},
		{
			"bufferView":31,
			"componentType":5123,
			"count":125676,
			"type":"SCALAR"
		},
		{
			"bufferView":32,
			"componentType":5126,
			"count":46262,
			"max":[
				7.008097171783447,
				0.6604325771331787,
				-10.25495433807373
			],
			"min":[
				6.31165075302124,
				0.15969666838645935,
				-10.653007507324219
			],
			"type":"VEC3"
		},
		{
			"bufferView":33,
			"componentType":5126,
			"count":46262,
			"type":"VEC3"
		},
		{
			"bufferView":34,
			"componentType":5126,
			"count":46262,
			"type":"VEC2"
		},
		{
			"bufferView":35,
			"componentType":5123,
			"count":273408,
			"type":"SCALAR"
		},
		{
			"bufferView":36,
			"componentType":5126,
			"count":592,
			"max":[
				6.499220848083496,
				0.5645133256912231,
				-10.255253791809082
			],
			"min":[
				6.414846420288086,
				0.5493950843811035,
				-10.260385513305664
			],
			"type":"VEC3"
		},
		{
			"bufferView":37,
			"componentType":5126,
			"count":592,
			"type":"VEC3"
		},
		{
			"bufferView":38,
			"componentType":5126,
			"count":592,
			"type":"VEC2"
		},
		{
			"bufferView":39,
			"componentType":5123,
			"count":2808,
			"type":"SCALAR"
		},
		{
			"bufferView":40,
			"componentType":5126,
			"count":296,
			"max":[
				6.495589256286621,
				0.5618796944618225,
				-10.255022048950195
			],
			"min":[
				6.418426990509033,
				0.5520155429840088,
				-10.256915092468262
			],
			"type":"VEC3"
		},
		{
			"bufferView":41,
			"componentType":5126,
			"count":296,
			"type":"VEC3"
		},
		{
			"bufferView":42,
			"componentType":5126,
			"count":296,
			"type":"VEC2"
		},
		{
			"bufferView":43,
			"componentType":5123,
			"count":1080,
			"type":"SCALAR"
		},
		{
			"bufferView":44,
			"componentType":5126,
			"count":16343,
			"max":[
				5.9078216552734375,
				2.2338719367980957,
				-10.946107864379883
			],
			"min":[
				5.828009605407715,
				0.9338734149932861,
				-11.54609203338623
			],
			"type":"VEC3"
		},
		{
			"bufferView":45,
			"componentType":5126,
			"count":16343,
			"type":"VEC3"
		},
		{
			"bufferView":46,
			"componentType":5126,
			"count":16343,
			"type":"VEC2"
		},
		{
			"bufferView":47,
			"componentType":5123,
			"count":91494,
			"type":"SCALAR"
		},
		{
			"bufferView":48,
			"componentType":5126,
			"count":3266,
			"max":[
				5.909132957458496,
				1.0359423160552979,
				-11.52306842803955
			],
			"min":[
				5.9090375900268555,
				1.0229747295379639,
				-11.53873062133789
			],
			"type":"VEC3"
		},
		{
			"bufferView":49,
			"componentType":5126,
			"count":3266,
			"type":"VEC3"
		},
		{
			"bufferView":50,
			"componentType":5126,
			"count":3266,
			"type":"VEC2"
		},
		{
			"bufferView":51,
			"componentType":5123,
			"count":19584,
			"type":"SCALAR"
		},
		{
			"bufferView":52,
			"componentType":5126,
			"count":7705,
			"max":[
				5.90982723236084,
				1.067418098449707,
				-11.51831340789795
			],
			"min":[
				5.908031463623047,
				0.9892880916595459,
				-11.543413162231445
			],
			"type":"VEC3"
		},
		{
			"bufferView":53,
			"componentType":5126,
			"count":7705,
			"type":"VEC3"
		},
		{
			"bufferView":54,
			"componentType":5126,
			"count":7705,
			"type":"VEC2"
		},
		{
			"bufferView":55,
			"componentType":5123,
			"count":44358,
			"type":"SCALAR"
		}
	],
	"bufferViews":[
		{
			"buffer":0,
			"byteLength":96816,
			"byteOffset":0,
			"target":34962
		},
		{
			"buffer":0,
			"byteLength":96816,
			"byteOffset":96816,
			"target":34962
		},
		{
			"buffer":0,
			"byteLength":64544,
			"byteOffset":193632,
			"target":34962
		},
		{
			"buffer":0,
			"byteLength":58836,
			"byteOffset":258176,
			"target":34963
		},
		{
			"buffer":0,
			"byteLength":86496,
			"byteOffset":317012,
			"target":34962
		},
		{
			"buffer":0,
			"byteLength":86496,
			"byteOffset":403508,
			"target":34962
		},
		{
			"buffer":0,
			"byteLength":57664,
			"byteOffset":490004,
			"target":34962
		},
		{
			"buffer":0,
			"byteLength":43662,
			"byteOffset":547668,
			"target":34963
		},
		{
			"buffer":0,
			"byteLength":48,
			"byteOffset":591332,
			"target":34962
		},
		{
			"buffer":0,
			"byteLength":48,
			"byteOffset":591380,
			"target":34962
		},
		{
			"buffer":0,
			"byteLength":32,
			"byteOffset":591428,
			"target":34962
		},
		{
			"buffer":0,
			"byteLength":12,
			"byteOffset":591460,
			"target":34963
		},
		{
			"buffer":0,
			"byteLength":279216,
			"byteOffset":591472,
			"target":34962
		},
		{
			"buffer":0,
			"byteLength":279216,
			"byteOffset":870688,
			"target":34962
		},
		{
			"buffer":0,
			"byteLength":186144,
			"byteOffset":1149904,
			"target":34962
		},
		{
			"buffer":0,
			"byteLength":235464,
			"byteOffset":1336048,
			"target":34963
		},
		{
			"buffer":0,
			"byteLength":6048,
			"byteOffset":1571512,
			"target":34962
		},
		{
			"buffer":0,
			"byteLength":6048,
			"byteOffset":1577560,
			"target":34962
		},
		{
			"buffer":0,
			"byteLength":4032,
			"byteOffset":1583608,
			"target":34962
		},
		{
			"buffer":0,
			"byteLength":5376,
			"byteOffset":1587640,
			"target":34963
		},
		{
			"buffer":0,
			"byteLength":2592,
			"byteOffset":1593016,
			"target":34962
		},
		{
			"buffer":0,
			"byteLength":2592,
			"byteOffset":1595608,
			"target":34962
		},
		{
			"buffer":0,
			"byteLength":1728,
			"byteOffset":1598200,
			"target":34962
		},
		{
			"buffer":0,
			"byteLength":756,
			"byteOffset":1599928,
			"target":34963
		},
		{
			"buffer":0,
			"byteLength":96,
			"byteOffset":1600684,
			"target":34962
		},
		{
			"buffer":0,
			"byteLength":96,
			"byteOffset":1600780,
			"target":34962
		},
		{
			"buffer":0,
			"byteLength":64,
			"byteOffset":1600876,
			"target":34962
		},
		{
			"buffer":0,
			"byteLength":24,
			"byteOffset":1600940,
			"target":34963
		},
		{
			"buffer":0,
			"byteLength":265212,
			"byteOffset":1600964,
			"target":34962
		},
		{
			"buffer":0,
			"byteLength":265212,
			"byteOffset":1866176,
			"target":34962
		},
		{
			"buffer":0,
			"byteLength":176808,
			"byteOffset":2131388,
			"target":34962
		},
		{
			"buffer":0,
			"byteLength":251352,
			"byteOffset":2308196,
			"target":34963
		},
		{
			"buffer":0,
			"byteLength":555144,
			"byteOffset":2559548,
			"target":34962
		},
		{
			"buffer":0,
			"byteLength":555144,
			"byteOffset":3114692,
			"target":34962
		},
		{
			"buffer":0,
			"byteLength":370096,
			"byteOffset":3669836,
			"target":34962
		},
		{
			"buffer":0,
			"byteLength":546816,
			"byteOffset":4039932,
			"target":34963
		},
		{
			"buffer":0,
			"byteLength":7104,
			"byteOffset":4586748,
			"target":34962
		},
		{
			"buffer":0,
			"byteLength":7104,
			"byteOffset":4593852,
			"target":34962
		},
		{
			"buffer":0,
			"byteLength":4736,
			"byteOffset":4600956,
			"target":34962
		},
		{
			"buffer":0,
			"byteLength":5616,
			"byteOffset":4605692,
			"target":34963
		},
		{
			"buffer":0,
			"byteLength":3552,
			"byteOffset":4611308,
			"target":34962
		},
		{
			"buffer":0,
			"byteLength":3552,
			"byteOffset":4614860,
			"target":34962
		},
		{
			"buffer":0,
			"byteLength":2368,
			"byteOffset":4618412,
			"target":34962
		},
		{
			"buffer":0,
			"byteLength":2160,
			"byteOffset":4620780,
			"target":34963
		},
		{
			"buffer":0,
			"byteLength":196116,
			"byteOffset":4622940,
			"target":34962
		},
		{
			"buffer":0,
			"byteLength":196116,
			"byteOffset":4819056,
			"target":34962
		},
		{
			"buffer":0,
			"byteLength":130744,
			"byteOffset":5015172,
			"target":34962
		},
		{
			"buffer":0,
			"byteLength":182988,
			"byteOffset":5145916,
			"target":34963
		},
		{
			"buffer":0,
			"byteLength":39192,
			"byteOffset":5328904,
			"target":34962
		},
		{
			"buffer":0,
			"byteLength":39192,
			"byteOffset":5368096,
			"target":34962
		},
		{
			"buffer":0,
			"byteLength":26128,
			"byteOffset":5407288,
			"target":34962
		},
		{
			"buffer":0,
			"byteLength":39168,
			"byteOffset":5433416,
			"target":34963
		},
		{
			"buffer":0,
			"byteLength":92460,
			"byteOffset":5472584,
			"target":34962
		},
		{
			"buffer":0,
			"byteLength":92460,
			"byteOffset":5565044,
			"target":34962
		},
		{
			"buffer":0,
			"byteLength":61640,
			"byteOffset":5657504,
			"target":34962
		},
		{
			"buffer":0,
			"byteLength":88716,
			"byteOffset":5719144,
			"target":34963
		}
	],
	"buffers":[
		{
			"byteLength":5807860,
			"uri":"bathroom.bin"
		}
	]
}
