{
	"asset":{
		"generator":"Khronos glTF Blender I/O v3.6.27",
		"version":"2.0"
	},
	"extensionsUsed":[
		"KHR_materials_specular",
		"KHR_materials_ior"
	],
	"scene":0,
	"scenes":[
		{
			"name":"Scene",
			"nodes":[
				0,
				1,
				2,
				3,
				4
			]
		}
	],
	"nodes":[
		{
			"mesh":0,
			"name":"Hall Bench"
		},
		{
			"mesh":1,
			"name":"Hall Hangers"
		},
		{
			"mesh":2,
			"name":"Hall Intercom"
		},
		{
			"mesh":3,
			"name":"Hall Mirror"
		},
		{
			"mesh":4,
			"name":"Hall Photo Painting Gallery",
			"rotation":[
				0.5,
				-0.5,
				0.5,
				0.5
			],
			"scale":[
				0.6433271169662476,
				0.6433271169662476,
				0.6433271169662476
			],
			"translation":[
				8.929693222045898,
				1.5541809797286987,
				-7.832546710968018
			]
		}
	],
	"materials":[
		{
			"doubleSided":true,
			"extensions":{
				"KHR_materials_specular":{
					"specularColorTexture":{
						"index":0
					},
					"specularColorFactor":[
						2.371357614441398,
						2.371357614441398,
						2.371357614441398
					]
				},
				"KHR_materials_ior":{
					"ior":1.4500000476837158
				}
			},
			"name":"Wood Black Ash",
			"normalTexture":{
				"index":1,
				"scale":0.10000000149011612
			},
			"pbrMetallicRoughness":{
				"baseColorTexture":{
					"index":2
				},
				"metallicFactor":0,
				"roughnessFactor":0.5527864098548889
			}
		},
		{
			"doubleSided":true,
			"extensions":{
				"KHR_materials_specular":{
					"specularColorFactor":[
						2.371357614441398,
						2.371357614441398,
						2.371357614441398
					]
				},
				"KHR_materials_ior":{
					"ior":1.4500000476837158
				}
			},
			"name":"Metal Mat",
			"pbrMetallicRoughness":{
				"baseColorFactor":[
					0.06993462890386581,
					0.06993462890386581,
					0.06993462890386581,
					1
				],
				"roughnessFactor":0.5527864098548889
			}
		},
		{
			"doubleSided":true,
			"extensions":{
				"KHR_materials_specular":{
					"specularColorFactor":[
						2.3713576144413984,
						2.3713576144413984,
						2.3713576144413984
					]
				},
				"KHR_materials_ior":{
					"ior":1.4500000476837158
				}
			},
			"name":"Paint White",
			"pbrMetallicRoughness":{
				"metallicFactor":0,
				"roughnessFactor":0.4000000059604645
			}
		},
		{
			"doubleSided":true,
			"name":"Mirror",
			"pbrMetallicRoughness":{}
		},
		{
			"alphaMode":"BLEND",
			"doubleSided":true,
			"name":"\u0412\u044b\u0441\u0442\u0430\u0432\u043a\u0430",
			"pbrMetallicRoughness":{
				"baseColorTexture":{
					"index":3
				},
				"metallicFactor":0,
				"roughnessFactor":0.5
			}
		}
	],
	"meshes":[
		{
			"name":"Mesh.080",
			"primitives":[
				{
					"attributes":{
						"POSITION":0,
						"NORMAL":1,
						"TEXCOORD_0":2
					},
					"indices":3,
					"material":0
				}
			]
		},
		{
			"name":"hook_R_Bhd_0002.001",
			"primitives":[
				{
					"attributes":{
						"POSITION":4,
						"NORMAL":5,
						"TEXCOORD_0":6
					},
					"indices":7,
					"material":1
				}
			]
		},
		{
			"name":"Intercom N040409",
			"primitives":[
				{
					"attributes":{
						"POSITION":8,
						"NORMAL":9,
						"TEXCOORD_0":10
					},
					"indices":11,
					"material":2
				}
			]
		},
		{
			"name":"Plane.005",
			"primitives":[
				{
					"attributes":{
						"POSITION":12,
						"NORMAL":13,
						"TEXCOORD_0":14
					},
					"indices":15,
					"material":3
				}
			]
		},
		{
			"name":"\u0412\u044b\u0441\u0442\u0430\u0432\u043a\u0430",
			"primitives":[
				{
					"attributes":{
						"POSITION":16,
						"NORMAL":17,
						"TEXCOORD_0":18
					},
					"indices":15,
					"material":4
				}
			]
		}
	],
	"textures":[
		{
			"sampler":0,
			"source":0
		},
		{
			"sampler":0,
			"source":1
		},
		{
			"sampler":0,
			"source":2
		},
		{
			"sampler":1,
			"source":3
		}
	],
	"images":[
		{
			"mimeType":"image/png",
			"name":"Image",
			"uri":"textures/Image.png"
		},
		{
			"mimeType":"image/png",
			"name":"NormalMap (1).png",
			"uri":"textures/NormalMap%201_png.png"
		},
		{
			"mimeType":"image/jpeg",
			"name":"black",
			"uri":"textures/black.jpg"
		},
		{
			"mimeType":"image/png",
			"name":"\u0412\u044b\u0441\u0442\u0430\u0432\u043a\u0430",
			"uri":"textures/%D0%92%D1%8B%D1%81%D1%82%D0%B0%D0%B2%D0%BA%D0%B0.png"
		}
	],
	"accessors":[
		{
			"bufferView":0,
			"componentType":5126,
			"count":2371,
			"max":[
				8.917078018188477,
				0.4499596059322357,
				-3.546001672744751
			],
			"min":[
				8.507026672363281,
				0.0002449928142596036,
				-5.948251724243164
			],
			"type":"VEC3"
		},
		{
			"bufferView":1,
			"componentType":5126,
			"count":2371,
			"type":"VEC3"
		},
		{
			"bufferView":2,
			"componentType":5126,
			"count":2371,
			"type":"VEC2"
		},
		{
			"bufferView":3,
			"componentType":5123,
			"count":3288,
			"type":"SCALAR"
		},
		{
			"bufferView":4,
			"componentType":5126,
			"count":2576,
			"max":[
				8.932516098022461,
				1.7044281959533691,
				-4.331563949584961
			],
			"min":[
				8.863666534423828,
				1.3707878589630127,
				-5.3132452964782715
			],
			"type":"VEC3"
		},
		{
			"bufferView":5,
			"componentType":5126,
			"count":2576,
			"type":"VEC3"
		},
		{
			"bufferView":6,
			"componentType":5126,
			"count":2576,
			"type":"VEC2"
		},
		{
			"bufferView":7,
			"componentType":5123,
			"count":15372,
			"type":"SCALAR"
		},
		{
			"bufferView":8,
			"componentType":5126,
			"count":16156,
			"max":[
				8.722108840942383,
				1.6843798160552979,
				-3.4808413982391357
			],
			"min":[
				8.351239204406738,
				1.175384759902954,
				-3.591489315032959
			],
			"type":"VEC3"
		},
		{
			"bufferView":9,
			"componentType":5126,
			"count":16156,
			"type":"VEC3"
		},
		{
			"bufferView":10,
			"componentType":5126,
			"count":16156,
			"type":"VEC2"
		},
		{
			"bufferView":11,
			"componentType":5123,
			"count":95478,
			"type":"SCALAR"
		},
		{
			"bufferView":12,
			"componentType":5126,
			"count":4,
			"max":[
				7.231245517730713,
				3.0000007152557373,
				-3.924957275390625
			],
			"min":[
				7.231245517730713,
				0,
				-4.525968551635742
			],
			"type":"VEC3"
		},
		{
			"bufferView":13,
			"componentType":5126,
			"count":4,
			"type":"VEC3"
		},
		{
			"bufferView":14,
			"componentType":5126,
			"count":4,
			"type":"VEC2"
		},
		{
			"bufferView":15,
			"componentType":5123,
			"count":6,
			"type":"SCALAR"
		},
		{
			"bufferView":16,
			"componentType":5126,
			"count":4,
			"max":[
				0.751341700553894,
				0,
				0.5
			],
			"min":[
				-0.751341700553894,
				0,
				-0.5
			],
			"type":"VEC3"
		},
		{
			"bufferView":17,
			"componentType":5126,
			"count":4,
			"type":"VEC3"
		},
		{
			"bufferView":18,
			"componentType":5126,
			"count":4,
			"type":"VEC2"
		}
	],
	"bufferViews":[
		{
			"buffer":0,
			"byteLength":28452,
			"byteOffset":0,
			"target":34962
		},
		{
			"buffer":0,
			"byteLength":28452,
			"byteOffset":28452,
			"target":34962
		},
		{
			"buffer":0,
			"byteLength":18968,
			"byteOffset":56904,
			"target":34962
		},
		{
			"buffer":0,
			"byteLength":6576,
			"byteOffset":75872,
			"target":34963
		},
		{
			"buffer":0,
			"byteLength":30912,
			"byteOffset":82448,
			"target":34962
		},
		{
			"buffer":0,
			"byteLength":30912,
			"byteOffset":113360,
			"target":34962
		},
		{
			"buffer":0,
			"byteLength":20608,
			"byteOffset":144272,
			"target":34962
		},
		{
			"buffer":0,
			"byteLength":30744,
			"byteOffset":164880,
			"target":34963
		},
		{
			"buffer":0,
			"byteLength":193872,
			"byteOffset":195624,
			"target":34962
		},
		{
			"buffer":0,
			"byteLength":193872,
			"byteOffset":389496,
			"target":34962
		},
		{
			"buffer":0,
			"byteLength":129248,
			"byteOffset":583368,
			"target":34962
		},
		{
			"buffer":0,
			"byteLength":190956,
			"byteOffset":712616,
			"target":34963
		},
		{
			"buffer":0,
			"byteLength":48,
			"byteOffset":903572,
			"target":34962
		},
		{
			"buffer":0,
			"byteLength":48,
			"byteOffset":903620,
			"target":34962
		},
		{
			"buffer":0,
			"byteLength":32,
			"byteOffset":903668,
			"target":34962
		},
		{
			"buffer":0,
			"byteLength":12,
			"byteOffset":903700,
			"target":34963
		},
		{
			"buffer":0,
			"byteLength":48,
			"byteOffset":903712,
			"target":34962
		},
		{
			"buffer":0,
			"byteLength":48,
			"byteOffset":903760,
			"target":34962
		},
		{
			"buffer":0,
			"byteLength":32,
			"byteOffset":903808,
			"target":34962
		}
	],
	"samplers":[
		{
			"magFilter":9729,
			"minFilter":9987
		},
		{
			"magFilter":9729,
			"minFilter":9987,
			"wrapS":33071,
			"wrapT":33071
		}
	],
	"buffers":[
		{
			"byteLength":903840,
			"uri":"hall.bin"
		}
	]
}
