{
	"asset":{
		"generator":"Khronos glTF Blender I/O v3.6.27",
		"version":"2.0"
	},
	"extensionsUsed":[
		"KHR_materials_specular",
		"KHR_materials_ior"
	],
	"scene":0,
	"scenes":[
		{
			"name":"2 Animation to export Scene (Linked)",
			"nodes":[
				0
			]
		}
	],
	"nodes":[
		{
			"mesh":0,
			"name":"DoorLeft"
		}
	],
	"animations":[
		{
			"channels":[
				{
					"sampler":0,
					"target":{
						"node":0,
						"path":"translation"
					}
				}
			],
			"name":"DoorLeftAction",
			"samplers":[
				{
					"input":8,
					"interpolation":"LINEAR",
					"output":9
				}
			]
		}
	],
	"materials":[
		{
			"doubleSided":true,
			"extensions":{
				"KHR_materials_specular":{
					"specularColorFactor":[
						2.371357614441398,
						2.371357614441398,
						2.371357614441398
					]
				},
				"KHR_materials_ior":{
					"ior":1.4500000476837158
				}
			},
			"name":"Paint Gray",
			"pbrMetallicRoughness":{
				"baseColorFactor":[
					0.1169707253575325,
					0.12213879078626633,
					0.16513225436210632,
					1
				],
				"metallicFactor":0,
				"roughnessFactor":0.5527864098548889
			}
		},
		{
			"doubleSided":true,
			"extensions":{
				"KHR_materials_specular":{
					"specularColorFactor":[
						2.371357614441398,
						2.371357614441398,
						2.371357614441398
					]
				},
				"KHR_materials_ior":{
					"ior":1.4500000476837158
				}
			},
			"name":"Metal Mat",
			"pbrMetallicRoughness":{
				"baseColorFactor":[
					0.06993462890386581,
					0.06993462890386581,
					0.06993462890386581,
					1
				],
				"roughnessFactor":0.5527864098548889
			}
		}
	],
	"meshes":[
		{
			"name":"Mesh.157",
			"primitives":[
				{
					"attributes":{
						"POSITION":0,
						"NORMAL":1,
						"TEXCOORD_0":2
					},
					"indices":3,
					"material":0
				},
				{
					"attributes":{
						"POSITION":4,
						"NORMAL":5,
						"TEXCOORD_0":6
					},
					"indices":7,
					"material":1
				}
			]
		}
	],
	"accessors":[
		{
			"bufferView":0,
			"componentType":5126,
			"count":144,
			"max":[
				10.582091331481934,
				2.445112705230713,
				-9.60341739654541
			],
			"min":[
				10.576581954956055,
				0.07340586185455322,
				-10.376678466796875
			],
			"type":"VEC3"
		},
		{
			"bufferView":1,
			"componentType":5126,
			"count":144,
			"type":"VEC3"
		},
		{
			"bufferView":2,
			"componentType":5126,
			"count":144,
			"type":"VEC2"
		},
		{
			"bufferView":3,
			"componentType":5123,
			"count":216,
			"type":"SCALAR"
		},
		{
			"bufferView":4,
			"componentType":5126,
			"count":1790,
			"max":[
				10.59758186340332,
				2.454852342605591,
				-9.589529037475586
			],
			"min":[
				10.57284927368164,
				0.03894926235079765,
				-10.390703201293945
			],
			"type":"VEC3"
		},
		{
			"bufferView":5,
			"componentType":5126,
			"count":1790,
			"type":"VEC3"
		},
		{
			"bufferView":6,
			"componentType":5126,
			"count":1790,
			"type":"VEC2"
		},
		{
			"bufferView":7,
			"componentType":5123,
			"count":4602,
			"type":"SCALAR"
		},
		{
			"bufferView":8,
			"componentType":5126,
			"count":47,
			"max":[
				1.9583333333333333
			],
			"min":[
				0.041666666666666664
			],
			"type":"SCALAR"
		},
		{
			"bufferView":9,
			"componentType":5126,
			"count":47,
			"type":"VEC3"
		}
	],
	"bufferViews":[
		{
			"buffer":0,
			"byteLength":1728,
			"byteOffset":0,
			"target":34962
		},
		{
			"buffer":0,
			"byteLength":1728,
			"byteOffset":1728,
			"target":34962
		},
		{
			"buffer":0,
			"byteLength":1152,
			"byteOffset":3456,
			"target":34962
		},
		{
			"buffer":0,
			"byteLength":432,
			"byteOffset":4608,
			"target":34963
		},
		{
			"buffer":0,
			"byteLength":21480,
			"byteOffset":5040,
			"target":34962
		},
		{
			"buffer":0,
			"byteLength":21480,
			"byteOffset":26520,
			"target":34962
		},
		{
			"buffer":0,
			"byteLength":14320,
			"byteOffset":48000,
			"target":34962
		},
		{
			"buffer":0,
			"byteLength":9204,
			"byteOffset":62320,
			"target":34963
		},
		{
			"buffer":0,
			"byteLength":188,
			"byteOffset":71524
		},
		{
			"buffer":0,
			"byteLength":564,
			"byteOffset":71712
		}
	],
	"buffers":[
		{
			"byteLength":72276,
			"uri":"animated_bedroom_wardrobe_door_left.bin"
		}
	]
}
