{
	"asset":{
		"generator":"Khronos glTF Blender I/O v3.6.27",
		"version":"2.0"
	},
	"scene":0,
	"scenes":[
		{
			"name":"2 Animation to export Scene (Linked)",
			"nodes":[
				0
			]
		}
	],
	"nodes":[
		{
			"mesh":0,
			"name":"HouseCircularPartition",
			"translation":[
				5.7709479331970215,
				0,
				-7.970262050628662
			]
		}
	],
	"animations":[
		{
			"channels":[
				{
					"sampler":0,
					"target":{
						"node":0,
						"path":"rotation"
					}
				}
			],
			"name":"HouseCircularPartitionAction",
			"samplers":[
				{
					"input":4,
					"interpolation":"LINEAR",
					"output":5
				}
			]
		}
	],
	"materials":[
		{
			"doubleSided":true,
			"name":"Wallpaper",
			"normalTexture":{
				"index":0
			},
			"pbrMetallicRoughness":{
				"baseColorTexture":{
					"index":1
				},
				"metallicFactor":0,
				"metallicRoughnessTexture":{
					"index":2
				}
			}
		}
	],
	"meshes":[
		{
			"name":"Curve.050",
			"primitives":[
				{
					"attributes":{
						"POSITION":0,
						"NORMAL":1,
						"TEXCOORD_0":2
					},
					"indices":3,
					"material":0
				}
			]
		}
	],
	"textures":[
		{
			"sampler":0,
			"source":0
		},
		{
			"sampler":0,
			"source":1
		},
		{
			"sampler":0,
			"source":2
		}
	],
	"images":[
		{
			"mimeType":"image/jpeg",
			"name":"Paper001_1K_NormalDX",
			"uri":"textures/Paper001_1K_NormalDX.jpg"
		},
		{
			"mimeType":"image/jpeg",
			"name":"Paper001_1K_Color",
			"uri":"textures/Paper001_1K_Color.jpg"
		},
		{
			"mimeType":"image/png",
			"name":"Paper001_1K_Roughness",
			"uri":"textures/Paper001_1K_Roughness.png"
		}
	],
	"accessors":[
		{
			"bufferView":0,
			"componentType":5126,
			"count":771,
			"max":[
				1.4281997680664062,
				3.000000238418579,
				0.014108896255493164
			],
			"min":[
				-1.7804672718048096,
				-9.999999747378752e-06,
				-2.0315146446228027
			],
			"type":"VEC3"
		},
		{
			"bufferView":1,
			"componentType":5126,
			"count":771,
			"type":"VEC3"
		},
		{
			"bufferView":2,
			"componentType":5126,
			"count":771,
			"type":"VEC2"
		},
		{
			"bufferView":3,
			"componentType":5123,
			"count":1566,
			"type":"SCALAR"
		},
		{
			"bufferView":4,
			"componentType":5126,
			"count":120,
			"max":[
				5
			],
			"min":[
				0.041666666666666664
			],
			"type":"SCALAR"
		},
		{
			"bufferView":5,
			"componentType":5126,
			"count":120,
			"type":"VEC4"
		}
	],
	"bufferViews":[
		{
			"buffer":0,
			"byteLength":9252,
			"byteOffset":0,
			"target":34962
		},
		{
			"buffer":0,
			"byteLength":9252,
			"byteOffset":9252,
			"target":34962
		},
		{
			"buffer":0,
			"byteLength":6168,
			"byteOffset":18504,
			"target":34962
		},
		{
			"buffer":0,
			"byteLength":3132,
			"byteOffset":24672,
			"target":34963
		},
		{
			"buffer":0,
			"byteLength":480,
			"byteOffset":27804
		},
		{
			"buffer":0,
			"byteLength":1920,
			"byteOffset":28284
		}
	],
	"samplers":[
		{
			"magFilter":9729,
			"minFilter":9987
		}
	],
	"buffers":[
		{
			"byteLength":30204,
			"uri":"animated_livingroom_partition.bin"
		}
	]
}
