{
	"asset":{
		"generator":"Khronos glTF Blender I/O v3.6.27",
		"version":"2.0"
	},
	"extensionsUsed":[
		"KHR_materials_specular",
		"KHR_materials_ior"
	],
	"scene":0,
	"scenes":[
		{
			"name":"2 Animation to export Scene (Linked)",
			"nodes":[
				0
			]
		}
	],
	"nodes":[
		{
			"mesh":0,
			"name":"DoorMirror"
		}
	],
	"animations":[
		{
			"channels":[
				{
					"sampler":0,
					"target":{
						"node":0,
						"path":"translation"
					}
				}
			],
			"name":"DoorMirrorAction",
			"samplers":[
				{
					"input":8,
					"interpolation":"LINEAR",
					"output":9
				}
			]
		}
	],
	"materials":[
		{
			"doubleSided":true,
			"extensions":{
				"KHR_materials_specular":{
					"specularColorFactor":[
						2.371357614441398,
						2.371357614441398,
						2.371357614441398
					]
				},
				"KHR_materials_ior":{
					"ior":1.4500000476837158
				}
			},
			"name":"Metal Mat",
			"pbrMetallicRoughness":{
				"baseColorFactor":[
					0.06993462890386581,
					0.06993462890386581,
					0.06993462890386581,
					1
				],
				"roughnessFactor":0.5527864098548889
			}
		},
		{
			"doubleSided":true,
			"name":"Mirror",
			"pbrMetallicRoughness":{}
		}
	],
	"meshes":[
		{
			"name":"Mesh.161",
			"primitives":[
				{
					"attributes":{
						"POSITION":0,
						"NORMAL":1,
						"TEXCOORD_0":2
					},
					"indices":3,
					"material":0
				},
				{
					"attributes":{
						"POSITION":4,
						"NORMAL":5,
						"TEXCOORD_0":6
					},
					"indices":7,
					"material":1
				}
			]
		}
	],
	"accessors":[
		{
			"bufferView":0,
			"componentType":5126,
			"count":1832,
			"max":[
				10.62496280670166,
				2.4548521041870117,
				-10.394231796264648
			],
			"min":[
				10.600229263305664,
				0.03894856944680214,
				-11.205403327941895
			],
			"type":"VEC3"
		},
		{
			"bufferView":1,
			"componentType":5126,
			"count":1832,
			"type":"VEC3"
		},
		{
			"bufferView":2,
			"componentType":5126,
			"count":1832,
			"type":"VEC2"
		},
		{
			"bufferView":3,
			"componentType":5123,
			"count":4710,
			"type":"SCALAR"
		},
		{
			"bufferView":4,
			"componentType":5126,
			"count":24,
			"max":[
				10.6093111038208,
				2.4451122283935547,
				-10.408299446105957
			],
			"min":[
				10.607083320617676,
				0.07340608537197113,
				-11.191208839416504
			],
			"type":"VEC3"
		},
		{
			"bufferView":5,
			"componentType":5126,
			"count":24,
			"type":"VEC3"
		},
		{
			"bufferView":6,
			"componentType":5126,
			"count":24,
			"type":"VEC2"
		},
		{
			"bufferView":7,
			"componentType":5123,
			"count":36,
			"type":"SCALAR"
		},
		{
			"bufferView":8,
			"componentType":5126,
			"count":47,
			"max":[
				1.9583333333333333
			],
			"min":[
				0.041666666666666664
			],
			"type":"SCALAR"
		},
		{
			"bufferView":9,
			"componentType":5126,
			"count":47,
			"type":"VEC3"
		}
	],
	"bufferViews":[
		{
			"buffer":0,
			"byteLength":21984,
			"byteOffset":0,
			"target":34962
		},
		{
			"buffer":0,
			"byteLength":21984,
			"byteOffset":21984,
			"target":34962
		},
		{
			"buffer":0,
			"byteLength":14656,
			"byteOffset":43968,
			"target":34962
		},
		{
			"buffer":0,
			"byteLength":9420,
			"byteOffset":58624,
			"target":34963
		},
		{
			"buffer":0,
			"byteLength":288,
			"byteOffset":68044,
			"target":34962
		},
		{
			"buffer":0,
			"byteLength":288,
			"byteOffset":68332,
			"target":34962
		},
		{
			"buffer":0,
			"byteLength":192,
			"byteOffset":68620,
			"target":34962
		},
		{
			"buffer":0,
			"byteLength":72,
			"byteOffset":68812,
			"target":34963
		},
		{
			"buffer":0,
			"byteLength":188,
			"byteOffset":68884
		},
		{
			"buffer":0,
			"byteLength":564,
			"byteOffset":69072
		}
	],
	"buffers":[
		{
			"byteLength":69636,
			"uri":"animated_bedroom_wardrobe_door_mirror.bin"
		}
	]
}
