{
	"asset":{
		"generator":"Khronos glTF Blender I/O v3.6.27",
		"version":"2.0"
	},
	"extensionsUsed":[
		"KHR_materials_specular",
		"KHR_materials_ior"
	],
	"scene":0,
	"scenes":[
		{
			"name":"2 Animation to export Scene (Linked)",
			"nodes":[
				0
			]
		}
	],
	"nodes":[
		{
			"mesh":0,
			"name":"Bedroom Bed.001"
		}
	],
	"materials":[
		{
			"doubleSided":true,
			"extensions":{
				"KHR_materials_specular":{
					"specularColorFactor":[
						2.371357614441398,
						2.371357614441398,
						2.371357614441398
					]
				},
				"KHR_materials_ior":{
					"ior":1.4500000476837158
				}
			},
			"name":"Metal Mat",
			"pbrMetallicRoughness":{
				"baseColorFactor":[
					0.06993462890386581,
					0.06993462890386581,
					0.06993462890386581,
					1
				],
				"roughnessFactor":0.5527864098548889
			}
		},
		{
			"doubleSided":true,
			"name":"Textile Wool",
			"normalTexture":{
				"index":0
			},
			"pbrMetallicRoughness":{
				"baseColorTexture":{
					"index":1
				},
				"metallicFactor":0,
				"metallicRoughnessTexture":{
					"index":2
				}
			}
		},
		{
			"doubleSided":true,
			"extensions":{
				"KHR_materials_specular":{
					"specularColorFactor":[
						2.371357614441398,
						2.371357614441398,
						2.371357614441398
					]
				},
				"KHR_materials_ior":{
					"ior":1.4500000476837158
				}
			},
			"name":"Textile Sofa Classic Soft",
			"pbrMetallicRoughness":{
				"baseColorFactor":[
					1,
					1,
					1,
					0.9960784316062927
				],
				"baseColorTexture":{
					"index":3
				},
				"metallicRoughnessTexture":{
					"index":4
				},
				"roughnessFactor":0.5527864098548889
			}
		},
		{
			"doubleSided":true,
			"extensions":{
				"KHR_materials_specular":{
					"specularColorFactor":[
						0.711407312601205,
						0.711407312601205,
						0.711407312601205
					]
				},
				"KHR_materials_ior":{
					"ior":1.4500000476837158
				}
			},
			"name":"Textile Pillow Caput Mortuum",
			"normalTexture":{
				"index":5
			},
			"pbrMetallicRoughness":{
				"baseColorTexture":{
					"index":6
				},
				"metallicFactor":0,
				"metallicRoughnessTexture":{
					"index":7
				}
			}
		},
		{
			"doubleSided":true,
			"extensions":{
				"KHR_materials_specular":{
					"specularColorFactor":[
						0.711407312601205,
						0.711407312601205,
						0.711407312601205
					]
				},
				"KHR_materials_ior":{
					"ior":1.4500000476837158
				}
			},
			"name":"Textile Pillow Persimmon",
			"normalTexture":{
				"index":8
			},
			"pbrMetallicRoughness":{
				"baseColorTexture":{
					"index":9
				},
				"metallicFactor":0,
				"metallicRoughnessTexture":{
					"index":10
				}
			}
		},
		{
			"doubleSided":true,
			"name":"Textile Blanket Brown",
			"normalTexture":{
				"index":11
			},
			"pbrMetallicRoughness":{
				"baseColorTexture":{
					"index":12
				},
				"metallicFactor":0,
				"metallicRoughnessTexture":{
					"index":13
				}
			}
		}
	],
	"meshes":[
		{
			"name":"Cylinder049.001",
			"primitives":[
				{
					"attributes":{
						"POSITION":0,
						"NORMAL":1,
						"TEXCOORD_0":2
					},
					"indices":3,
					"material":0
				},
				{
					"attributes":{
						"POSITION":4,
						"NORMAL":5,
						"TEXCOORD_0":6
					},
					"indices":7,
					"material":1
				},
				{
					"attributes":{
						"POSITION":8,
						"NORMAL":9,
						"TEXCOORD_0":10
					},
					"indices":11,
					"material":2
				},
				{
					"attributes":{
						"POSITION":12,
						"NORMAL":13,
						"TEXCOORD_0":14
					},
					"indices":15,
					"material":3
				},
				{
					"attributes":{
						"POSITION":16,
						"NORMAL":17,
						"TEXCOORD_0":18
					},
					"indices":19,
					"material":4
				},
				{
					"attributes":{
						"POSITION":20,
						"NORMAL":21,
						"TEXCOORD_0":22
					},
					"indices":23,
					"material":5
				}
			]
		}
	],
	"textures":[
		{
			"sampler":0,
			"source":0
		},
		{
			"sampler":0,
			"source":1
		},
		{
			"sampler":0,
			"source":2
		},
		{
			"sampler":0,
			"source":3
		},
		{
			"sampler":0,
			"source":4
		},
		{
			"sampler":0,
			"source":5
		},
		{
			"sampler":0,
			"source":6
		},
		{
			"sampler":0,
			"source":7
		},
		{
			"sampler":0,
			"source":5
		},
		{
			"sampler":0,
			"source":8
		},
		{
			"sampler":0,
			"source":7
		},
		{
			"sampler":0,
			"source":9
		},
		{
			"sampler":0,
			"source":10
		},
		{
			"sampler":0,
			"source":11
		}
	],
	"images":[
		{
			"mimeType":"image/jpeg",
			"name":"Fabric034_1K_NormalDX",
			"uri":"textures/Fabric034_1K_NormalDX.jpg"
		},
		{
			"mimeType":"image/jpeg",
			"name":"Fabric034_1K_Color",
			"uri":"textures/Fabric034_1K_Color.jpg"
		},
		{
			"mimeType":"image/png",
			"name":"Fabric034_1K_Roughness",
			"uri":"textures/Fabric034_1K_Roughness.png"
		},
		{
			"mimeType":"image/jpeg",
			"name":"MATERIAL_CLASSIC_SOFT_DIFFUSE",
			"uri":"textures/MATERIAL_CLASSIC_SOFT_DIFFUSE.jpg"
		},
		{
			"mimeType":"image/png",
			"name":"MATERIAL_CLASSIC_SOFT_REFLECT",
			"uri":"textures/MATERIAL_CLASSIC_SOFT_REFLECT.png"
		},
		{
			"mimeType":"image/jpeg",
			"name":"Fabric001_2K_NormalDX",
			"uri":"textures/Fabric001_2K_NormalDX.jpg"
		},
		{
			"mimeType":"image/jpeg",
			"name":"Fabric001_2K_Caput_Mortuum",
			"uri":"textures/Fabric001_2K_Caput_Mortuum.jpg"
		},
		{
			"mimeType":"image/png",
			"name":"Fabric001_2K_Roughness",
			"uri":"textures/Fabric001_2K_Roughness.png"
		},
		{
			"mimeType":"image/jpeg",
			"name":"Fabric001_2K_Persimmon",
			"uri":"textures/Fabric001_2K_Persimmon.jpg"
		},
		{
			"mimeType":"image/jpeg",
			"name":"Fabric018_1K_NormalDX",
			"uri":"textures/Fabric018_1K_NormalDX.jpg"
		},
		{
			"mimeType":"image/jpeg",
			"name":"Fabric018_1K_Color 2",
			"uri":"textures/Fabric018_1K_Color%202.jpg"
		},
		{
			"mimeType":"image/png",
			"name":"Fabric018_1K_Roughness",
			"uri":"textures/Fabric018_1K_Roughness.png"
		}
	],
	"accessors":[
		{
			"bufferView":0,
			"componentType":5126,
			"count":82,
			"max":[
				13.302070617675781,
				0.012763871811330318,
				-9.705860137939453
			],
			"min":[
				11.518837928771973,
				-0.00025703563005663455,
				-12.002279281616211
			],
			"type":"VEC3"
		},
		{
			"bufferView":1,
			"componentType":5126,
			"count":82,
			"type":"VEC3"
		},
		{
			"bufferView":2,
			"componentType":5126,
			"count":82,
			"type":"VEC2"
		},
		{
			"bufferView":3,
			"componentType":5123,
			"count":342,
			"type":"SCALAR"
		},
		{
			"bufferView":4,
			"componentType":5126,
			"count":770,
			"max":[
				13.350232124328613,
				0.9886069297790527,
				-9.652359008789062
			],
			"min":[
				11.462362289428711,
				0.012594752945005894,
				-12.033928871154785
			],
			"type":"VEC3"
		},
		{
			"bufferView":5,
			"componentType":5126,
			"count":770,
			"type":"VEC3"
		},
		{
			"bufferView":6,
			"componentType":5126,
			"count":770,
			"type":"VEC2"
		},
		{
			"bufferView":7,
			"componentType":5123,
			"count":2070,
			"type":"SCALAR"
		},
		{
			"bufferView":8,
			"componentType":5126,
			"count":1529,
			"max":[
				13.199383735656738,
				0.44534552097320557,
				-9.801445960998535
			],
			"min":[
				11.620689392089844,
				0.24837088584899902,
				-11.756813049316406
			],
			"type":"VEC3"
		},
		{
			"bufferView":9,
			"componentType":5126,
			"count":1529,
			"type":"VEC3"
		},
		{
			"bufferView":10,
			"componentType":5126,
			"count":1529,
			"type":"VEC2"
		},
		{
			"bufferView":11,
			"componentType":5123,
			"count":4716,
			"type":"SCALAR"
		},
		{
			"bufferView":12,
			"componentType":5126,
			"count":866,
			"max":[
				13.099239349365234,
				0.6965026259422302,
				-11.009577751159668
			],
			"min":[
				11.765789031982422,
				0.43604815006256104,
				-11.357596397399902
			],
			"type":"VEC3"
		},
		{
			"bufferView":13,
			"componentType":5126,
			"count":866,
			"type":"VEC3"
		},
		{
			"bufferView":14,
			"componentType":5126,
			"count":866,
			"type":"VEC2"
		},
		{
			"bufferView":15,
			"componentType":5123,
			"count":5142,
			"type":"SCALAR"
		},
		{
			"bufferView":16,
			"componentType":5126,
			"count":2637,
			"max":[
				13.180856704711914,
				0.7351021766662598,
				-11.279081344604492
			],
			"min":[
				11.628082275390625,
				0.43040919303894043,
				-11.803144454956055
			],
			"type":"VEC3"
		},
		{
			"bufferView":17,
			"componentType":5126,
			"count":2637,
			"type":"VEC3"
		},
		{
			"bufferView":18,
			"componentType":5126,
			"count":2637,
			"type":"VEC2"
		},
		{
			"bufferView":19,
			"componentType":5123,
			"count":9900,
			"type":"SCALAR"
		},
		{
			"bufferView":20,
			"componentType":5126,
			"count":5516,
			"max":[
				13.248538970947266,
				0.5142918229103088,
				-9.755746841430664
			],
			"min":[
				11.588531494140625,
				0.3241066634654999,
				-10.783863067626953
			],
			"type":"VEC3"
		},
		{
			"bufferView":21,
			"componentType":5126,
			"count":5516,
			"type":"VEC3"
		},
		{
			"bufferView":22,
			"componentType":5126,
			"count":5516,
			"type":"VEC2"
		},
		{
			"bufferView":23,
			"componentType":5123,
			"count":16701,
			"type":"SCALAR"
		}
	],
	"bufferViews":[
		{
			"buffer":0,
			"byteLength":984,
			"byteOffset":0,
			"target":34962
		},
		{
			"buffer":0,
			"byteLength":984,
			"byteOffset":984,
			"target":34962
		},
		{
			"buffer":0,
			"byteLength":656,
			"byteOffset":1968,
			"target":34962
		},
		{
			"buffer":0,
			"byteLength":684,
			"byteOffset":2624,
			"target":34963
		},
		{
			"buffer":0,
			"byteLength":9240,
			"byteOffset":3308,
			"target":34962
		},
		{
			"buffer":0,
			"byteLength":9240,
			"byteOffset":12548,
			"target":34962
		},
		{
			"buffer":0,
			"byteLength":6160,
			"byteOffset":21788,
			"target":34962
		},
		{
			"buffer":0,
			"byteLength":4140,
			"byteOffset":27948,
			"target":34963
		},
		{
			"buffer":0,
			"byteLength":18348,
			"byteOffset":32088,
			"target":34962
		},
		{
			"buffer":0,
			"byteLength":18348,
			"byteOffset":50436,
			"target":34962
		},
		{
			"buffer":0,
			"byteLength":12232,
			"byteOffset":68784,
			"target":34962
		},
		{
			"buffer":0,
			"byteLength":9432,
			"byteOffset":81016,
			"target":34963
		},
		{
			"buffer":0,
			"byteLength":10392,
			"byteOffset":90448,
			"target":34962
		},
		{
			"buffer":0,
			"byteLength":10392,
			"byteOffset":100840,
			"target":34962
		},
		{
			"buffer":0,
			"byteLength":6928,
			"byteOffset":111232,
			"target":34962
		},
		{
			"buffer":0,
			"byteLength":10284,
			"byteOffset":118160,
			"target":34963
		},
		{
			"buffer":0,
			"byteLength":31644,
			"byteOffset":128444,
			"target":34962
		},
		{
			"buffer":0,
			"byteLength":31644,
			"byteOffset":160088,
			"target":34962
		},
		{
			"buffer":0,
			"byteLength":21096,
			"byteOffset":191732,
			"target":34962
		},
		{
			"buffer":0,
			"byteLength":19800,
			"byteOffset":212828,
			"target":34963
		},
		{
			"buffer":0,
			"byteLength":66192,
			"byteOffset":232628,
			"target":34962
		},
		{
			"buffer":0,
			"byteLength":66192,
			"byteOffset":298820,
			"target":34962
		},
		{
			"buffer":0,
			"byteLength":44128,
			"byteOffset":365012,
			"target":34962
		},
		{
			"buffer":0,
			"byteLength":33402,
			"byteOffset":409140,
			"target":34963
		}
	],
	"samplers":[
		{
			"magFilter":9729,
			"minFilter":9987
		}
	],
	"buffers":[
		{
			"byteLength":442544,
			"uri":"bedroom_bed.bin"
		}
	]
}
