{
	"asset":{
		"generator":"Khronos glTF Blender I/O v3.6.27",
		"version":"2.0"
	},
	"extensionsUsed":[
		"KHR_materials_specular",
		"KHR_materials_ior",
		"KHR_materials_emissive_strength"
	],
	"scene":0,
	"scenes":[
		{
			"name":"2 Animation to export Scene (Linked)",
			"nodes":[
				0
			]
		}
	],
	"nodes":[
		{
			"mesh":0,
			"name":"BedroomWardrobe"
		}
	],
	"materials":[
		{
			"doubleSided":true,
			"extensions":{
				"KHR_materials_specular":{
					"specularColorFactor":[
						2.371357614441398,
						2.371357614441398,
						2.371357614441398
					]
				},
				"KHR_materials_ior":{
					"ior":1.4500000476837158
				}
			},
			"name":"Metal Mat",
			"pbrMetallicRoughness":{
				"baseColorFactor":[
					0.06993462890386581,
					0.06993462890386581,
					0.06993462890386581,
					1
				],
				"roughnessFactor":0.5527864098548889
			}
		},
		{
			"doubleSided":true,
			"extensions":{
				"KHR_materials_specular":{
					"specularColorTexture":{
						"index":0
					},
					"specularColorFactor":[
						2.371357614441398,
						2.371357614441398,
						2.371357614441398
					]
				},
				"KHR_materials_ior":{
					"ior":1.4500000476837158
				}
			},
			"name":"Wood Real Ash",
			"normalTexture":{
				"index":1,
				"scale":0.10000000149011612
			},
			"pbrMetallicRoughness":{
				"baseColorTexture":{
					"index":2
				},
				"metallicFactor":0,
				"roughnessFactor":0.5
			}
		},
		{
			"doubleSided":true,
			"extensions":{
				"KHR_materials_specular":{
					"specularColorFactor":[
						1,
						1,
						1
					]
				},
				"KHR_materials_ior":{
					"ior":1
				}
			},
			"name":"Metal Chrome",
			"pbrMetallicRoughness":{
				"baseColorFactor":[
					0.4910377264022827,
					0.4764433801174164,
					0.40801364183425903,
					1
				],
				"roughnessFactor":0.21590909361839294
			}
		},
		{
			"doubleSided":true,
			"emissiveFactor":[
				1,
				1,
				1
			],
			"extensions":{
				"KHR_materials_emissive_strength":{
					"emissiveStrength":10
				}
			},
			"name":"Lightning",
			"pbrMetallicRoughness":{
				"baseColorFactor":[
					0,
					0,
					0,
					1
				]
			}
		}
	],
	"meshes":[
		{
			"name":"Mesh.133",
			"primitives":[
				{
					"attributes":{
						"POSITION":0,
						"NORMAL":1,
						"TEXCOORD_0":2,
						"TEXCOORD_1":3
					},
					"indices":4,
					"material":0
				},
				{
					"attributes":{
						"POSITION":5,
						"NORMAL":6,
						"TEXCOORD_0":7,
						"TEXCOORD_1":8
					},
					"indices":9,
					"material":1
				},
				{
					"attributes":{
						"POSITION":10,
						"NORMAL":11,
						"TEXCOORD_0":12,
						"TEXCOORD_1":13
					},
					"indices":14,
					"material":2
				},
				{
					"attributes":{
						"POSITION":15,
						"NORMAL":16,
						"TEXCOORD_0":17,
						"TEXCOORD_1":18
					},
					"indices":19,
					"material":3
				}
			]
		}
	],
	"textures":[
		{
			"sampler":0,
			"source":0
		},
		{
			"sampler":0,
			"source":1
		},
		{
			"sampler":0,
			"source":2
		}
	],
	"images":[
		{
			"mimeType":"image/png",
			"name":"Image",
			"uri":"textures/Image.png"
		},
		{
			"mimeType":"image/png",
			"name":"NormalMap (1).png",
			"uri":"textures/NormalMap%201_png.png"
		},
		{
			"mimeType":"image/jpeg",
			"name":"textura-dereva 212.jpg",
			"uri":"textures/textura-dereva%20212_jpg.jpg"
		}
	],
	"accessors":[
		{
			"bufferView":0,
			"componentType":5126,
			"count":946,
			"max":[
				10.627829551696777,
				2.474999189376831,
				-9.589471817016602
			],
			"min":[
				10.570063591003418,
				0.03200101852416992,
				-12.009397506713867
			],
			"type":"VEC3"
		},
		{
			"bufferView":1,
			"componentType":5126,
			"count":946,
			"type":"VEC3"
		},
		{
			"bufferView":2,
			"componentType":5126,
			"count":946,
			"type":"VEC2"
		},
		{
			"bufferView":3,
			"componentType":5126,
			"count":946,
			"type":"VEC2"
		},
		{
			"bufferView":4,
			"componentType":5123,
			"count":2352,
			"type":"SCALAR"
		},
		{
			"bufferView":5,
			"componentType":5126,
			"count":456,
			"max":[
				10.635075569152832,
				3.0000007152557373,
				-9.452640533447266
			],
			"min":[
				9.426417350769043,
				-2.384185791015625e-07,
				-12.03448486328125
			],
			"type":"VEC3"
		},
		{
			"bufferView":6,
			"componentType":5126,
			"count":456,
			"type":"VEC3"
		},
		{
			"bufferView":7,
			"componentType":5126,
			"count":456,
			"type":"VEC2"
		},
		{
			"bufferView":8,
			"componentType":5126,
			"count":456,
			"type":"VEC2"
		},
		{
			"bufferView":9,
			"componentType":5123,
			"count":684,
			"type":"SCALAR"
		},
		{
			"bufferView":10,
			"componentType":5126,
			"count":3642,
			"max":[
				10.252996444702148,
				1.9804195165634155,
				-9.589484214782715
			],
			"min":[
				9.65212631225586,
				0.964083194732666,
				-12.010000228881836
			],
			"type":"VEC3"
		},
		{
			"bufferView":11,
			"componentType":5126,
			"count":3642,
			"type":"VEC3"
		},
		{
			"bufferView":12,
			"componentType":5126,
			"count":3642,
			"type":"VEC2"
		},
		{
			"bufferView":13,
			"componentType":5126,
			"count":3642,
			"type":"VEC2"
		},
		{
			"bufferView":14,
			"componentType":5123,
			"count":10680,
			"type":"SCALAR"
		},
		{
			"bufferView":15,
			"componentType":5126,
			"count":48,
			"max":[
				10.13913345336914,
				2.975687026977539,
				-9.589485168457031
			],
			"min":[
				10.119132995605469,
				0.03199946880340576,
				-12.00948429107666
			],
			"type":"VEC3"
		},
		{
			"bufferView":16,
			"componentType":5126,
			"count":48,
			"type":"VEC3"
		},
		{
			"bufferView":17,
			"componentType":5126,
			"count":48,
			"type":"VEC2"
		},
		{
			"bufferView":18,
			"componentType":5126,
			"count":48,
			"type":"VEC2"
		},
		{
			"bufferView":19,
			"componentType":5123,
			"count":72,
			"type":"SCALAR"
		}
	],
	"bufferViews":[
		{
			"buffer":0,
			"byteLength":11352,
			"byteOffset":0,
			"target":34962
		},
		{
			"buffer":0,
			"byteLength":11352,
			"byteOffset":11352,
			"target":34962
		},
		{
			"buffer":0,
			"byteLength":7568,
			"byteOffset":22704,
			"target":34962
		},
		{
			"buffer":0,
			"byteLength":7568,
			"byteOffset":30272,
			"target":34962
		},
		{
			"buffer":0,
			"byteLength":4704,
			"byteOffset":37840,
			"target":34963
		},
		{
			"buffer":0,
			"byteLength":5472,
			"byteOffset":42544,
			"target":34962
		},
		{
			"buffer":0,
			"byteLength":5472,
			"byteOffset":48016,
			"target":34962
		},
		{
			"buffer":0,
			"byteLength":3648,
			"byteOffset":53488,
			"target":34962
		},
		{
			"buffer":0,
			"byteLength":3648,
			"byteOffset":57136,
			"target":34962
		},
		{
			"buffer":0,
			"byteLength":1368,
			"byteOffset":60784,
			"target":34963
		},
		{
			"buffer":0,
			"byteLength":43704,
			"byteOffset":62152,
			"target":34962
		},
		{
			"buffer":0,
			"byteLength":43704,
			"byteOffset":105856,
			"target":34962
		},
		{
			"buffer":0,
			"byteLength":29136,
			"byteOffset":149560,
			"target":34962
		},
		{
			"buffer":0,
			"byteLength":29136,
			"byteOffset":178696,
			"target":34962
		},
		{
			"buffer":0,
			"byteLength":21360,
			"byteOffset":207832,
			"target":34963
		},
		{
			"buffer":0,
			"byteLength":576,
			"byteOffset":229192,
			"target":34962
		},
		{
			"buffer":0,
			"byteLength":576,
			"byteOffset":229768,
			"target":34962
		},
		{
			"buffer":0,
			"byteLength":384,
			"byteOffset":230344,
			"target":34962
		},
		{
			"buffer":0,
			"byteLength":384,
			"byteOffset":230728,
			"target":34962
		},
		{
			"buffer":0,
			"byteLength":144,
			"byteOffset":231112,
			"target":34963
		}
	],
	"samplers":[
		{
			"magFilter":9729,
			"minFilter":9987
		}
	],
	"buffers":[
		{
			"byteLength":231256,
			"uri":"bedroom_wardrobe.bin"
		}
	]
}
