{
	"asset":{
		"generator":"Khronos glTF Blender I/O v3.6.27",
		"version":"2.0"
	},
	"extensionsUsed":[
		"KHR_materials_specular",
		"KHR_materials_ior"
	],
	"scene":0,
	"scenes":[
		{
			"name":"2 Animation to export Scene (Linked)",
			"nodes":[
				0
			]
		}
	],
	"nodes":[
		{
			"mesh":0,
			"name":"BedroomNightstand",
			"rotation":[
				0.70710688829422,
				0,
				0,
				0.7071066498756409
			],
			"scale":[
				0.009999990463256836,
				0.009999990463256836,
				0.009999990463256836
			],
			"translation":[
				11.209177017211914,
				0,
				-11.823958396911621
			]
		}
	],
	"materials":[
		{
			"doubleSided":true,
			"name":"Textile Wool",
			"normalTexture":{
				"index":0
			},
			"pbrMetallicRoughness":{
				"baseColorTexture":{
					"index":1
				},
				"metallicFactor":0,
				"metallicRoughnessTexture":{
					"index":2
				}
			}
		},
		{
			"doubleSided":true,
			"name":"Glass Table",
			"pbrMetallicRoughness":{}
		},
		{
			"doubleSided":true,
			"extensions":{
				"KHR_materials_specular":{
					"specularColorFactor":[
						2.371357614441398,
						2.371357614441398,
						2.371357614441398
					]
				},
				"KHR_materials_ior":{
					"ior":1.4500000476837158
				}
			},
			"name":"Metal Mat",
			"pbrMetallicRoughness":{
				"baseColorFactor":[
					0.06993462890386581,
					0.06993462890386581,
					0.06993462890386581,
					1
				],
				"roughnessFactor":0.5527864098548889
			}
		}
	],
	"meshes":[
		{
			"name":"Techtkan",
			"primitives":[
				{
					"attributes":{
						"POSITION":0,
						"NORMAL":1,
						"TEXCOORD_0":2
					},
					"indices":3,
					"material":0
				},
				{
					"attributes":{
						"POSITION":4,
						"NORMAL":5,
						"TEXCOORD_0":6
					},
					"indices":7,
					"material":0
				},
				{
					"attributes":{
						"POSITION":8,
						"NORMAL":9,
						"TEXCOORD_0":10
					},
					"indices":11,
					"material":1
				},
				{
					"attributes":{
						"POSITION":12,
						"NORMAL":13,
						"TEXCOORD_0":14
					},
					"indices":15,
					"material":2
				}
			]
		}
	],
	"textures":[
		{
			"sampler":0,
			"source":0
		},
		{
			"sampler":0,
			"source":1
		},
		{
			"sampler":0,
			"source":2
		}
	],
	"images":[
		{
			"mimeType":"image/jpeg",
			"name":"Fabric034_1K_NormalDX",
			"uri":"textures/Fabric034_1K_NormalDX.jpg"
		},
		{
			"mimeType":"image/jpeg",
			"name":"Fabric034_1K_Color",
			"uri":"textures/Fabric034_1K_Color.jpg"
		},
		{
			"mimeType":"image/png",
			"name":"Fabric034_1K_Roughness",
			"uri":"textures/Fabric034_1K_Roughness.png"
		}
	],
	"accessors":[
		{
			"bufferView":0,
			"componentType":5126,
			"count":6846,
			"max":[
				23.0001220703125,
				18.906299591064453,
				-0.35530000925064087
			],
			"min":[
				-22.9998779296875,
				-21.19379997253418,
				-49.68830108642578
			],
			"type":"VEC3"
		},
		{
			"bufferView":1,
			"componentType":5126,
			"count":6846,
			"type":"VEC3"
		},
		{
			"bufferView":2,
			"componentType":5126,
			"count":6846,
			"type":"VEC2"
		},
		{
			"bufferView":3,
			"componentType":5123,
			"count":33522,
			"type":"SCALAR"
		},
		{
			"bufferView":4,
			"componentType":5126,
			"count":29597,
			"max":[
				22.992721557617188,
				18.92650032043457,
				-45.104400634765625
			],
			"min":[
				-22.982378005981445,
				-21.092100143432617,
				-49.67399978637695
			],
			"type":"VEC3"
		},
		{
			"bufferView":5,
			"componentType":5126,
			"count":29597,
			"type":"VEC3"
		},
		{
			"bufferView":6,
			"componentType":5126,
			"count":29597,
			"type":"VEC2"
		},
		{
			"bufferView":7,
			"componentType":5123,
			"count":84864,
			"type":"SCALAR"
		},
		{
			"bufferView":8,
			"componentType":5126,
			"count":88,
			"max":[
				22.411022186279297,
				18.553699493408203,
				-49.79999923706055
			],
			"min":[
				-22.410778045654297,
				-20.932199478149414,
				-50
			],
			"type":"VEC3"
		},
		{
			"bufferView":9,
			"componentType":5126,
			"count":88,
			"type":"VEC3"
		},
		{
			"bufferView":10,
			"componentType":5126,
			"count":88,
			"type":"VEC2"
		},
		{
			"bufferView":11,
			"componentType":5123,
			"count":228,
			"type":"SCALAR"
		},
		{
			"bufferView":12,
			"componentType":5126,
			"count":424,
			"max":[
				20.45062255859375,
				13.28849983215332,
				-0.006399999838322401
			],
			"min":[
				-20.36467742919922,
				-16.097000122070312,
				-0.3409000039100647
			],
			"type":"VEC3"
		},
		{
			"bufferView":13,
			"componentType":5126,
			"count":424,
			"type":"VEC3"
		},
		{
			"bufferView":14,
			"componentType":5126,
			"count":424,
			"type":"VEC2"
		},
		{
			"bufferView":15,
			"componentType":5123,
			"count":1152,
			"type":"SCALAR"
		}
	],
	"bufferViews":[
		{
			"buffer":0,
			"byteLength":82152,
			"byteOffset":0,
			"target":34962
		},
		{
			"buffer":0,
			"byteLength":82152,
			"byteOffset":82152,
			"target":34962
		},
		{
			"buffer":0,
			"byteLength":54768,
			"byteOffset":164304,
			"target":34962
		},
		{
			"buffer":0,
			"byteLength":67044,
			"byteOffset":219072,
			"target":34963
		},
		{
			"buffer":0,
			"byteLength":355164,
			"byteOffset":286116,
			"target":34962
		},
		{
			"buffer":0,
			"byteLength":355164,
			"byteOffset":641280,
			"target":34962
		},
		{
			"buffer":0,
			"byteLength":236776,
			"byteOffset":996444,
			"target":34962
		},
		{
			"buffer":0,
			"byteLength":169728,
			"byteOffset":1233220,
			"target":34963
		},
		{
			"buffer":0,
			"byteLength":1056,
			"byteOffset":1402948,
			"target":34962
		},
		{
			"buffer":0,
			"byteLength":1056,
			"byteOffset":1404004,
			"target":34962
		},
		{
			"buffer":0,
			"byteLength":704,
			"byteOffset":1405060,
			"target":34962
		},
		{
			"buffer":0,
			"byteLength":456,
			"byteOffset":1405764,
			"target":34963
		},
		{
			"buffer":0,
			"byteLength":5088,
			"byteOffset":1406220,
			"target":34962
		},
		{
			"buffer":0,
			"byteLength":5088,
			"byteOffset":1411308,
			"target":34962
		},
		{
			"buffer":0,
			"byteLength":3392,
			"byteOffset":1416396,
			"target":34962
		},
		{
			"buffer":0,
			"byteLength":2304,
			"byteOffset":1419788,
			"target":34963
		}
	],
	"samplers":[
		{
			"magFilter":9729,
			"minFilter":9987
		}
	],
	"buffers":[
		{
			"byteLength":1422092,
			"uri":"bedroom_nightstand_base.bin"
		}
	]
}
