{
	"asset":{
		"generator":"Khronos glTF Blender I/O v3.6.27",
		"version":"2.0"
	},
	"scene":0,
	"scenes":[
		{
			"name":"Scene",
			"nodes":[
				6
			]
		}
	],
	"nodes":[
		{
			"mesh":0,
			"name":"\u0421urtains.002",
			"rotation":[
				0,
				0.7071068286895752,
				0,
				0.7071068286895752
			],
			"translation":[
				2.078695297241211,
				3,
				-4.005512714385986
			]
		},
		{
			"mesh":1,
			"name":"\u0421urtains.003",
			"translation":[
				12.40652847290039,
				3,
				-4.112448692321777
			]
		},
		{
			"mesh":2,
			"name":"\u0421urtains.004",
			"translation":[
				14.127262115478516,
				3,
				-8.519403457641602
			]
		},
		{
			"mesh":3,
			"name":"\u0421urtains.005",
			"rotation":[
				0,
				-1,
				0,
				1.6292068494294654e-07
			],
			"translation":[
				14.127262115478516,
				3,
				-11.628496170043945
			]
		},
		{
			"mesh":4,
			"name":"\u0421urtains.007",
			"translation":[
				1.1987735033035278,
				3,
				-4.005512714385986
			]
		},
		{
			"mesh":5,
			"name":"\u0421urtains.001",
			"translation":[
				2.1217997074127197,
				3,
				-9.511001586914062
			]
		},
		{
			"children":[
				0,
				1,
				2,
				3,
				4,
				5
			],
			"name":"House\u0421urtains"
		}
	],
	"materials":[
		{
			"doubleSided":true,
			"name":"Textile Pillow Yellow",
			"normalTexture":{
				"index":0
			},
			"pbrMetallicRoughness":{
				"baseColorTexture":{
					"index":1
				},
				"metallicFactor":0,
				"metallicRoughnessTexture":{
					"index":2
				}
			}
		}
	],
	"meshes":[
		{
			"name":"Curve.005",
			"primitives":[
				{
					"attributes":{
						"POSITION":0,
						"NORMAL":1,
						"TEXCOORD_0":2
					},
					"indices":3,
					"material":0
				}
			]
		},
		{
			"name":"Curve.006",
			"primitives":[
				{
					"attributes":{
						"POSITION":4,
						"NORMAL":5,
						"TEXCOORD_0":6
					},
					"indices":7,
					"material":0
				}
			]
		},
		{
			"name":"Curve.009",
			"primitives":[
				{
					"attributes":{
						"POSITION":8,
						"NORMAL":9,
						"TEXCOORD_0":10
					},
					"indices":11,
					"material":0
				}
			]
		},
		{
			"name":"Curve.008",
			"primitives":[
				{
					"attributes":{
						"POSITION":12,
						"NORMAL":13,
						"TEXCOORD_0":14
					},
					"indices":15,
					"material":0
				}
			]
		},
		{
			"name":"Curve.002",
			"primitives":[
				{
					"attributes":{
						"POSITION":16,
						"NORMAL":17,
						"TEXCOORD_0":18
					},
					"indices":19,
					"material":0
				}
			]
		},
		{
			"name":"Curve.004",
			"primitives":[
				{
					"attributes":{
						"POSITION":20,
						"NORMAL":21,
						"TEXCOORD_0":22
					},
					"indices":23,
					"material":0
				}
			]
		}
	],
	"textures":[
		{
			"sampler":0,
			"source":0
		},
		{
			"sampler":0,
			"source":1
		},
		{
			"sampler":0,
			"source":2
		}
	],
	"images":[
		{
			"mimeType":"image/jpeg",
			"name":"Fabric001_2K_NormalDX",
			"uri":"textures/Fabric001_2K_NormalDX.jpg"
		},
		{
			"mimeType":"image/jpeg",
			"name":"Fabric001_2K_Yellow",
			"uri":"textures/Fabric001_2K_Yellow.jpg"
		},
		{
			"mimeType":"image/png",
			"name":"Fabric001_2K_Roughness",
			"uri":"textures/Fabric001_2K_Roughness.png"
		}
	],
	"accessors":[
		{
			"bufferView":0,
			"componentType":5126,
			"count":544,
			"max":[
				0,
				0,
				0
			],
			"min":[
				0,
				-3,
				-1.015197992324829
			],
			"type":"VEC3"
		},
		{
			"bufferView":1,
			"componentType":5126,
			"count":544,
			"type":"VEC3"
		},
		{
			"bufferView":2,
			"componentType":5126,
			"count":544,
			"type":"VEC2"
		},
		{
			"bufferView":3,
			"componentType":5123,
			"count":2970,
			"type":"SCALAR"
		},
		{
			"bufferView":4,
			"componentType":5126,
			"count":1258,
			"max":[
				0,
				2.384185791015625e-07,
				0
			],
			"min":[
				0,
				-3,
				-2.436472177505493
			],
			"type":"VEC3"
		},
		{
			"bufferView":5,
			"componentType":5126,
			"count":1258,
			"type":"VEC3"
		},
		{
			"bufferView":6,
			"componentType":5126,
			"count":1258,
			"type":"VEC2"
		},
		{
			"bufferView":7,
			"componentType":5123,
			"count":7128,
			"type":"SCALAR"
		},
		{
			"bufferView":8,
			"componentType":5126,
			"count":816,
			"max":[
				0,
				0,
				0
			],
			"min":[
				0,
				-3,
				-1.556636095046997
			],
			"type":"VEC3"
		},
		{
			"bufferView":9,
			"componentType":5126,
			"count":816,
			"type":"VEC3"
		},
		{
			"bufferView":10,
			"componentType":5126,
			"count":816,
			"type":"VEC2"
		},
		{
			"bufferView":11,
			"componentType":5123,
			"count":4554,
			"type":"SCALAR"
		},
		{
			"bufferView":12,
			"componentType":5126,
			"count":816,
			"max":[
				0,
				0,
				0
			],
			"min":[
				0,
				-3,
				-1.556636095046997
			],
			"type":"VEC3"
		},
		{
			"bufferView":13,
			"componentType":5126,
			"count":816,
			"type":"VEC3"
		},
		{
			"bufferView":14,
			"componentType":5126,
			"count":816,
			"type":"VEC2"
		},
		{
			"bufferView":15,
			"componentType":5123,
			"count":4554,
			"type":"SCALAR"
		},
		{
			"bufferView":16,
			"componentType":5126,
			"count":2278,
			"max":[
				0,
				4.76837158203125e-07,
				0
			],
			"min":[
				0,
				-3,
				-4.466864585876465
			],
			"type":"VEC3"
		},
		{
			"bufferView":17,
			"componentType":5126,
			"count":2278,
			"type":"VEC3"
		},
		{
			"bufferView":18,
			"componentType":5126,
			"count":2278,
			"type":"VEC2"
		},
		{
			"bufferView":19,
			"componentType":5123,
			"count":13068,
			"type":"SCALAR"
		},
		{
			"bufferView":20,
			"componentType":5126,
			"count":325,
			"max":[
				0,
				4.76837158203125e-07,
				1.2199640274047852
			],
			"min":[
				-0.8624008893966675,
				-3,
				0
			],
			"type":"VEC3"
		},
		{
			"bufferView":21,
			"componentType":5126,
			"count":325,
			"type":"VEC3"
		},
		{
			"bufferView":22,
			"componentType":5126,
			"count":325,
			"type":"VEC2"
		},
		{
			"bufferView":23,
			"componentType":5123,
			"count":1728,
			"type":"SCALAR"
		}
	],
	"bufferViews":[
		{
			"buffer":0,
			"byteLength":6528,
			"byteOffset":0,
			"target":34962
		},
		{
			"buffer":0,
			"byteLength":6528,
			"byteOffset":6528,
			"target":34962
		},
		{
			"buffer":0,
			"byteLength":4352,
			"byteOffset":13056,
			"target":34962
		},
		{
			"buffer":0,
			"byteLength":5940,
			"byteOffset":17408,
			"target":34963
		},
		{
			"buffer":0,
			"byteLength":15096,
			"byteOffset":23348,
			"target":34962
		},
		{
			"buffer":0,
			"byteLength":15096,
			"byteOffset":38444,
			"target":34962
		},
		{
			"buffer":0,
			"byteLength":10064,
			"byteOffset":53540,
			"target":34962
		},
		{
			"buffer":0,
			"byteLength":14256,
			"byteOffset":63604,
			"target":34963
		},
		{
			"buffer":0,
			"byteLength":9792,
			"byteOffset":77860,
			"target":34962
		},
		{
			"buffer":0,
			"byteLength":9792,
			"byteOffset":87652,
			"target":34962
		},
		{
			"buffer":0,
			"byteLength":6528,
			"byteOffset":97444,
			"target":34962
		},
		{
			"buffer":0,
			"byteLength":9108,
			"byteOffset":103972,
			"target":34963
		},
		{
			"buffer":0,
			"byteLength":9792,
			"byteOffset":113080,
			"target":34962
		},
		{
			"buffer":0,
			"byteLength":9792,
			"byteOffset":122872,
			"target":34962
		},
		{
			"buffer":0,
			"byteLength":6528,
			"byteOffset":132664,
			"target":34962
		},
		{
			"buffer":0,
			"byteLength":9108,
			"byteOffset":139192,
			"target":34963
		},
		{
			"buffer":0,
			"byteLength":27336,
			"byteOffset":148300,
			"target":34962
		},
		{
			"buffer":0,
			"byteLength":27336,
			"byteOffset":175636,
			"target":34962
		},
		{
			"buffer":0,
			"byteLength":18224,
			"byteOffset":202972,
			"target":34962
		},
		{
			"buffer":0,
			"byteLength":26136,
			"byteOffset":221196,
			"target":34963
		},
		{
			"buffer":0,
			"byteLength":3900,
			"byteOffset":247332,
			"target":34962
		},
		{
			"buffer":0,
			"byteLength":3900,
			"byteOffset":251232,
			"target":34962
		},
		{
			"buffer":0,
			"byteLength":2600,
			"byteOffset":255132,
			"target":34962
		},
		{
			"buffer":0,
			"byteLength":3456,
			"byteOffset":257732,
			"target":34963
		}
	],
	"samplers":[
		{
			"magFilter":9729,
			"minFilter":9987
		}
	],
	"buffers":[
		{
			"byteLength":261188,
			"uri":"house_curtains.bin"
		}
	]
}
