{
	"asset":{
		"generator":"Khronos glTF Blender I/O v3.6.27",
		"version":"2.0"
	},
	"extensionsUsed":[
		"KHR_materials_specular",
		"KHR_materials_ior",
		"KHR_materials_emissive_strength"
	],
	"scene":0,
	"scenes":[
		{
			"name":"Scene",
			"nodes":[
				35
			]
		}
	],
	"nodes":[
		{
			"mesh":0,
			"name":"\u0421\u0432\u0435\u0442\u0438\u043b\u044c\u043d\u0438\u043a \u0442\u043e\u0447\u0435\u0447\u043d\u044b\u0439",
			"scale":[
				0.05000000074505806,
				0.011594424955546856,
				0.05000000074505806
			],
			"translation":[
				8.14330005645752,
				2.988405466079712,
				-4.58859920501709
			]
		},
		{
			"mesh":0,
			"name":"\u0421\u0432\u0435\u0442\u0438\u043b\u044c\u043d\u0438\u043a \u0442\u043e\u0447\u0435\u0447\u043d\u044b\u0439.001",
			"scale":[
				0.05000000074505806,
				0.011594424955546856,
				0.05000000074505806
			],
			"translation":[
				8.14330005645752,
				2.988405466079712,
				-5.58859920501709
			]
		},
		{
			"mesh":0,
			"name":"\u0421\u0432\u0435\u0442\u0438\u043b\u044c\u043d\u0438\u043a \u0442\u043e\u0447\u0435\u0447\u043d\u044b\u0439.002",
			"scale":[
				0.05000000074505806,
				0.011594424955546856,
				0.05000000074505806
			],
			"translation":[
				8.14330005645752,
				2.988405466079712,
				-8.588600158691406
			]
		},
		{
			"mesh":0,
			"name":"\u0421\u0432\u0435\u0442\u0438\u043b\u044c\u043d\u0438\u043a \u0442\u043e\u0447\u0435\u0447\u043d\u044b\u0439.003",
			"scale":[
				0.05000000074505806,
				0.011594424955546856,
				0.05000000074505806
			],
			"translation":[
				8.14330005645752,
				2.988405466079712,
				-6.58859920501709
			]
		},
		{
			"mesh":0,
			"name":"\u0421\u0432\u0435\u0442\u0438\u043b\u044c\u043d\u0438\u043a \u0442\u043e\u0447\u0435\u0447\u043d\u044b\u0439.004",
			"scale":[
				0.05000000074505806,
				0.011594424955546856,
				0.05000000074505806
			],
			"translation":[
				8.14330005645752,
				2.988405466079712,
				-7.58859920501709
			]
		},
		{
			"mesh":0,
			"name":"\u0421\u0432\u0435\u0442\u0438\u043b\u044c\u043d\u0438\u043a \u0442\u043e\u0447\u0435\u0447\u043d\u044b\u0439.005",
			"rotation":[
				0,
				0.7071068286895752,
				0,
				0.7071068286895752
			],
			"scale":[
				0.05000000074505806,
				0.011594424955546856,
				0.05000000074505806
			],
			"translation":[
				4.749372959136963,
				2.988405466079712,
				-4.7806901931762695
			]
		},
		{
			"mesh":0,
			"name":"\u0421\u0432\u0435\u0442\u0438\u043b\u044c\u043d\u0438\u043a \u0442\u043e\u0447\u0435\u0447\u043d\u044b\u0439.006",
			"rotation":[
				0,
				0.7071068286895752,
				0,
				0.7071068286895752
			],
			"scale":[
				0.05000000074505806,
				0.011594424955546856,
				0.05000000074505806
			],
			"translation":[
				3.749372959136963,
				2.988405466079712,
				-4.7806901931762695
			]
		},
		{
			"mesh":0,
			"name":"\u0421\u0432\u0435\u0442\u0438\u043b\u044c\u043d\u0438\u043a \u0442\u043e\u0447\u0435\u0447\u043d\u044b\u0439.007",
			"rotation":[
				0,
				0.7071068286895752,
				0,
				0.7071068286895752
			],
			"scale":[
				0.05000000074505806,
				0.011594424955546856,
				0.05000000074505806
			],
			"translation":[
				2.749372959136963,
				2.988405466079712,
				-4.7806901931762695
			]
		},
		{
			"mesh":0,
			"name":"\u0421\u0432\u0435\u0442\u0438\u043b\u044c\u043d\u0438\u043a \u0442\u043e\u0447\u0435\u0447\u043d\u044b\u0439.008",
			"rotation":[
				0,
				0.7071068286895752,
				0,
				0.7071068286895752
			],
			"scale":[
				0.05000000074505806,
				0.011594424955546856,
				0.05000000074505806
			],
			"translation":[
				1.749372959136963,
				2.988405466079712,
				-4.7806901931762695
			]
		},
		{
			"mesh":0,
			"name":"\u0421\u0432\u0435\u0442\u0438\u043b\u044c\u043d\u0438\u043a \u0442\u043e\u0447\u0435\u0447\u043d\u044b\u0439.009",
			"rotation":[
				0,
				0.7071068286895752,
				0,
				0.7071068286895752
			],
			"scale":[
				0.05000000074505806,
				0.011594424955546856,
				0.05000000074505806
			],
			"translation":[
				1.749372959136963,
				2.988405466079712,
				-5.7806901931762695
			]
		},
		{
			"mesh":0,
			"name":"\u0421\u0432\u0435\u0442\u0438\u043b\u044c\u043d\u0438\u043a \u0442\u043e\u0447\u0435\u0447\u043d\u044b\u0439.010",
			"rotation":[
				0,
				0.7071068286895752,
				0,
				0.7071068286895752
			],
			"scale":[
				0.05000000074505806,
				0.011594424955546856,
				0.05000000074505806
			],
			"translation":[
				1.749372959136963,
				2.988405466079712,
				-6.7806901931762695
			]
		},
		{
			"mesh":0,
			"name":"\u0421\u0432\u0435\u0442\u0438\u043b\u044c\u043d\u0438\u043a \u0442\u043e\u0447\u0435\u0447\u043d\u044b\u0439.011",
			"rotation":[
				0,
				0.7071068286895752,
				0,
				0.7071068286895752
			],
			"scale":[
				0.05000000074505806,
				0.011594424955546856,
				0.05000000074505806
			],
			"translation":[
				5.1467156410217285,
				2.988405466079712,
				-11.360065460205078
			]
		},
		{
			"mesh":0,
			"name":"\u0421\u0432\u0435\u0442\u0438\u043b\u044c\u043d\u0438\u043a \u0442\u043e\u0447\u0435\u0447\u043d\u044b\u0439.012",
			"rotation":[
				0,
				0.7071068286895752,
				0,
				0.7071068286895752
			],
			"scale":[
				0.05000000074505806,
				0.011594424955546856,
				0.05000000074505806
			],
			"translation":[
				4.1467156410217285,
				2.988405466079712,
				-11.360065460205078
			]
		},
		{
			"mesh":0,
			"name":"\u0421\u0432\u0435\u0442\u0438\u043b\u044c\u043d\u0438\u043a \u0442\u043e\u0447\u0435\u0447\u043d\u044b\u0439.013",
			"rotation":[
				0,
				0.7071068286895752,
				0,
				0.7071068286895752
			],
			"scale":[
				0.05000000074505806,
				0.011594424955546856,
				0.05000000074505806
			],
			"translation":[
				3.749372959136963,
				2.988405466079712,
				-6.7806901931762695
			]
		},
		{
			"mesh":0,
			"name":"\u0421\u0432\u0435\u0442\u0438\u043b\u044c\u043d\u0438\u043a \u0442\u043e\u0447\u0435\u0447\u043d\u044b\u0439.014",
			"rotation":[
				0,
				0.7071068286895752,
				0,
				0.7071068286895752
			],
			"scale":[
				0.05000000074505806,
				0.011594424955546856,
				0.05000000074505806
			],
			"translation":[
				4.749372959136963,
				2.988405466079712,
				-5.7806901931762695
			]
		},
		{
			"mesh":0,
			"name":"\u0421\u0432\u0435\u0442\u0438\u043b\u044c\u043d\u0438\u043a \u0442\u043e\u0447\u0435\u0447\u043d\u044b\u0439.015",
			"rotation":[
				0,
				0.7071068286895752,
				0,
				0.7071068286895752
			],
			"scale":[
				0.05000000074505806,
				0.011594424955546856,
				0.05000000074505806
			],
			"translation":[
				4.749372959136963,
				2.988405466079712,
				-6.7806901931762695
			]
		},
		{
			"mesh":0,
			"name":"\u0421\u0432\u0435\u0442\u0438\u043b\u044c\u043d\u0438\u043a \u0442\u043e\u0447\u0435\u0447\u043d\u044b\u0439.016",
			"rotation":[
				0,
				0.7071068286895752,
				0,
				0.7071068286895752
			],
			"scale":[
				0.05000000074505806,
				0.011594424955546856,
				0.05000000074505806
			],
			"translation":[
				2.749372959136963,
				2.988405466079712,
				-6.7806901931762695
			]
		},
		{
			"mesh":0,
			"name":"\u0421\u0432\u0435\u0442\u0438\u043b\u044c\u043d\u0438\u043a \u0442\u043e\u0447\u0435\u0447\u043d\u044b\u0439.017",
			"rotation":[
				0,
				0.7071068286895752,
				0,
				0.7071068286895752
			],
			"scale":[
				0.05000000074505806,
				0.011594424955546856,
				0.05000000074505806
			],
			"translation":[
				3.1467158794403076,
				2.988405466079712,
				-11.360065460205078
			]
		},
		{
			"mesh":0,
			"name":"\u0421\u0432\u0435\u0442\u0438\u043b\u044c\u043d\u0438\u043a \u0442\u043e\u0447\u0435\u0447\u043d\u044b\u0439.018",
			"rotation":[
				0,
				0.7071068286895752,
				0,
				0.7071068286895752
			],
			"scale":[
				0.05000000074505806,
				0.011594424955546856,
				0.05000000074505806
			],
			"translation":[
				5.1467156410217285,
				2.988405466079712,
				-10.360065460205078
			]
		},
		{
			"mesh":0,
			"name":"\u0421\u0432\u0435\u0442\u0438\u043b\u044c\u043d\u0438\u043a \u0442\u043e\u0447\u0435\u0447\u043d\u044b\u0439.019",
			"rotation":[
				0,
				0.7071068286895752,
				0,
				0.7071068286895752
			],
			"scale":[
				0.05000000074505806,
				0.011594424955546856,
				0.05000000074505806
			],
			"translation":[
				4.1467156410217285,
				2.988405466079712,
				-10.360065460205078
			]
		},
		{
			"mesh":0,
			"name":"\u0421\u0432\u0435\u0442\u0438\u043b\u044c\u043d\u0438\u043a \u0442\u043e\u0447\u0435\u0447\u043d\u044b\u0439.020",
			"rotation":[
				0,
				0.7071068286895752,
				0,
				0.7071068286895752
			],
			"scale":[
				0.05000000074505806,
				0.011594424955546856,
				0.05000000074505806
			],
			"translation":[
				3.1467158794403076,
				2.988405466079712,
				-10.360065460205078
			]
		},
		{
			"mesh":0,
			"name":"\u0421\u0432\u0435\u0442\u0438\u043b\u044c\u043d\u0438\u043a \u0442\u043e\u0447\u0435\u0447\u043d\u044b\u0439.021",
			"rotation":[
				0,
				0.7071068286895752,
				0,
				0.7071068286895752
			],
			"scale":[
				0.05000000074505806,
				0.011594424955546856,
				0.05000000074505806
			],
			"translation":[
				1.749372959136963,
				2.988405466079712,
				-7.7806901931762695
			]
		},
		{
			"mesh":0,
			"name":"\u0421\u0432\u0435\u0442\u0438\u043b\u044c\u043d\u0438\u043a \u0442\u043e\u0447\u0435\u0447\u043d\u044b\u0439.022",
			"rotation":[
				0,
				0.7071068286895752,
				0,
				0.7071068286895752
			],
			"scale":[
				0.05000000074505806,
				0.011594424955546856,
				0.05000000074505806
			],
			"translation":[
				6.7062859535217285,
				2.988405466079712,
				-4.482683181762695
			]
		},
		{
			"mesh":0,
			"name":"\u0421\u0432\u0435\u0442\u0438\u043b\u044c\u043d\u0438\u043a \u0442\u043e\u0447\u0435\u0447\u043d\u044b\u0439.023",
			"rotation":[
				0,
				0.7071068286895752,
				0,
				0.7071068286895752
			],
			"scale":[
				0.05000000074505806,
				0.011594424955546856,
				0.05000000074505806
			],
			"translation":[
				6.7062859535217285,
				2.988405466079712,
				-5.482683181762695
			]
		},
		{
			"mesh":0,
			"name":"\u0421\u0432\u0435\u0442\u0438\u043b\u044c\u043d\u0438\u043a \u0442\u043e\u0447\u0435\u0447\u043d\u044b\u0439.024",
			"rotation":[
				0,
				0.7071068286895752,
				0,
				0.7071068286895752
			],
			"scale":[
				0.05000000074505806,
				0.011594424955546856,
				0.05000000074505806
			],
			"translation":[
				8.071142196655273,
				2.988405466079712,
				-11.175812721252441
			]
		},
		{
			"mesh":0,
			"name":"\u0421\u0432\u0435\u0442\u0438\u043b\u044c\u043d\u0438\u043a \u0442\u043e\u0447\u0435\u0447\u043d\u044b\u0439.025",
			"rotation":[
				0,
				0.7071068286895752,
				0,
				0.7071068286895752
			],
			"scale":[
				0.05000000074505806,
				0.011594424955546856,
				0.05000000074505806
			],
			"translation":[
				6.86355447769165,
				2.988405466079712,
				-11.469230651855469
			]
		},
		{
			"mesh":0,
			"name":"\u0421\u0432\u0435\u0442\u0438\u043b\u044c\u043d\u0438\u043a \u0442\u043e\u0447\u0435\u0447\u043d\u044b\u0439.026",
			"rotation":[
				0,
				0.7071068286895752,
				0,
				0.7071068286895752
			],
			"scale":[
				0.05000000074505806,
				0.011594424955546856,
				0.05000000074505806
			],
			"translation":[
				8.071142196655273,
				2.988405466079712,
				-10.175812721252441
			]
		},
		{
			"mesh":0,
			"name":"\u0421\u0432\u0435\u0442\u0438\u043b\u044c\u043d\u0438\u043a \u0442\u043e\u0447\u0435\u0447\u043d\u044b\u0439.027",
			"rotation":[
				0,
				0.7071068286895752,
				0,
				0.7071068286895752
			],
			"scale":[
				0.05000000074505806,
				0.011594424955546856,
				0.05000000074505806
			],
			"translation":[
				6.86355447769165,
				2.988405466079712,
				-10.469230651855469
			]
		},
		{
			"mesh":0,
			"name":"\u0421\u0432\u0435\u0442\u0438\u043b\u044c\u043d\u0438\u043a \u0442\u043e\u0447\u0435\u0447\u043d\u044b\u0439.029",
			"scale":[
				0.05000000074505806,
				0.011594424955546856,
				0.05000000074505806
			],
			"translation":[
				11.078675270080566,
				2.988405466079712,
				-9.082379341125488
			]
		},
		{
			"mesh":0,
			"name":"\u0421\u0432\u0435\u0442\u0438\u043b\u044c\u043d\u0438\u043a \u0442\u043e\u0447\u0435\u0447\u043d\u044b\u0439.030",
			"scale":[
				0.05000000074505806,
				0.011594424955546856,
				0.05000000074505806
			],
			"translation":[
				11.078675270080566,
				2.988405466079712,
				-10.082379341125488
			]
		},
		{
			"mesh":0,
			"name":"\u0421\u0432\u0435\u0442\u0438\u043b\u044c\u043d\u0438\u043a \u0442\u043e\u0447\u0435\u0447\u043d\u044b\u0439.031",
			"scale":[
				0.05000000074505806,
				0.011594424955546856,
				0.05000000074505806
			],
			"translation":[
				11.078675270080566,
				2.988405466079712,
				-11.082379341125488
			]
		},
		{
			"mesh":0,
			"name":"\u0421\u0432\u0435\u0442\u0438\u043b\u044c\u043d\u0438\u043a \u0442\u043e\u0447\u0435\u0447\u043d\u044b\u0439.033",
			"scale":[
				0.05000000074505806,
				0.011594424955546856,
				0.05000000074505806
			],
			"translation":[
				13.805501937866211,
				2.988405466079712,
				-9.082379341125488
			]
		},
		{
			"mesh":0,
			"name":"\u0421\u0432\u0435\u0442\u0438\u043b\u044c\u043d\u0438\u043a \u0442\u043e\u0447\u0435\u0447\u043d\u044b\u0439.034",
			"scale":[
				0.05000000074505806,
				0.011594424955546856,
				0.05000000074505806
			],
			"translation":[
				13.805501937866211,
				2.988405466079712,
				-10.082379341125488
			]
		},
		{
			"mesh":0,
			"name":"\u0421\u0432\u0435\u0442\u0438\u043b\u044c\u043d\u0438\u043a \u0442\u043e\u0447\u0435\u0447\u043d\u044b\u0439.035",
			"scale":[
				0.05000000074505806,
				0.011594424955546856,
				0.05000000074505806
			],
			"translation":[
				13.805501937866211,
				2.988405466079712,
				-11.082379341125488
			]
		},
		{
			"children":[
				0,
				1,
				2,
				3,
				4,
				5,
				6,
				7,
				8,
				9,
				10,
				11,
				12,
				13,
				14,
				15,
				16,
				17,
				18,
				19,
				20,
				21,
				22,
				23,
				24,
				25,
				26,
				27,
				28,
				29,
				30,
				31,
				32,
				33
			],
			"name":"House Ceiling Point Lamps"
		},
		{
			"children":[
				34
			],
			"mesh":1,
			"name":"HouseCeiling"
		}
	],
	"materials":[
		{
			"doubleSided":true,
			"extensions":{
				"KHR_materials_specular":{
					"specularColorFactor":[
						1,
						1,
						1
					]
				},
				"KHR_materials_ior":{
					"ior":1
				}
			},
			"name":"Metal Chrome",
			"pbrMetallicRoughness":{
				"baseColorFactor":[
					0.4910377264022827,
					0.4764433801174164,
					0.40801364183425903,
					1
				],
				"roughnessFactor":0.21590909361839294
			}
		},
		{
			"doubleSided":true,
			"emissiveFactor":[
				1,
				1,
				1
			],
			"extensions":{
				"KHR_materials_emissive_strength":{
					"emissiveStrength":10
				}
			},
			"name":"Lightning",
			"pbrMetallicRoughness":{
				"baseColorFactor":[
					0,
					0,
					0,
					1
				]
			}
		},
		{
			"doubleSided":true,
			"name":"Wallpaper",
			"normalTexture":{
				"index":0
			},
			"pbrMetallicRoughness":{
				"baseColorTexture":{
					"index":1
				},
				"metallicFactor":0,
				"metallicRoughnessTexture":{
					"index":2
				}
			}
		}
	],
	"meshes":[
		{
			"name":"Cube.002",
			"primitives":[
				{
					"attributes":{
						"POSITION":0,
						"NORMAL":1,
						"TEXCOORD_0":2
					},
					"indices":3,
					"material":0
				},
				{
					"attributes":{
						"POSITION":4,
						"NORMAL":5,
						"TEXCOORD_0":6
					},
					"indices":7,
					"material":1
				}
			]
		},
		{
			"name":"Plane.004",
			"primitives":[
				{
					"attributes":{
						"POSITION":8,
						"NORMAL":9,
						"TEXCOORD_0":10
					},
					"indices":11,
					"material":2
				}
			]
		}
	],
	"textures":[
		{
			"sampler":0,
			"source":0
		},
		{
			"sampler":0,
			"source":1
		},
		{
			"sampler":0,
			"source":2
		}
	],
	"images":[
		{
			"mimeType":"image/jpeg",
			"name":"Paper001_1K_NormalDX",
			"uri":"textures/Paper001_1K_NormalDX.jpg"
		},
		{
			"mimeType":"image/jpeg",
			"name":"Paper001_1K_Color",
			"uri":"textures/Paper001_1K_Color.jpg"
		},
		{
			"mimeType":"image/png",
			"name":"Paper001_1K_Roughness",
			"uri":"textures/Paper001_1K_Roughness.png"
		}
	],
	"accessors":[
		{
			"bufferView":0,
			"componentType":5126,
			"count":44,
			"max":[
				1,
				1,
				1
			],
			"min":[
				-1,
				-1,
				-1
			],
			"type":"VEC3"
		},
		{
			"bufferView":1,
			"componentType":5126,
			"count":44,
			"type":"VEC3"
		},
		{
			"bufferView":2,
			"componentType":5126,
			"count":44,
			"type":"VEC2"
		},
		{
			"bufferView":3,
			"componentType":5123,
			"count":78,
			"type":"SCALAR"
		},
		{
			"bufferView":4,
			"componentType":5126,
			"count":4,
			"max":[
				0.8174712061882019,
				-0.11444884538650513,
				0.8174712061882019
			],
			"min":[
				-0.8174712061882019,
				-0.11444884538650513,
				-0.8174712061882019
			],
			"type":"VEC3"
		},
		{
			"bufferView":5,
			"componentType":5126,
			"count":4,
			"type":"VEC3"
		},
		{
			"bufferView":6,
			"componentType":5126,
			"count":4,
			"type":"VEC2"
		},
		{
			"bufferView":7,
			"componentType":5123,
			"count":6,
			"type":"SCALAR"
		},
		{
			"bufferView":8,
			"componentType":5126,
			"count":60,
			"max":[
				14.740991592407227,
				3.0616343021392822,
				-3.0145373344421387
			],
			"min":[
				0.9959616661071777,
				2.999999523162842,
				-12.460742950439453
			],
			"type":"VEC3"
		},
		{
			"bufferView":9,
			"componentType":5126,
			"count":60,
			"type":"VEC3"
		},
		{
			"bufferView":10,
			"componentType":5126,
			"count":60,
			"type":"VEC2"
		},
		{
			"bufferView":11,
			"componentType":5123,
			"count":108,
			"type":"SCALAR"
		}
	],
	"bufferViews":[
		{
			"buffer":0,
			"byteLength":528,
			"byteOffset":0,
			"target":34962
		},
		{
			"buffer":0,
			"byteLength":528,
			"byteOffset":528,
			"target":34962
		},
		{
			"buffer":0,
			"byteLength":352,
			"byteOffset":1056,
			"target":34962
		},
		{
			"buffer":0,
			"byteLength":156,
			"byteOffset":1408,
			"target":34963
		},
		{
			"buffer":0,
			"byteLength":48,
			"byteOffset":1564,
			"target":34962
		},
		{
			"buffer":0,
			"byteLength":48,
			"byteOffset":1612,
			"target":34962
		},
		{
			"buffer":0,
			"byteLength":32,
			"byteOffset":1660,
			"target":34962
		},
		{
			"buffer":0,
			"byteLength":12,
			"byteOffset":1692,
			"target":34963
		},
		{
			"buffer":0,
			"byteLength":720,
			"byteOffset":1704,
			"target":34962
		},
		{
			"buffer":0,
			"byteLength":720,
			"byteOffset":2424,
			"target":34962
		},
		{
			"buffer":0,
			"byteLength":480,
			"byteOffset":3144,
			"target":34962
		},
		{
			"buffer":0,
			"byteLength":216,
			"byteOffset":3624,
			"target":34963
		}
	],
	"samplers":[
		{
			"magFilter":9729,
			"minFilter":9987
		}
	],
	"buffers":[
		{
			"byteLength":3840,
			"uri":"house_ceilings.bin"
		}
	]
}
