{
	"asset":{
		"generator":"Khronos glTF Blender I/O v3.6.27",
		"version":"2.0"
	},
	"extensionsUsed":[
		"KHR_materials_emissive_strength",
		"KHR_materials_specular",
		"KHR_materials_ior",
		"KHR_texture_transform"
	],
	"extensionsRequired":[
		"KHR_texture_transform"
	],
	"scene":0,
	"scenes":[
		{
			"name":"Scene",
			"nodes":[
				0
			]
		}
	],
	"nodes":[
		{
			"mesh":0,
			"name":"HouseWalls"
		}
	],
	"materials":[
		{
			"doubleSided":true,
			"name":"Wallpaper",
			"normalTexture":{
				"index":0
			},
			"pbrMetallicRoughness":{
				"baseColorTexture":{
					"index":1
				},
				"metallicFactor":0,
				"metallicRoughnessTexture":{
					"index":2
				}
			}
		},
		{
			"doubleSided":true,
			"emissiveFactor":[
				1,
				1,
				1
			],
			"extensions":{
				"KHR_materials_emissive_strength":{
					"emissiveStrength":10
				}
			},
			"name":"Lightning",
			"pbrMetallicRoughness":{
				"baseColorFactor":[
					0,
					0,
					0,
					1
				]
			}
		},
		{
			"doubleSided":true,
			"extensions":{
				"KHR_materials_specular":{
					"specularColorFactor":[
						2.371357614441398,
						2.371357614441398,
						2.371357614441398
					]
				},
				"KHR_materials_ior":{
					"ior":1.4500000476837158
				}
			},
			"name":"Wood Kitchen Oak",
			"pbrMetallicRoughness":{
				"baseColorTexture":{
					"extensions":{
						"KHR_texture_transform":{
							"offset":[
								0.37500011920928955,
								-0.875000208616262
							],
							"scale":[
								1.5000000894069725,
								1.5000000894069725
							]
						}
					},
					"index":3
				},
				"metallicRoughnessTexture":{
					"index":4
				},
				"roughnessFactor":0.5527864098548889
			}
		},
		{
			"doubleSided":true,
			"emissiveFactor":[
				1,
				1,
				1
			],
			"extensions":{
				"KHR_materials_emissive_strength":{
					"emissiveStrength":5
				}
			},
			"name":"Lightning.001",
			"pbrMetallicRoughness":{
				"baseColorFactor":[
					0,
					0,
					0,
					1
				]
			}
		},
		{
			"doubleSided":true,
			"extensions":{
				"KHR_materials_specular":{
					"specularColorFactor":[
						2.3713576144413984,
						2.3713576144413984,
						2.3713576144413984
					]
				},
				"KHR_materials_ior":{
					"ior":1.4500000476837158
				}
			},
			"name":"Paint White",
			"pbrMetallicRoughness":{
				"metallicFactor":0,
				"roughnessFactor":0.4000000059604645
			}
		},
		{
			"doubleSided":true,
			"extensions":{
				"KHR_materials_specular":{
					"specularColorFactor":[
						2.371357614441398,
						2.371357614441398,
						2.371357614441398
					]
				},
				"KHR_materials_ior":{
					"ior":1.4500000476837158
				}
			},
			"name":"Metal Mat",
			"pbrMetallicRoughness":{
				"baseColorFactor":[
					0.06993462890386581,
					0.06993462890386581,
					0.06993462890386581,
					1
				],
				"roughnessFactor":0.5527864098548889
			}
		}
	],
	"meshes":[
		{
			"name":"Curve.019",
			"primitives":[
				{
					"attributes":{
						"POSITION":0,
						"NORMAL":1,
						"TEXCOORD_0":2
					},
					"indices":3,
					"material":0
				},
				{
					"attributes":{
						"POSITION":4,
						"NORMAL":5,
						"TEXCOORD_0":6
					},
					"indices":7,
					"material":1
				},
				{
					"attributes":{
						"POSITION":8,
						"NORMAL":9,
						"TEXCOORD_0":10
					},
					"indices":11,
					"material":2
				},
				{
					"attributes":{
						"POSITION":12,
						"NORMAL":13,
						"TEXCOORD_0":14
					},
					"indices":15,
					"material":3
				},
				{
					"attributes":{
						"POSITION":16,
						"NORMAL":17,
						"TEXCOORD_0":18
					},
					"indices":19,
					"material":4
				},
				{
					"attributes":{
						"POSITION":20,
						"NORMAL":21,
						"TEXCOORD_0":22
					},
					"indices":23,
					"material":5
				}
			]
		}
	],
	"textures":[
		{
			"sampler":0,
			"source":0
		},
		{
			"sampler":0,
			"source":1
		},
		{
			"sampler":0,
			"source":2
		},
		{
			"sampler":0,
			"source":3
		},
		{
			"sampler":0,
			"source":4
		}
	],
	"images":[
		{
			"mimeType":"image/jpeg",
			"name":"Paper001_1K_NormalDX",
			"uri":"textures/Paper001_1K_NormalDX.jpg"
		},
		{
			"mimeType":"image/jpeg",
			"name":"Paper001_1K_Color",
			"uri":"textures/Paper001_1K_Color.jpg"
		},
		{
			"mimeType":"image/png",
			"name":"Paper001_1K_Roughness",
			"uri":"textures/Paper001_1K_Roughness.png"
		},
		{
			"mimeType":"image/jpeg",
			"name":"oak D.jpg",
			"uri":"textures/oak%20D_jpg.jpg"
		},
		{
			"mimeType":"image/png",
			"name":"oak R.jpg",
			"uri":"textures/oak%20R_jpg.png"
		}
	],
	"accessors":[
		{
			"bufferView":0,
			"componentType":5126,
			"count":2468,
			"max":[
				14.78874683380127,
				3.0000007152557373,
				-2.9909849166870117
			],
			"min":[
				0.9736865758895874,
				0,
				-12.528276443481445
			],
			"type":"VEC3"
		},
		{
			"bufferView":1,
			"componentType":5126,
			"count":2468,
			"type":"VEC3"
		},
		{
			"bufferView":2,
			"componentType":5126,
			"count":2468,
			"type":"VEC2"
		},
		{
			"bufferView":3,
			"componentType":5123,
			"count":4740,
			"type":"SCALAR"
		},
		{
			"bufferView":4,
			"componentType":5126,
			"count":24,
			"max":[
				14.718748092651367,
				2.119999885559082,
				-4.5923686027526855
			],
			"min":[
				2.1725986003875732,
				0.9223081469535828,
				-11.46301555633545
			],
			"type":"VEC3"
		},
		{
			"bufferView":5,
			"componentType":5126,
			"count":24,
			"type":"VEC3"
		},
		{
			"bufferView":6,
			"componentType":5126,
			"count":24,
			"type":"VEC2"
		},
		{
			"bufferView":7,
			"componentType":5123,
			"count":36,
			"type":"SCALAR"
		},
		{
			"bufferView":8,
			"componentType":5126,
			"count":48,
			"max":[
				14.740991592407227,
				-4.76837158203125e-07,
				-3.0145373344421387
			],
			"min":[
				0.9959616661071777,
				-0.06207098066806793,
				-12.460742950439453
			],
			"type":"VEC3"
		},
		{
			"bufferView":9,
			"componentType":5126,
			"count":48,
			"type":"VEC3"
		},
		{
			"bufferView":10,
			"componentType":5126,
			"count":48,
			"type":"VEC2"
		},
		{
			"bufferView":11,
			"componentType":5123,
			"count":84,
			"type":"SCALAR"
		},
		{
			"bufferView":12,
			"componentType":5126,
			"count":60,
			"max":[
				2.1025986671447754,
				3.000000476837158,
				-3.7105143070220947
			],
			"min":[
				0.9736865758895874,
				0,
				-10.0985107421875
			],
			"type":"VEC3"
		},
		{
			"bufferView":13,
			"componentType":5126,
			"count":60,
			"type":"VEC3"
		},
		{
			"bufferView":14,
			"componentType":5126,
			"count":60,
			"type":"VEC2"
		},
		{
			"bufferView":15,
			"componentType":5123,
			"count":96,
			"type":"SCALAR"
		},
		{
			"bufferView":16,
			"componentType":5126,
			"count":544,
			"max":[
				14.788747787475586,
				3,
				-3.7105143070220947
			],
			"min":[
				0.9736865758895874,
				0,
				-11.583015441894531
			],
			"type":"VEC3"
		},
		{
			"bufferView":17,
			"componentType":5126,
			"count":544,
			"type":"VEC3"
		},
		{
			"bufferView":18,
			"componentType":5126,
			"count":544,
			"type":"VEC2"
		},
		{
			"bufferView":19,
			"componentType":5123,
			"count":1020,
			"type":"SCALAR"
		},
		{
			"bufferView":20,
			"componentType":5126,
			"count":96,
			"max":[
				14.723748207092285,
				2.1399998664855957,
				-4.572368144989014
			],
			"min":[
				2.1675987243652344,
				0.9023081660270691,
				-11.483016014099121
			],
			"type":"VEC3"
		},
		{
			"bufferView":21,
			"componentType":5126,
			"count":96,
			"type":"VEC3"
		},
		{
			"bufferView":22,
			"componentType":5126,
			"count":96,
			"type":"VEC2"
		},
		{
			"bufferView":23,
			"componentType":5123,
			"count":216,
			"type":"SCALAR"
		}
	],
	"bufferViews":[
		{
			"buffer":0,
			"byteLength":29616,
			"byteOffset":0,
			"target":34962
		},
		{
			"buffer":0,
			"byteLength":29616,
			"byteOffset":29616,
			"target":34962
		},
		{
			"buffer":0,
			"byteLength":19744,
			"byteOffset":59232,
			"target":34962
		},
		{
			"buffer":0,
			"byteLength":9480,
			"byteOffset":78976,
			"target":34963
		},
		{
			"buffer":0,
			"byteLength":288,
			"byteOffset":88456,
			"target":34962
		},
		{
			"buffer":0,
			"byteLength":288,
			"byteOffset":88744,
			"target":34962
		},
		{
			"buffer":0,
			"byteLength":192,
			"byteOffset":89032,
			"target":34962
		},
		{
			"buffer":0,
			"byteLength":72,
			"byteOffset":89224,
			"target":34963
		},
		{
			"buffer":0,
			"byteLength":576,
			"byteOffset":89296,
			"target":34962
		},
		{
			"buffer":0,
			"byteLength":576,
			"byteOffset":89872,
			"target":34962
		},
		{
			"buffer":0,
			"byteLength":384,
			"byteOffset":90448,
			"target":34962
		},
		{
			"buffer":0,
			"byteLength":168,
			"byteOffset":90832,
			"target":34963
		},
		{
			"buffer":0,
			"byteLength":720,
			"byteOffset":91000,
			"target":34962
		},
		{
			"buffer":0,
			"byteLength":720,
			"byteOffset":91720,
			"target":34962
		},
		{
			"buffer":0,
			"byteLength":480,
			"byteOffset":92440,
			"target":34962
		},
		{
			"buffer":0,
			"byteLength":192,
			"byteOffset":92920,
			"target":34963
		},
		{
			"buffer":0,
			"byteLength":6528,
			"byteOffset":93112,
			"target":34962
		},
		{
			"buffer":0,
			"byteLength":6528,
			"byteOffset":99640,
			"target":34962
		},
		{
			"buffer":0,
			"byteLength":4352,
			"byteOffset":106168,
			"target":34962
		},
		{
			"buffer":0,
			"byteLength":2040,
			"byteOffset":110520,
			"target":34963
		},
		{
			"buffer":0,
			"byteLength":1152,
			"byteOffset":112560,
			"target":34962
		},
		{
			"buffer":0,
			"byteLength":1152,
			"byteOffset":113712,
			"target":34962
		},
		{
			"buffer":0,
			"byteLength":768,
			"byteOffset":114864,
			"target":34962
		},
		{
			"buffer":0,
			"byteLength":432,
			"byteOffset":115632,
			"target":34963
		}
	],
	"samplers":[
		{
			"magFilter":9729,
			"minFilter":9987
		}
	],
	"buffers":[
		{
			"byteLength":116064,
			"uri":"house_walls.bin"
		}
	]
}
