{
	"asset":{
		"generator":"Khronos glTF Blender I/O v3.6.27",
		"version":"2.0"
	},
	"extensionsUsed":[
		"KHR_materials_specular",
		"KHR_materials_ior"
	],
	"scene":0,
	"scenes":[
		{
			"name":"2 Animation to export Scene (Linked)",
			"nodes":[
				0
			]
		}
	],
	"nodes":[
		{
			"mesh":0,
			"name":"LivingroomGlassTable",
			"translation":[
				5.771120071411133,
				0,
				-8.095061302185059
			]
		}
	],
	"materials":[
		{
			"doubleSided":true,
			"extensions":{
				"KHR_materials_specular":{
					"specularColorFactor":[
						2.371357614441398,
						2.371357614441398,
						2.371357614441398
					]
				},
				"KHR_materials_ior":{
					"ior":1.4500000476837158
				}
			},
			"name":"Metal Mat",
			"pbrMetallicRoughness":{
				"baseColorFactor":[
					0.06993462890386581,
					0.06993462890386581,
					0.06993462890386581,
					1
				],
				"roughnessFactor":0.5527864098548889
			}
		},
		{
			"doubleSided":true,
			"name":"Glass Table",
			"pbrMetallicRoughness":{}
		}
	],
	"meshes":[
		{
			"name":"Mesh.005",
			"primitives":[
				{
					"attributes":{
						"POSITION":0,
						"NORMAL":1,
						"TEXCOORD_0":2
					},
					"indices":3,
					"material":0
				},
				{
					"attributes":{
						"POSITION":4,
						"NORMAL":5,
						"TEXCOORD_0":6
					},
					"indices":7,
					"material":1
				}
			]
		}
	],
	"accessors":[
		{
			"bufferView":0,
			"componentType":5126,
			"count":19492,
			"max":[
				0.29381412267684937,
				0.6016374826431274,
				0.29035043716430664
			],
			"min":[
				-0.28887155652046204,
				0,
				-0.29334935545921326
			],
			"type":"VEC3"
		},
		{
			"bufferView":1,
			"componentType":5126,
			"count":19492,
			"type":"VEC3"
		},
		{
			"bufferView":2,
			"componentType":5126,
			"count":19492,
			"type":"VEC2"
		},
		{
			"bufferView":3,
			"componentType":5123,
			"count":54594,
			"type":"SCALAR"
		},
		{
			"bufferView":4,
			"componentType":5126,
			"count":992,
			"max":[
				0.5371835231781006,
				0.6117820143699646,
				0.5408008098602295
			],
			"min":[
				-0.5371463298797607,
				0.601864755153656,
				-0.5335289835929871
			],
			"type":"VEC3"
		},
		{
			"bufferView":5,
			"componentType":5126,
			"count":992,
			"type":"VEC3"
		},
		{
			"bufferView":6,
			"componentType":5126,
			"count":992,
			"type":"VEC2"
		},
		{
			"bufferView":7,
			"componentType":5123,
			"count":2964,
			"type":"SCALAR"
		}
	],
	"bufferViews":[
		{
			"buffer":0,
			"byteLength":233904,
			"byteOffset":0,
			"target":34962
		},
		{
			"buffer":0,
			"byteLength":233904,
			"byteOffset":233904,
			"target":34962
		},
		{
			"buffer":0,
			"byteLength":155936,
			"byteOffset":467808,
			"target":34962
		},
		{
			"buffer":0,
			"byteLength":109188,
			"byteOffset":623744,
			"target":34963
		},
		{
			"buffer":0,
			"byteLength":11904,
			"byteOffset":732932,
			"target":34962
		},
		{
			"buffer":0,
			"byteLength":11904,
			"byteOffset":744836,
			"target":34962
		},
		{
			"buffer":0,
			"byteLength":7936,
			"byteOffset":756740,
			"target":34962
		},
		{
			"buffer":0,
			"byteLength":5928,
			"byteOffset":764676,
			"target":34963
		}
	],
	"buffers":[
		{
			"byteLength":770604,
			"uri":"livingroom_glass_table_base.bin"
		}
	]
}
