{
	"asset":{
		"generator":"Khronos glTF Blender I/O v3.6.27",
		"version":"2.0"
	},
	"extensionsUsed":[
		"KHR_materials_specular",
		"KHR_materials_ior"
	],
	"scene":0,
	"scenes":[
		{
			"name":"Scene",
			"nodes":[
				0
			]
		}
	],
	"nodes":[
		{
			"mesh":0,
			"name":"Door",
			"translation":[
				7.267370700836182,
				0,
				-3.044813632965088
			]
		}
	],
	"materials":[
		{
			"doubleSided":true,
			"extensions":{
				"KHR_materials_specular":{
					"specularColorFactor":[
						2.3713576144413984,
						2.3713576144413984,
						2.3713576144413984
					]
				},
				"KHR_materials_ior":{
					"ior":1.4500000476837158
				}
			},
			"name":"Paint White",
			"pbrMetallicRoughness":{
				"metallicFactor":0,
				"roughnessFactor":0.4000000059604645
			}
		},
		{
			"doubleSided":true,
			"extensions":{
				"KHR_materials_specular":{
					"specularColorFactor":[
						2.371357614441398,
						2.371357614441398,
						2.371357614441398
					]
				},
				"KHR_materials_ior":{
					"ior":1.4500000476837158
				}
			},
			"name":"Paint Gray",
			"pbrMetallicRoughness":{
				"baseColorFactor":[
					0.1169707253575325,
					0.12213879078626633,
					0.16513225436210632,
					1
				],
				"metallicFactor":0,
				"roughnessFactor":0.5527864098548889
			}
		}
	],
	"meshes":[
		{
			"name":"Cube",
			"primitives":[
				{
					"attributes":{
						"POSITION":0,
						"NORMAL":1,
						"TEXCOORD_0":2
					},
					"indices":3,
					"material":0
				},
				{
					"attributes":{
						"POSITION":4,
						"NORMAL":5,
						"TEXCOORD_0":6
					},
					"indices":7,
					"material":1
				}
			]
		}
	],
	"accessors":[
		{
			"bufferView":0,
			"componentType":5126,
			"count":172,
			"max":[
				0.8043496012687683,
				2.0299999713897705,
				0.0226078350096941
			],
			"min":[
				-2.7930946089327335e-07,
				0,
				-0.022608095780014992
			],
			"type":"VEC3"
		},
		{
			"bufferView":1,
			"componentType":5126,
			"count":172,
			"type":"VEC3"
		},
		{
			"bufferView":2,
			"componentType":5126,
			"count":172,
			"type":"VEC2"
		},
		{
			"bufferView":3,
			"componentType":5123,
			"count":312,
			"type":"SCALAR"
		},
		{
			"bufferView":4,
			"componentType":5126,
			"count":272,
			"max":[
				0.7432867288589478,
				1.080905556678772,
				0.09007889777421951
			],
			"min":[
				0.6125769019126892,
				0.958636999130249,
				-0.09007944911718369
			],
			"type":"VEC3"
		},
		{
			"bufferView":5,
			"componentType":5126,
			"count":272,
			"type":"VEC3"
		},
		{
			"bufferView":6,
			"componentType":5126,
			"count":272,
			"type":"VEC2"
		},
		{
			"bufferView":7,
			"componentType":5123,
			"count":480,
			"type":"SCALAR"
		}
	],
	"bufferViews":[
		{
			"buffer":0,
			"byteLength":2064,
			"byteOffset":0,
			"target":34962
		},
		{
			"buffer":0,
			"byteLength":2064,
			"byteOffset":2064,
			"target":34962
		},
		{
			"buffer":0,
			"byteLength":1376,
			"byteOffset":4128,
			"target":34962
		},
		{
			"buffer":0,
			"byteLength":624,
			"byteOffset":5504,
			"target":34963
		},
		{
			"buffer":0,
			"byteLength":3264,
			"byteOffset":6128,
			"target":34962
		},
		{
			"buffer":0,
			"byteLength":3264,
			"byteOffset":9392,
			"target":34962
		},
		{
			"buffer":0,
			"byteLength":2176,
			"byteOffset":12656,
			"target":34962
		},
		{
			"buffer":0,
			"byteLength":960,
			"byteOffset":14832,
			"target":34963
		}
	],
	"buffers":[
		{
			"byteLength":15792,
			"uri":"data:application/octet-stream;base64,"
		}
	]
}
