{
	"asset":{
		"generator":"Khronos glTF Blender I/O v3.6.27",
		"version":"2.0"
	},
	"extensionsUsed":[
		"KHR_materials_specular",
		"KHR_materials_ior"
	],
	"scene":0,
	"scenes":[
		{
			"name":"2 Animation to export Scene (Linked)",
			"nodes":[
				2
			]
		}
	],
	"nodes":[
		{
			"mesh":0,
			"name":"\u0421\u0443\u0448\u0438\u043b\u043a\u0430",
			"rotation":[
				0,
				-0.7071073651313782,
				0,
				0.7071061730384827
			],
			"scale":[
				39.999996185302734,
				0.2716921865940094,
				0.545896053314209
			],
			"translation":[
				0,
				-0.1312900185585022,
				68.5921630859375
			]
		},
		{
			"mesh":0,
			"name":"\u0421\u0443\u0448\u0438\u043b\u043a\u0430.001",
			"rotation":[
				0,
				-0.7071073651313782,
				0,
				0.7071061730384827
			],
			"scale":[
				39.999996185302734,
				0.2716921865940094,
				0.545896053314209
			],
			"translation":[
				0,
				-0.7012865543365479,
				68.5921630859375
			]
		},
		{
			"children":[
				0,
				1
			],
			"mesh":1,
			"name":"BathroomColumnCloset",
			"scale":[
				0.3663700520992279,
				1.6536635160446167,
				0.004999999888241291
			],
			"translation":[
				8.663654327392578,
				1.6536635160446167,
				-10.262784004211426
			]
		}
	],
	"materials":[
		{
			"doubleSided":true,
			"extensions":{
				"KHR_materials_specular":{
					"specularColorFactor":[
						2.3713576144413984,
						2.3713576144413984,
						2.3713576144413984
					]
				},
				"KHR_materials_ior":{
					"ior":1.4500000476837158
				}
			},
			"name":"Paint White",
			"pbrMetallicRoughness":{
				"metallicFactor":0,
				"roughnessFactor":0.4000000059604645
			}
		},
		{
			"doubleSided":true,
			"extensions":{
				"KHR_materials_specular":{
					"specularColorFactor":[
						1,
						1,
						1
					]
				},
				"KHR_materials_ior":{
					"ior":1
				}
			},
			"name":"Metal Chrome",
			"pbrMetallicRoughness":{
				"baseColorFactor":[
					0.4910377264022827,
					0.4764433801174164,
					0.40801364183425903,
					1
				],
				"roughnessFactor":0.21590909361839294
			}
		},
		{
			"doubleSided":true,
			"extensions":{
				"KHR_materials_specular":{
					"specularColorFactor":[
						1,
						1,
						1
					]
				},
				"KHR_materials_ior":{
					"ior":1
				}
			},
			"name":"Display",
			"pbrMetallicRoughness":{
				"baseColorFactor":[
					0.004024717956781387,
					0.004024720750749111,
					0.08650046586990356,
					1
				],
				"metallicFactor":0
			}
		},
		{
			"doubleSided":true,
			"extensions":{
				"KHR_materials_specular":{
					"specularColorFactor":[
						2.371357614441398,
						2.371357614441398,
						2.371357614441398
					]
				},
				"KHR_materials_ior":{
					"ior":1.4500000476837158
				}
			},
			"name":"Metal Mat",
			"pbrMetallicRoughness":{
				"baseColorFactor":[
					0.06993462890386581,
					0.06993462890386581,
					0.06993462890386581,
					1
				],
				"roughnessFactor":0.5527864098548889
			}
		}
	],
	"meshes":[
		{
			"name":"Cube.001",
			"primitives":[
				{
					"attributes":{
						"POSITION":0,
						"NORMAL":1,
						"TEXCOORD_0":2,
						"TEXCOORD_1":3
					},
					"indices":4,
					"material":0
				},
				{
					"attributes":{
						"POSITION":5,
						"NORMAL":6,
						"TEXCOORD_0":7,
						"TEXCOORD_1":8
					},
					"indices":9,
					"material":1
				},
				{
					"attributes":{
						"POSITION":10,
						"NORMAL":11,
						"TEXCOORD_0":12,
						"TEXCOORD_1":13
					},
					"indices":14,
					"material":2
				},
				{
					"attributes":{
						"POSITION":15,
						"NORMAL":16,
						"TEXCOORD_0":17,
						"TEXCOORD_1":18
					},
					"indices":19,
					"material":3
				}
			]
		},
		{
			"name":"Cube.011",
			"primitives":[
				{
					"attributes":{
						"POSITION":20,
						"NORMAL":21,
						"TEXCOORD_0":22,
						"TEXCOORD_1":23
					},
					"indices":24,
					"material":0
				}
			]
		}
	],
	"accessors":[
		{
			"bufferView":0,
			"componentType":5126,
			"count":7502,
			"max":[
				1.699894905090332,
				1.0001318454742432,
				1.6977970600128174
			],
			"min":[
				-1.69486665725708,
				-1.0994555950164795,
				-1.3457744121551514
			],
			"type":"VEC3"
		},
		{
			"bufferView":1,
			"componentType":5126,
			"count":7502,
			"type":"VEC3"
		},
		{
			"bufferView":2,
			"componentType":5126,
			"count":7502,
			"type":"VEC2"
		},
		{
			"bufferView":3,
			"componentType":5126,
			"count":7502,
			"type":"VEC2"
		},
		{
			"bufferView":4,
			"componentType":5123,
			"count":30411,
			"type":"SCALAR"
		},
		{
			"bufferView":5,
			"componentType":5126,
			"count":3328,
			"max":[
				1.7010304927825928,
				0.9994490742683411,
				1.742148756980896
			],
			"min":[
				-1.6803851127624512,
				-0.5550049543380737,
				0.9702534675598145
			],
			"type":"VEC3"
		},
		{
			"bufferView":6,
			"componentType":5126,
			"count":3328,
			"type":"VEC3"
		},
		{
			"bufferView":7,
			"componentType":5126,
			"count":3328,
			"type":"VEC2"
		},
		{
			"bufferView":8,
			"componentType":5126,
			"count":3328,
			"type":"VEC2"
		},
		{
			"bufferView":9,
			"componentType":5123,
			"count":13155,
			"type":"SCALAR"
		},
		{
			"bufferView":10,
			"componentType":5126,
			"count":10,
			"max":[
				-0.7721630334854126,
				0.9242824912071228,
				1.5200603008270264
			],
			"min":[
				-1.496372103691101,
				0.8566582202911377,
				1.4377034902572632
			],
			"type":"VEC3"
		},
		{
			"bufferView":11,
			"componentType":5126,
			"count":10,
			"type":"VEC3"
		},
		{
			"bufferView":12,
			"componentType":5126,
			"count":10,
			"type":"VEC2"
		},
		{
			"bufferView":13,
			"componentType":5126,
			"count":10,
			"type":"VEC2"
		},
		{
			"bufferView":14,
			"componentType":5123,
			"count":24,
			"type":"SCALAR"
		},
		{
			"bufferView":15,
			"componentType":5126,
			"count":638,
			"max":[
				1.0938087701797485,
				0.49882060289382935,
				1.7390390634536743
			],
			"min":[
				-1.058225154876709,
				-0.4598099887371063,
				1.5852009057998657
			],
			"type":"VEC3"
		},
		{
			"bufferView":16,
			"componentType":5126,
			"count":638,
			"type":"VEC3"
		},
		{
			"bufferView":17,
			"componentType":5126,
			"count":638,
			"type":"VEC2"
		},
		{
			"bufferView":18,
			"componentType":5126,
			"count":638,
			"type":"VEC2"
		},
		{
			"bufferView":19,
			"componentType":5123,
			"count":3720,
			"type":"SCALAR"
		},
		{
			"bufferView":20,
			"componentType":5126,
			"count":48,
			"max":[
				0.7115576267242432,
				0.8141538500785828,
				136.6333770751953
			],
			"min":[
				-1.0100375413894653,
				-1,
				-1.0001572370529175
			],
			"type":"VEC3"
		},
		{
			"bufferView":21,
			"componentType":5126,
			"count":48,
			"type":"VEC3"
		},
		{
			"bufferView":22,
			"componentType":5126,
			"count":48,
			"type":"VEC2"
		},
		{
			"bufferView":23,
			"componentType":5126,
			"count":48,
			"type":"VEC2"
		},
		{
			"bufferView":24,
			"componentType":5123,
			"count":72,
			"type":"SCALAR"
		}
	],
	"bufferViews":[
		{
			"buffer":0,
			"byteLength":90024,
			"byteOffset":0,
			"target":34962
		},
		{
			"buffer":0,
			"byteLength":90024,
			"byteOffset":90024,
			"target":34962
		},
		{
			"buffer":0,
			"byteLength":60016,
			"byteOffset":180048,
			"target":34962
		},
		{
			"buffer":0,
			"byteLength":60016,
			"byteOffset":240064,
			"target":34962
		},
		{
			"buffer":0,
			"byteLength":60822,
			"byteOffset":300080,
			"target":34963
		},
		{
			"buffer":0,
			"byteLength":39936,
			"byteOffset":360904,
			"target":34962
		},
		{
			"buffer":0,
			"byteLength":39936,
			"byteOffset":400840,
			"target":34962
		},
		{
			"buffer":0,
			"byteLength":26624,
			"byteOffset":440776,
			"target":34962
		},
		{
			"buffer":0,
			"byteLength":26624,
			"byteOffset":467400,
			"target":34962
		},
		{
			"buffer":0,
			"byteLength":26310,
			"byteOffset":494024,
			"target":34963
		},
		{
			"buffer":0,
			"byteLength":120,
			"byteOffset":520336,
			"target":34962
		},
		{
			"buffer":0,
			"byteLength":120,
			"byteOffset":520456,
			"target":34962
		},
		{
			"buffer":0,
			"byteLength":80,
			"byteOffset":520576,
			"target":34962
		},
		{
			"buffer":0,
			"byteLength":80,
			"byteOffset":520656,
			"target":34962
		},
		{
			"buffer":0,
			"byteLength":48,
			"byteOffset":520736,
			"target":34963
		},
		{
			"buffer":0,
			"byteLength":7656,
			"byteOffset":520784,
			"target":34962
		},
		{
			"buffer":0,
			"byteLength":7656,
			"byteOffset":528440,
			"target":34962
		},
		{
			"buffer":0,
			"byteLength":5104,
			"byteOffset":536096,
			"target":34962
		},
		{
			"buffer":0,
			"byteLength":5104,
			"byteOffset":541200,
			"target":34962
		},
		{
			"buffer":0,
			"byteLength":7440,
			"byteOffset":546304,
			"target":34963
		},
		{
			"buffer":0,
			"byteLength":576,
			"byteOffset":553744,
			"target":34962
		},
		{
			"buffer":0,
			"byteLength":576,
			"byteOffset":554320,
			"target":34962
		},
		{
			"buffer":0,
			"byteLength":384,
			"byteOffset":554896,
			"target":34962
		},
		{
			"buffer":0,
			"byteLength":384,
			"byteOffset":555280,
			"target":34962
		},
		{
			"buffer":0,
			"byteLength":144,
			"byteOffset":555664,
			"target":34963
		}
	],
	"buffers":[
		{
			"byteLength":555808,
			"uri":"bathroom_column_closet_base.bin"
		}
	]
}
