{
	"asset":{
		"generator":"Khronos glTF Blender I/O v3.6.27",
		"version":"2.0"
	},
	"extensionsUsed":[
		"KHR_materials_specular",
		"KHR_materials_ior"
	],
	"scene":0,
	"scenes":[
		{
			"name":"2 Animation to export Scene (Linked)",
			"nodes":[
				5,
				6,
				7,
				8,
				9,
				10,
				11
			]
		}
	],
	"nodes":[
		{
			"mesh":0,
			"name":"BRG_TUM_10_02.001"
		},
		{
			"mesh":1,
			"name":"BRG_TUM_3_03.001"
		},
		{
			"mesh":2,
			"name":"BRG_TUM_3_03.002"
		},
		{
			"mesh":3,
			"name":"DNT_TVT_2_05.001"
		},
		{
			"mesh":4,
			"name":"\u0421\u0442\u043e\u043b"
		},
		{
			"children":[
				0,
				1,
				2,
				3,
				4
			],
			"name":"Bedroom Modular Storage"
		},
		{
			"mesh":5,
			"name":"Bedroom Mirror",
			"rotation":[
				0,
				-0.7071068286895752,
				0,
				0.7071068286895752
			],
			"scale":[
				1,
				0.15510770678520203,
				1.4368816614151
			],
			"translation":[
				9.457316398620605,
				1.059535026550293,
				-8.044817924499512
			]
		},
		{
			"mesh":6,
			"name":"Bedroom Cooler",
			"rotation":[
				0,
				-1,
				0,
				1.6292068494294654e-07
			],
			"translation":[
				9.159518241882324,
				2.4671499729156494,
				-8.8585786819458
			]
		},
		{
			"mesh":7,
			"name":"Bedroom Photo Golden Mile Complex",
			"rotation":[
				0.7071068286895752,
				0,
				0,
				0.7071068286895752
			],
			"scale":[
				0.6398656964302063,
				0.6398656964302063,
				0.6398656964302063
			],
			"translation":[
				12.62161636352539,
				0.8991745710372925,
				-7.742243766784668
			]
		},
		{
			"mesh":8,
			"name":"Bedroom Photo Ole Scheeren The Interlace",
			"rotation":[
				0.8266649842262268,
				0,
				0,
				0.5626943707466125
			],
			"scale":[
				0.2240704447031021,
				0.2240704447031021,
				0.2240704447031021
			],
			"translation":[
				9.362884521484375,
				0.8806164860725403,
				-7.773654937744141
			]
		},
		{
			"mesh":9,
			"name":"Bedroom Photo Studio Sander Patelski 3",
			"rotation":[
				0.7071068286895752,
				0,
				0,
				0.7071068286895752
			],
			"translation":[
				12.995749473571777,
				1.7608041763305664,
				-7.742243766784668
			]
		},
		{
			"mesh":10,
			"name":"Bedroom Photo Tower of the III International",
			"rotation":[
				0.7071068286895752,
				0,
				0,
				0.7071068286895752
			],
			"translation":[
				12.101186752319336,
				1.7608041763305664,
				-7.742243766784668
			]
		}
	],
	"materials":[
		{
			"doubleSided":true,
			"extensions":{
				"KHR_materials_specular":{
					"specularColorTexture":{
						"index":0
					},
					"specularColorFactor":[
						2.371357614441398,
						2.371357614441398,
						2.371357614441398
					]
				},
				"KHR_materials_ior":{
					"ior":1.4500000476837158
				}
			},
			"name":"Wood Persimmon Ash",
			"normalTexture":{
				"index":1,
				"scale":0.10000000149011612
			},
			"pbrMetallicRoughness":{
				"baseColorTexture":{
					"index":2
				},
				"metallicFactor":0,
				"roughnessFactor":0.5
			}
		},
		{
			"doubleSided":true,
			"extensions":{
				"KHR_materials_specular":{
					"specularColorTexture":{
						"index":3
					},
					"specularColorFactor":[
						2.371357614441398,
						2.371357614441398,
						2.371357614441398
					]
				},
				"KHR_materials_ior":{
					"ior":1.4500000476837158
				}
			},
			"name":"Wood Black Ash",
			"normalTexture":{
				"index":4,
				"scale":0.10000000149011612
			},
			"pbrMetallicRoughness":{
				"baseColorTexture":{
					"index":5
				},
				"metallicFactor":0,
				"roughnessFactor":0.5527864098548889
			}
		},
		{
			"doubleSided":true,
			"extensions":{
				"KHR_materials_specular":{
					"specularColorTexture":{
						"index":6
					},
					"specularColorFactor":[
						2.371357614441398,
						2.371357614441398,
						2.371357614441398
					]
				},
				"KHR_materials_ior":{
					"ior":1.4500000476837158
				}
			},
			"name":"Wood Real Ash",
			"normalTexture":{
				"index":7,
				"scale":0.10000000149011612
			},
			"pbrMetallicRoughness":{
				"baseColorTexture":{
					"index":8
				},
				"metallicFactor":0,
				"roughnessFactor":0.5
			}
		},
		{
			"doubleSided":true,
			"extensions":{
				"KHR_materials_specular":{
					"specularColorFactor":[
						2.371357614441398,
						2.371357614441398,
						2.371357614441398
					]
				},
				"KHR_materials_ior":{
					"ior":1.4500000476837158
				}
			},
			"name":"Paint Gray",
			"pbrMetallicRoughness":{
				"baseColorFactor":[
					0.1169707253575325,
					0.12213879078626633,
					0.16513225436210632,
					1
				],
				"metallicFactor":0,
				"roughnessFactor":0.5527864098548889
			}
		},
		{
			"doubleSided":true,
			"name":"Mirror",
			"pbrMetallicRoughness":{}
		},
		{
			"doubleSided":true,
			"extensions":{
				"KHR_materials_specular":{
					"specularColorFactor":[
						2.3713576144413984,
						2.3713576144413984,
						2.3713576144413984
					]
				},
				"KHR_materials_ior":{
					"ior":1.4500000476837158
				}
			},
			"name":"Paint White",
			"pbrMetallicRoughness":{
				"metallicFactor":0,
				"roughnessFactor":0.4000000059604645
			}
		},
		{
			"alphaMode":"BLEND",
			"doubleSided":true,
			"name":"GOLDEN MILE COMPLEX",
			"pbrMetallicRoughness":{
				"baseColorTexture":{
					"index":9
				},
				"metallicFactor":0,
				"roughnessFactor":0.5
			}
		},
		{
			"alphaMode":"BLEND",
			"doubleSided":true,
			"name":"Ole Scheeren The Interlace",
			"pbrMetallicRoughness":{
				"baseColorTexture":{
					"index":10
				},
				"metallicFactor":0,
				"roughnessFactor":0.5
			}
		},
		{
			"alphaMode":"BLEND",
			"doubleSided":true,
			"name":"Studio Sander Patelski 3",
			"pbrMetallicRoughness":{
				"baseColorTexture":{
					"index":11
				},
				"metallicFactor":0,
				"roughnessFactor":0.5
			}
		},
		{
			"alphaMode":"BLEND",
			"doubleSided":true,
			"name":"\u0411\u0430\u0448\u043d\u044f III \u0438\u043d\u0442\u0435\u0440\u043d\u0430\u0446\u0438\u043e\u043d\u0430\u043b\u0430",
			"pbrMetallicRoughness":{
				"baseColorTexture":{
					"index":12
				},
				"metallicFactor":0,
				"roughnessFactor":0.5
			}
		}
	],
	"meshes":[
		{
			"name":"BRG_TUM_10_02.001",
			"primitives":[
				{
					"attributes":{
						"POSITION":0,
						"NORMAL":1,
						"TEXCOORD_0":2
					},
					"indices":3,
					"material":0
				}
			]
		},
		{
			"name":"BRG_TUM_3_03.001",
			"primitives":[
				{
					"attributes":{
						"POSITION":4,
						"NORMAL":5,
						"TEXCOORD_0":6
					},
					"indices":7,
					"material":0
				}
			]
		},
		{
			"name":"BRG_TUM_3_03.002",
			"primitives":[
				{
					"attributes":{
						"POSITION":8,
						"NORMAL":9,
						"TEXCOORD_0":10
					},
					"indices":11,
					"material":1
				}
			]
		},
		{
			"name":"DNT_TVT_2_05.001",
			"primitives":[
				{
					"attributes":{
						"POSITION":12,
						"NORMAL":13,
						"TEXCOORD_0":14
					},
					"indices":15,
					"material":2
				}
			]
		},
		{
			"name":"Box517",
			"primitives":[
				{
					"attributes":{
						"POSITION":16,
						"NORMAL":17,
						"TEXCOORD_0":18
					},
					"indices":19,
					"material":1
				},
				{
					"attributes":{
						"POSITION":20,
						"NORMAL":21,
						"TEXCOORD_0":22
					},
					"indices":23,
					"material":3
				}
			]
		},
		{
			"name":"Plane.007",
			"primitives":[
				{
					"attributes":{
						"POSITION":24,
						"NORMAL":25,
						"TEXCOORD_0":26
					},
					"indices":27,
					"material":4
				}
			]
		},
		{
			"name":"Cube.019",
			"primitives":[
				{
					"attributes":{
						"POSITION":28,
						"NORMAL":29,
						"TEXCOORD_0":30
					},
					"indices":31,
					"material":5
				}
			]
		},
		{
			"name":"GOLDEN MILE COMPLEX",
			"primitives":[
				{
					"attributes":{
						"POSITION":32,
						"NORMAL":33,
						"TEXCOORD_0":34
					},
					"indices":27,
					"material":6
				}
			]
		},
		{
			"name":"Ole Scheeren The Interlace",
			"primitives":[
				{
					"attributes":{
						"POSITION":35,
						"NORMAL":36,
						"TEXCOORD_0":37
					},
					"indices":27,
					"material":7
				}
			]
		},
		{
			"name":"Studio Sander Patelski 3",
			"primitives":[
				{
					"attributes":{
						"POSITION":38,
						"NORMAL":39,
						"TEXCOORD_0":40
					},
					"indices":27,
					"material":8
				}
			]
		},
		{
			"name":"\u0411\u0430\u0448\u043d\u044f III \u0438\u043d\u0442\u0435\u0440\u043d\u0430\u0446\u0438\u043e\u043d\u0430\u043b\u0430",
			"primitives":[
				{
					"attributes":{
						"POSITION":41,
						"NORMAL":42,
						"TEXCOORD_0":43
					},
					"indices":27,
					"material":9
				}
			]
		}
	],
	"textures":[
		{
			"sampler":0,
			"source":0
		},
		{
			"sampler":0,
			"source":1
		},
		{
			"sampler":0,
			"source":2
		},
		{
			"sampler":0,
			"source":0
		},
		{
			"sampler":0,
			"source":1
		},
		{
			"sampler":0,
			"source":3
		},
		{
			"sampler":0,
			"source":0
		},
		{
			"sampler":0,
			"source":1
		},
		{
			"sampler":0,
			"source":4
		},
		{
			"sampler":1,
			"source":5
		},
		{
			"sampler":1,
			"source":6
		},
		{
			"sampler":1,
			"source":7
		},
		{
			"sampler":1,
			"source":8
		}
	],
	"images":[
		{
			"mimeType":"image/png",
			"name":"Image",
			"uri":"textures/Image.png"
		},
		{
			"mimeType":"image/png",
			"name":"NormalMap (1).png",
			"uri":"textures/NormalMap%201_png.png"
		},
		{
			"mimeType":"image/jpeg",
			"name":"persimmon",
			"uri":"textures/persimmon.jpg"
		},
		{
			"mimeType":"image/jpeg",
			"name":"black",
			"uri":"textures/black.jpg"
		},
		{
			"mimeType":"image/jpeg",
			"name":"textura-dereva 212.jpg",
			"uri":"textures/textura-dereva%20212_jpg.jpg"
		},
		{
			"mimeType":"image/png",
			"name":"GOLDEN MILE COMPLEX",
			"uri":"textures/GOLDEN%20MILE%20COMPLEX.png"
		},
		{
			"mimeType":"image/png",
			"name":"Ole Scheeren The Interlace",
			"uri":"textures/Ole%20Scheeren%20The%20Interlace.png"
		},
		{
			"mimeType":"image/png",
			"name":"Studio Sander Patelski 3",
			"uri":"textures/Studio%20Sander%20Patelski%203.png"
		},
		{
			"mimeType":"image/png",
			"name":"\u0411\u0430\u0448\u043d\u044f III \u0438\u043d\u0442\u0435\u0440\u043d\u0430\u0446\u0438\u043e\u043d\u0430\u043b\u0430",
			"uri":"textures/%D0%91%D0%B0%D1%88%D0%BD%D1%8F%20III%20%D0%B8%D0%BD%D1%82%D0%B5%D1%80%D0%BD%D0%B0%D1%86%D0%B8%D0%BE%D0%BD%D0%B0%D0%BB%D0%B0.png"
		}
	],
	"accessors":[
		{
			"bufferView":0,
			"componentType":5126,
			"count":2592,
			"max":[
				14.294851303100586,
				2.612654685974121,
				-7.745901584625244
			],
			"min":[
				9.059517860412598,
				2.314542293548584,
				-8.231023788452148
			],
			"type":"VEC3"
		},
		{
			"bufferView":1,
			"componentType":5126,
			"count":2592,
			"type":"VEC3"
		},
		{
			"bufferView":2,
			"componentType":5126,
			"count":2592,
			"type":"VEC2"
		},
		{
			"bufferView":3,
			"componentType":5123,
			"count":3888,
			"type":"SCALAR"
		},
		{
			"bufferView":4,
			"componentType":5126,
			"count":2376,
			"max":[
				14.294851303100586,
				2.3147923946380615,
				-7.731414794921875
			],
			"min":[
				13.622848510742188,
				0.04489202797412872,
				-8.232271194458008
			],
			"type":"VEC3"
		},
		{
			"bufferView":5,
			"componentType":5126,
			"count":2376,
			"type":"VEC3"
		},
		{
			"bufferView":6,
			"componentType":5126,
			"count":2376,
			"type":"VEC2"
		},
		{
			"bufferView":7,
			"componentType":5123,
			"count":3564,
			"type":"SCALAR"
		},
		{
			"bufferView":8,
			"componentType":5126,
			"count":2376,
			"max":[
				11.209819793701172,
				0.7773879170417786,
				-7.731414794921875
			],
			"min":[
				10.537817001342773,
				0.04535163938999176,
				-8.232271194458008
			],
			"type":"VEC3"
		},
		{
			"bufferView":9,
			"componentType":5126,
			"count":2376,
			"type":"VEC3"
		},
		{
			"bufferView":10,
			"componentType":5126,
			"count":2376,
			"type":"VEC2"
		},
		{
			"bufferView":11,
			"componentType":5123,
			"count":3564,
			"type":"SCALAR"
		},
		{
			"bufferView":12,
			"componentType":5126,
			"count":3240,
			"max":[
				13.63304328918457,
				0.4551405906677246,
				-7.731415748596191
			],
			"min":[
				11.209568977355957,
				-8.64383764564991e-08,
				-8.23155403137207
			],
			"type":"VEC3"
		},
		{
			"bufferView":13,
			"componentType":5126,
			"count":3240,
			"type":"VEC3"
		},
		{
			"bufferView":14,
			"componentType":5126,
			"count":3240,
			"type":"VEC2"
		},
		{
			"bufferView":15,
			"componentType":5123,
			"count":4860,
			"type":"SCALAR"
		},
		{
			"bufferView":16,
			"componentType":5126,
			"count":788,
			"max":[
				10.53781795501709,
				0.7782775163650513,
				-7.73267936706543
			],
			"min":[
				9.060577392578125,
				0.6409989595413208,
				-8.200112342834473
			],
			"type":"VEC3"
		},
		{
			"bufferView":17,
			"componentType":5126,
			"count":788,
			"type":"VEC3"
		},
		{
			"bufferView":18,
			"componentType":5126,
			"count":788,
			"type":"VEC2"
		},
		{
			"bufferView":19,
			"componentType":5123,
			"count":1620,
			"type":"SCALAR"
		},
		{
			"bufferView":20,
			"componentType":5126,
			"count":1638,
			"max":[
				10.537814140319824,
				0.7799899578094482,
				-7.700918674468994
			],
			"min":[
				9.059518814086914,
				-8.263565831612141e-08,
				-8.220111846923828
			],
			"type":"VEC3"
		},
		{
			"bufferView":21,
			"componentType":5126,
			"count":1638,
			"type":"VEC3"
		},
		{
			"bufferView":22,
			"componentType":5126,
			"count":1638,
			"type":"VEC2"
		},
		{
			"bufferView":23,
			"componentType":5123,
			"count":3921,
			"type":"SCALAR"
		},
		{
			"bufferView":24,
			"componentType":5126,
			"count":4,
			"max":[
				0.2894144356250763,
				2.7657299041748047,
				0.2768474817276001
			],
			"min":[
				0.2894138991832733,
				-0.23427079617977142,
				-1.2189620733261108
			],
			"type":"VEC3"
		},
		{
			"bufferView":25,
			"componentType":5126,
			"count":4,
			"type":"VEC3"
		},
		{
			"bufferView":26,
			"componentType":5126,
			"count":4,
			"type":"VEC2"
		},
		{
			"bufferView":27,
			"componentType":5123,
			"count":6,
			"type":"SCALAR"
		},
		{
			"bufferView":28,
			"componentType":5126,
			"count":76,
			"max":[
				0.10000000149011612,
				0.15000000596046448,
				0.5
			],
			"min":[
				-0.10000000149011612,
				-0.15000000596046448,
				-0.5
			],
			"type":"VEC3"
		},
		{
			"bufferView":29,
			"componentType":5126,
			"count":76,
			"type":"VEC3"
		},
		{
			"bufferView":30,
			"componentType":5126,
			"count":76,
			"type":"VEC2"
		},
		{
			"bufferView":31,
			"componentType":5123,
			"count":132,
			"type":"SCALAR"
		},
		{
			"bufferView":32,
			"componentType":5126,
			"count":4,
			"max":[
				1.3661202192306519,
				0,
				0.5
			],
			"min":[
				-1.3661202192306519,
				0,
				-0.5
			],
			"type":"VEC3"
		},
		{
			"bufferView":33,
			"componentType":5126,
			"count":4,
			"type":"VEC3"
		},
		{
			"bufferView":34,
			"componentType":5126,
			"count":4,
			"type":"VEC2"
		},
		{
			"bufferView":35,
			"componentType":5126,
			"count":4,
			"max":[
				0.9523809552192688,
				0,
				0.5
			],
			"min":[
				-0.9523809552192688,
				0,
				-0.5
			],
			"type":"VEC3"
		},
		{
			"bufferView":36,
			"componentType":5126,
			"count":4,
			"type":"VEC3"
		},
		{
			"bufferView":37,
			"componentType":5126,
			"count":4,
			"type":"VEC2"
		},
		{
			"bufferView":38,
			"componentType":5126,
			"count":4,
			"max":[
				0.5,
				0,
				0.5
			],
			"min":[
				-0.5,
				0,
				-0.5
			],
			"type":"VEC3"
		},
		{
			"bufferView":39,
			"componentType":5126,
			"count":4,
			"type":"VEC3"
		},
		{
			"bufferView":40,
			"componentType":5126,
			"count":4,
			"type":"VEC2"
		},
		{
			"bufferView":41,
			"componentType":5126,
			"count":4,
			"max":[
				0.35370370745658875,
				0,
				0.5
			],
			"min":[
				-0.35370370745658875,
				0,
				-0.5
			],
			"type":"VEC3"
		},
		{
			"bufferView":42,
			"componentType":5126,
			"count":4,
			"type":"VEC3"
		},
		{
			"bufferView":43,
			"componentType":5126,
			"count":4,
			"type":"VEC2"
		}
	],
	"bufferViews":[
		{
			"buffer":0,
			"byteLength":31104,
			"byteOffset":0,
			"target":34962
		},
		{
			"buffer":0,
			"byteLength":31104,
			"byteOffset":31104,
			"target":34962
		},
		{
			"buffer":0,
			"byteLength":20736,
			"byteOffset":62208,
			"target":34962
		},
		{
			"buffer":0,
			"byteLength":7776,
			"byteOffset":82944,
			"target":34963
		},
		{
			"buffer":0,
			"byteLength":28512,
			"byteOffset":90720,
			"target":34962
		},
		{
			"buffer":0,
			"byteLength":28512,
			"byteOffset":119232,
			"target":34962
		},
		{
			"buffer":0,
			"byteLength":19008,
			"byteOffset":147744,
			"target":34962
		},
		{
			"buffer":0,
			"byteLength":7128,
			"byteOffset":166752,
			"target":34963
		},
		{
			"buffer":0,
			"byteLength":28512,
			"byteOffset":173880,
			"target":34962
		},
		{
			"buffer":0,
			"byteLength":28512,
			"byteOffset":202392,
			"target":34962
		},
		{
			"buffer":0,
			"byteLength":19008,
			"byteOffset":230904,
			"target":34962
		},
		{
			"buffer":0,
			"byteLength":7128,
			"byteOffset":249912,
			"target":34963
		},
		{
			"buffer":0,
			"byteLength":38880,
			"byteOffset":257040,
			"target":34962
		},
		{
			"buffer":0,
			"byteLength":38880,
			"byteOffset":295920,
			"target":34962
		},
		{
			"buffer":0,
			"byteLength":25920,
			"byteOffset":334800,
			"target":34962
		},
		{
			"buffer":0,
			"byteLength":9720,
			"byteOffset":360720,
			"target":34963
		},
		{
			"buffer":0,
			"byteLength":9456,
			"byteOffset":370440,
			"target":34962
		},
		{
			"buffer":0,
			"byteLength":9456,
			"byteOffset":379896,
			"target":34962
		},
		{
			"buffer":0,
			"byteLength":6304,
			"byteOffset":389352,
			"target":34962
		},
		{
			"buffer":0,
			"byteLength":3240,
			"byteOffset":395656,
			"target":34963
		},
		{
			"buffer":0,
			"byteLength":19656,
			"byteOffset":398896,
			"target":34962
		},
		{
			"buffer":0,
			"byteLength":19656,
			"byteOffset":418552,
			"target":34962
		},
		{
			"buffer":0,
			"byteLength":13104,
			"byteOffset":438208,
			"target":34962
		},
		{
			"buffer":0,
			"byteLength":7842,
			"byteOffset":451312,
			"target":34963
		},
		{
			"buffer":0,
			"byteLength":48,
			"byteOffset":459156,
			"target":34962
		},
		{
			"buffer":0,
			"byteLength":48,
			"byteOffset":459204,
			"target":34962
		},
		{
			"buffer":0,
			"byteLength":32,
			"byteOffset":459252,
			"target":34962
		},
		{
			"buffer":0,
			"byteLength":12,
			"byteOffset":459284,
			"target":34963
		},
		{
			"buffer":0,
			"byteLength":912,
			"byteOffset":459296,
			"target":34962
		},
		{
			"buffer":0,
			"byteLength":912,
			"byteOffset":460208,
			"target":34962
		},
		{
			"buffer":0,
			"byteLength":608,
			"byteOffset":461120,
			"target":34962
		},
		{
			"buffer":0,
			"byteLength":264,
			"byteOffset":461728,
			"target":34963
		},
		{
			"buffer":0,
			"byteLength":48,
			"byteOffset":461992,
			"target":34962
		},
		{
			"buffer":0,
			"byteLength":48,
			"byteOffset":462040,
			"target":34962
		},
		{
			"buffer":0,
			"byteLength":32,
			"byteOffset":462088,
			"target":34962
		},
		{
			"buffer":0,
			"byteLength":48,
			"byteOffset":462120,
			"target":34962
		},
		{
			"buffer":0,
			"byteLength":48,
			"byteOffset":462168,
			"target":34962
		},
		{
			"buffer":0,
			"byteLength":32,
			"byteOffset":462216,
			"target":34962
		},
		{
			"buffer":0,
			"byteLength":48,
			"byteOffset":462248,
			"target":34962
		},
		{
			"buffer":0,
			"byteLength":48,
			"byteOffset":462296,
			"target":34962
		},
		{
			"buffer":0,
			"byteLength":32,
			"byteOffset":462344,
			"target":34962
		},
		{
			"buffer":0,
			"byteLength":48,
			"byteOffset":462376,
			"target":34962
		},
		{
			"buffer":0,
			"byteLength":48,
			"byteOffset":462424,
			"target":34962
		},
		{
			"buffer":0,
			"byteLength":32,
			"byteOffset":462472,
			"target":34962
		}
	],
	"samplers":[
		{
			"magFilter":9729,
			"minFilter":9987
		},
		{
			"magFilter":9729,
			"minFilter":9987,
			"wrapS":33071,
			"wrapT":33071
		}
	],
	"buffers":[
		{
			"byteLength":462504,
			"uri":"bedroom.bin"
		}
	]
}
