{
	"asset":{
		"generator":"Khronos glTF Blender I/O v3.6.27",
		"version":"2.0"
	},
	"extensionsUsed":[
		"KHR_materials_specular",
		"KHR_materials_ior",
		"KHR_texture_transform",
		"KHR_materials_emissive_strength"
	],
	"extensionsRequired":[
		"KHR_texture_transform"
	],
	"scene":0,
	"scenes":[
		{
			"name":"Scene",
			"nodes":[
				0,
				1,
				2,
				3,
				5
			]
		}
	],
	"nodes":[
		{
			"mesh":0,
			"name":"Kitchen"
		},
		{
			"mesh":1,
			"name":"Kitchen Table"
		},
		{
			"mesh":2,
			"name":"Kitchen Ceramic Vase",
			"rotation":[
				0,
				0.8650086522102356,
				0,
				0.5017569065093994
			],
			"translation":[
				5.484834671020508,
				0.8439574837684631,
				-5.158637046813965
			]
		},
		{
			"mesh":3,
			"name":"Kitchen Photo Mergasovsky Printing House",
			"translation":[
				2.599946975708008,
				1.4855815172195435,
				-5.716870307922363
			]
		},
		{
			"mesh":4,
			"name":"Cylinder",
			"rotation":[
				0.017211519181728363,
				0.23057594895362854,
				-0.2591334879398346,
				0.9377570748329163
			],
			"scale":[
				0.008754768408834934,
				1.2600222826004028,
				0.009205305948853493
			],
			"translation":[
				0.6213703155517578,
				1.088275671005249,
				-0.10972046852111816
			]
		},
		{
			"children":[
				4
			],
			"mesh":5,
			"name":"Kitchen Mobile Square",
			"rotation":[
				-0.017211508005857468,
				-0.23057594895362854,
				0.2591334879398346,
				0.9377570748329163
			],
			"scale":[
				0.3002541661262512,
				0.3002541661262512,
				0.3002541661262512
			],
			"translation":[
				3.3082430362701416,
				2.3713009357452393,
				-5.742080211639404
			]
		}
	],
	"materials":[
		{
			"doubleSided":true,
			"extensions":{
				"KHR_materials_specular":{
					"specularColorFactor":[
						2.371357614441398,
						2.371357614441398,
						2.371357614441398
					]
				},
				"KHR_materials_ior":{
					"ior":1.4500000476837158
				}
			},
			"name":"Metal Mat",
			"pbrMetallicRoughness":{
				"baseColorFactor":[
					0.06993462890386581,
					0.06993462890386581,
					0.06993462890386581,
					1
				],
				"roughnessFactor":0.5527864098548889
			}
		},
		{
			"doubleSided":true,
			"extensions":{
				"KHR_materials_specular":{
					"specularColorFactor":[
						2.371357614441398,
						2.371357614441398,
						2.371357614441398
					]
				},
				"KHR_materials_ior":{
					"ior":1.4500000476837158
				}
			},
			"name":"Wood Kitchen Oak",
			"pbrMetallicRoughness":{
				"baseColorTexture":{
					"extensions":{
						"KHR_texture_transform":{
							"offset":[
								0.37500011920928955,
								-0.875000208616262
							],
							"scale":[
								1.5000000894069725,
								1.5000000894069725
							]
						}
					},
					"index":0
				},
				"metallicRoughnessTexture":{
					"index":1
				},
				"roughnessFactor":0.5527864098548889
			}
		},
		{
			"doubleSided":true,
			"extensions":{
				"KHR_materials_specular":{
					"specularColorFactor":[
						2.3713576144413984,
						2.3713576144413984,
						2.3713576144413984
					]
				},
				"KHR_materials_ior":{
					"ior":1.4500000476837158
				}
			},
			"name":"Paint White",
			"pbrMetallicRoughness":{
				"metallicFactor":0,
				"roughnessFactor":0.4000000059604645
			}
		},
		{
			"doubleSided":true,
			"extensions":{
				"KHR_materials_specular":{
					"specularColorFactor":[
						2.371357614441398,
						2.371357614441398,
						2.371357614441398
					]
				},
				"KHR_materials_ior":{
					"ior":1.4500000476837158
				}
			},
			"name":"Paint Green",
			"pbrMetallicRoughness":{
				"baseColorFactor":[
					0.3864296078681946,
					0.44520121812820435,
					0.2704978883266449,
					1
				],
				"metallicFactor":0,
				"roughnessFactor":0.5527864098548889
			}
		},
		{
			"doubleSided":true,
			"emissiveFactor":[
				1,
				1,
				1
			],
			"extensions":{
				"KHR_materials_emissive_strength":{
					"emissiveStrength":10
				}
			},
			"name":"Lightning",
			"pbrMetallicRoughness":{
				"baseColorFactor":[
					0,
					0,
					0,
					1
				]
			}
		},
		{
			"doubleSided":true,
			"extensions":{
				"KHR_materials_specular":{
					"specularColorTexture":{
						"index":2
					},
					"specularColorFactor":[
						2.371357614441398,
						2.371357614441398,
						2.371357614441398
					]
				},
				"KHR_materials_ior":{
					"ior":1.4500000476837158
				}
			},
			"name":"Wood Real Ash",
			"normalTexture":{
				"index":3,
				"scale":0.10000000149011612
			},
			"pbrMetallicRoughness":{
				"baseColorTexture":{
					"index":4
				},
				"metallicFactor":0,
				"roughnessFactor":0.5
			}
		},
		{
			"doubleSided":true,
			"name":"ceramic_vase_03",
			"normalTexture":{
				"index":5
			},
			"pbrMetallicRoughness":{
				"baseColorTexture":{
					"index":6
				},
				"metallicFactor":0,
				"metallicRoughnessTexture":{
					"index":7
				}
			}
		},
		{
			"alphaMode":"BLEND",
			"doubleSided":true,
			"name":"\u041c\u0435\u0440\u0433\u0430\u0441\u043e\u0432\u0441\u043a\u0438\u0439 \u0434\u043e\u043c \u043f\u0435\u0447\u0430\u0442\u0438 \u043d\u0430 \u0411\u0430\u0443\u043c\u0430\u043d",
			"pbrMetallicRoughness":{
				"baseColorTexture":{
					"index":8
				},
				"metallicFactor":0,
				"roughnessFactor":0.5
			}
		}
	],
	"meshes":[
		{
			"name":"Mesh.229",
			"primitives":[
				{
					"attributes":{
						"COLOR_0":0,
						"POSITION":1,
						"NORMAL":2,
						"TEXCOORD_0":3
					},
					"indices":4,
					"material":0
				},
				{
					"attributes":{
						"COLOR_0":5,
						"POSITION":6,
						"NORMAL":7,
						"TEXCOORD_0":8
					},
					"indices":9,
					"material":1
				},
				{
					"attributes":{
						"COLOR_0":10,
						"POSITION":11,
						"NORMAL":12,
						"TEXCOORD_0":13
					},
					"indices":14,
					"material":2
				},
				{
					"attributes":{
						"COLOR_0":15,
						"POSITION":16,
						"NORMAL":17,
						"TEXCOORD_0":18
					},
					"indices":19,
					"material":3
				},
				{
					"attributes":{
						"COLOR_0":20,
						"POSITION":21,
						"NORMAL":22,
						"TEXCOORD_0":23
					},
					"indices":24,
					"material":4
				}
			]
		},
		{
			"name":"Arm_work_table_1_corona.002",
			"primitives":[
				{
					"attributes":{
						"POSITION":25,
						"NORMAL":26,
						"TEXCOORD_0":27
					},
					"indices":28,
					"material":2
				},
				{
					"attributes":{
						"POSITION":29,
						"NORMAL":30,
						"TEXCOORD_0":31
					},
					"indices":32,
					"material":5
				}
			]
		},
		{
			"name":"Cube.008",
			"primitives":[
				{
					"attributes":{
						"POSITION":33,
						"NORMAL":34,
						"TEXCOORD_0":35
					},
					"indices":36,
					"material":6
				}
			]
		},
		{
			"name":"\u041c\u0435\u0440\u0433\u0430\u0441\u043e\u0432\u0441\u043a\u0438\u0439 \u0434\u043e\u043c \u043f\u0435\u0447\u0430\u0442\u0438 \u043d\u0430 \u0411\u0430\u0443\u043c\u0430\u043d",
			"primitives":[
				{
					"attributes":{
						"POSITION":37,
						"NORMAL":38,
						"TEXCOORD_0":39
					},
					"indices":40,
					"material":7
				}
			]
		},
		{
			"name":"Cylinder",
			"primitives":[
				{
					"attributes":{
						"POSITION":41,
						"NORMAL":42,
						"TEXCOORD_0":43
					},
					"indices":44,
					"material":0
				}
			]
		},
		{
			"name":"Plane.008",
			"primitives":[
				{
					"attributes":{
						"POSITION":45,
						"NORMAL":46,
						"TEXCOORD_0":47
					},
					"indices":48,
					"material":2
				}
			]
		}
	],
	"textures":[
		{
			"sampler":0,
			"source":0
		},
		{
			"sampler":0,
			"source":1
		},
		{
			"sampler":0,
			"source":2
		},
		{
			"sampler":0,
			"source":3
		},
		{
			"sampler":0,
			"source":4
		},
		{
			"sampler":0,
			"source":5
		},
		{
			"sampler":0,
			"source":6
		},
		{
			"sampler":0,
			"source":7
		},
		{
			"sampler":1,
			"source":8
		}
	],
	"images":[
		{
			"mimeType":"image/jpeg",
			"name":"oak D.jpg",
			"uri":"textures/oak%20D_jpg.jpg"
		},
		{
			"mimeType":"image/png",
			"name":"oak R.jpg",
			"uri":"textures/oak%20R_jpg.png"
		},
		{
			"mimeType":"image/png",
			"name":"Image",
			"uri":"textures/Image.png"
		},
		{
			"mimeType":"image/png",
			"name":"NormalMap (1).png",
			"uri":"textures/NormalMap%201_png.png"
		},
		{
			"mimeType":"image/jpeg",
			"name":"textura-dereva 212.jpg",
			"uri":"textures/textura-dereva%20212_jpg.jpg"
		},
		{
			"mimeType":"image/png",
			"name":"ceramic_vase_03_nor_gl_1k",
			"uri":"textures/ceramic_vase_03_nor_gl_1k.png"
		},
		{
			"mimeType":"image/jpeg",
			"name":"ceramic_vase_03_diff_1k",
			"uri":"textures/ceramic_vase_03_diff_1k.jpg"
		},
		{
			"mimeType":"image/png",
			"name":"ceramic_vase_03_rough_1k",
			"uri":"textures/ceramic_vase_03_rough_1k.png"
		},
		{
			"mimeType":"image/png",
			"name":"\u041c\u0435\u0440\u0433\u0430\u0441\u043e\u0432\u0441\u043a\u0438\u0439 \u0434\u043e\u043c \u043f\u0435\u0447\u0430\u0442\u0438 \u043d\u0430 \u0411\u0430\u0443\u043c\u0430\u043d",
			"uri":"textures/%D0%9C%D0%B5%D1%80%D0%B3%D0%B0%D1%81%D0%BE%D0%B2%D1%81%D0%BA%D0%B8%D0%B9%20%D0%B4%D0%BE%D0%BC%20%D0%BF%D0%B5%D1%87%D0%B0%D1%82%D0%B8%20%D0%BD%D0%B0%20%D0%91%D0%B0%D1%83%D0%BC%D0%B0%D0%BD.png"
		}
	],
	"accessors":[
		{
			"bufferView":0,
			"componentType":5123,
			"count":32153,
			"normalized":true,
			"type":"VEC4"
		},
		{
			"bufferView":1,
			"componentType":5126,
			"count":32153,
			"max":[
				5.339786529541016,
				1.5089993476867676,
				-3.484778642654419
			],
			"min":[
				2.5277822017669678,
				0.3946245610713959,
				-5.553145885467529
			],
			"type":"VEC3"
		},
		{
			"bufferView":2,
			"componentType":5126,
			"count":32153,
			"type":"VEC3"
		},
		{
			"bufferView":3,
			"componentType":5126,
			"count":32153,
			"type":"VEC2"
		},
		{
			"bufferView":4,
			"componentType":5123,
			"count":117612,
			"type":"SCALAR"
		},
		{
			"bufferView":5,
			"componentType":5123,
			"count":1546,
			"normalized":true,
			"type":"VEC4"
		},
		{
			"bufferView":6,
			"componentType":5126,
			"count":1546,
			"max":[
				5.67278528213501,
				2.5099997520446777,
				6.405561923980713
			],
			"min":[
				2.4844326972961426,
				-0.004000186920166016,
				-6.460273265838623
			],
			"type":"VEC3"
		},
		{
			"bufferView":7,
			"componentType":5126,
			"count":1546,
			"type":"VEC3"
		},
		{
			"bufferView":8,
			"componentType":5126,
			"count":1546,
			"type":"VEC2"
		},
		{
			"bufferView":9,
			"componentType":5123,
			"count":2556,
			"type":"SCALAR"
		},
		{
			"bufferView":10,
			"componentType":5123,
			"count":72,
			"normalized":true,
			"type":"VEC4"
		},
		{
			"bufferView":11,
			"componentType":5126,
			"count":72,
			"max":[
				5.67278528213501,
				1.4599997997283936,
				-3.2438440322875977
			],
			"min":[
				2.5277812480926514,
				0.8459996581077576,
				-5.311148643493652
			],
			"type":"VEC3"
		},
		{
			"bufferView":12,
			"componentType":5126,
			"count":72,
			"type":"VEC3"
		},
		{
			"bufferView":13,
			"componentType":5126,
			"count":72,
			"type":"VEC2"
		},
		{
			"bufferView":14,
			"componentType":5123,
			"count":108,
			"type":"SCALAR"
		},
		{
			"bufferView":15,
			"componentType":5123,
			"count":1092,
			"normalized":true,
			"type":"VEC4"
		},
		{
			"bufferView":16,
			"componentType":5126,
			"count":1092,
			"max":[
				5.357786178588867,
				2.4099996089935303,
				-3.4847805500030518
			],
			"min":[
				2.6029417514801025,
				0.09799963235855103,
				-5.303403854370117
			],
			"type":"VEC3"
		},
		{
			"bufferView":17,
			"componentType":5126,
			"count":1092,
			"type":"VEC3"
		},
		{
			"bufferView":18,
			"componentType":5126,
			"count":1092,
			"type":"VEC2"
		},
		{
			"bufferView":19,
			"componentType":5123,
			"count":1908,
			"type":"SCALAR"
		},
		{
			"bufferView":20,
			"componentType":5123,
			"count":48,
			"normalized":true,
			"type":"VEC4"
		},
		{
			"bufferView":21,
			"componentType":5126,
			"count":48,
			"max":[
				5.662785530090332,
				1.4601565599441528,
				-3.2438440322875977
			],
			"min":[
				2.5277812480926514,
				1.4319926500320435,
				-5.311148643493652
			],
			"type":"VEC3"
		},
		{
			"bufferView":22,
			"componentType":5126,
			"count":48,
			"type":"VEC3"
		},
		{
			"bufferView":23,
			"componentType":5126,
			"count":48,
			"type":"VEC2"
		},
		{
			"bufferView":24,
			"componentType":5123,
			"count":108,
			"type":"SCALAR"
		},
		{
			"bufferView":25,
			"componentType":5126,
			"count":1332,
			"max":[
				3.972673177719116,
				0.7260803580284119,
				-5.362541198730469
			],
			"min":[
				2.6413893699645996,
				-6.226814002729952e-05,
				-6.066648483276367
			],
			"type":"VEC3"
		},
		{
			"bufferView":26,
			"componentType":5126,
			"count":1332,
			"type":"VEC3"
		},
		{
			"bufferView":27,
			"componentType":5126,
			"count":1332,
			"type":"VEC2"
		},
		{
			"bufferView":28,
			"componentType":5123,
			"count":2562,
			"type":"SCALAR"
		},
		{
			"bufferView":29,
			"componentType":5126,
			"count":230,
			"max":[
				4.020804405212402,
				0.7640972137451172,
				-5.315338134765625
			],
			"min":[
				2.5964980125427246,
				0.7250409126281738,
				-6.114384174346924
			],
			"type":"VEC3"
		},
		{
			"bufferView":30,
			"componentType":5126,
			"count":230,
			"type":"VEC3"
		},
		{
			"bufferView":31,
			"componentType":5126,
			"count":230,
			"type":"VEC2"
		},
		{
			"bufferView":32,
			"componentType":5123,
			"count":900,
			"type":"SCALAR"
		},
		{
			"bufferView":33,
			"componentType":5126,
			"count":7263,
			"max":[
				0.05611971765756607,
				0.41439637541770935,
				0.056119803339242935
			],
			"min":[
				-0.056120797991752625,
				2.455843787174672e-05,
				-0.056119807064533234
			],
			"type":"VEC3"
		},
		{
			"bufferView":34,
			"componentType":5126,
			"count":7263,
			"type":"VEC3"
		},
		{
			"bufferView":35,
			"componentType":5126,
			"count":7263,
			"type":"VEC2"
		},
		{
			"bufferView":36,
			"componentType":5123,
			"count":33408,
			"type":"SCALAR"
		},
		{
			"bufferView":37,
			"componentType":5126,
			"count":4,
			"max":[
				4.4099991214352485e-08,
				0.37644636631011963,
				0.6184773445129395
			],
			"min":[
				-4.4099991214352485e-08,
				-0.39041292667388916,
				-0.6184773445129395
			],
			"type":"VEC3"
		},
		{
			"bufferView":38,
			"componentType":5126,
			"count":4,
			"type":"VEC3"
		},
		{
			"bufferView":39,
			"componentType":5126,
			"count":4,
			"type":"VEC2"
		},
		{
			"bufferView":40,
			"componentType":5123,
			"count":6,
			"type":"SCALAR"
		},
		{
			"bufferView":41,
			"componentType":5126,
			"count":30,
			"max":[
				0.9510565400123596,
				0.6634182929992676,
				0.8090170621871948
			],
			"min":[
				-0.9510564804077148,
				-1,
				-1
			],
			"type":"VEC3"
		},
		{
			"bufferView":42,
			"componentType":5126,
			"count":30,
			"type":"VEC3"
		},
		{
			"bufferView":43,
			"componentType":5126,
			"count":30,
			"type":"VEC2"
		},
		{
			"bufferView":44,
			"componentType":5123,
			"count":48,
			"type":"SCALAR"
		},
		{
			"bufferView":45,
			"componentType":5126,
			"count":56,
			"max":[
				1,
				0.9790151715278625,
				1.1961630582809448
			],
			"min":[
				-1,
				-0.9790166020393372,
				-1.1961630582809448
			],
			"type":"VEC3"
		},
		{
			"bufferView":46,
			"componentType":5126,
			"count":56,
			"type":"VEC3"
		},
		{
			"bufferView":47,
			"componentType":5126,
			"count":56,
			"type":"VEC2"
		},
		{
			"bufferView":48,
			"componentType":5123,
			"count":168,
			"type":"SCALAR"
		}
	],
	"bufferViews":[
		{
			"buffer":0,
			"byteLength":257224,
			"byteOffset":0,
			"target":34962
		},
		{
			"buffer":0,
			"byteLength":385836,
			"byteOffset":257224,
			"target":34962
		},
		{
			"buffer":0,
			"byteLength":385836,
			"byteOffset":643060,
			"target":34962
		},
		{
			"buffer":0,
			"byteLength":257224,
			"byteOffset":1028896,
			"target":34962
		},
		{
			"buffer":0,
			"byteLength":235224,
			"byteOffset":1286120,
			"target":34963
		},
		{
			"buffer":0,
			"byteLength":12368,
			"byteOffset":1521344,
			"target":34962
		},
		{
			"buffer":0,
			"byteLength":18552,
			"byteOffset":1533712,
			"target":34962
		},
		{
			"buffer":0,
			"byteLength":18552,
			"byteOffset":1552264,
			"target":34962
		},
		{
			"buffer":0,
			"byteLength":12368,
			"byteOffset":1570816,
			"target":34962
		},
		{
			"buffer":0,
			"byteLength":5112,
			"byteOffset":1583184,
			"target":34963
		},
		{
			"buffer":0,
			"byteLength":576,
			"byteOffset":1588296,
			"target":34962
		},
		{
			"buffer":0,
			"byteLength":864,
			"byteOffset":1588872,
			"target":34962
		},
		{
			"buffer":0,
			"byteLength":864,
			"byteOffset":1589736,
			"target":34962
		},
		{
			"buffer":0,
			"byteLength":576,
			"byteOffset":1590600,
			"target":34962
		},
		{
			"buffer":0,
			"byteLength":216,
			"byteOffset":1591176,
			"target":34963
		},
		{
			"buffer":0,
			"byteLength":8736,
			"byteOffset":1591392,
			"target":34962
		},
		{
			"buffer":0,
			"byteLength":13104,
			"byteOffset":1600128,
			"target":34962
		},
		{
			"buffer":0,
			"byteLength":13104,
			"byteOffset":1613232,
			"target":34962
		},
		{
			"buffer":0,
			"byteLength":8736,
			"byteOffset":1626336,
			"target":34962
		},
		{
			"buffer":0,
			"byteLength":3816,
			"byteOffset":1635072,
			"target":34963
		},
		{
			"buffer":0,
			"byteLength":384,
			"byteOffset":1638888,
			"target":34962
		},
		{
			"buffer":0,
			"byteLength":576,
			"byteOffset":1639272,
			"target":34962
		},
		{
			"buffer":0,
			"byteLength":576,
			"byteOffset":1639848,
			"target":34962
		},
		{
			"buffer":0,
			"byteLength":384,
			"byteOffset":1640424,
			"target":34962
		},
		{
			"buffer":0,
			"byteLength":216,
			"byteOffset":1640808,
			"target":34963
		},
		{
			"buffer":0,
			"byteLength":15984,
			"byteOffset":1641024,
			"target":34962
		},
		{
			"buffer":0,
			"byteLength":15984,
			"byteOffset":1657008,
			"target":34962
		},
		{
			"buffer":0,
			"byteLength":10656,
			"byteOffset":1672992,
			"target":34962
		},
		{
			"buffer":0,
			"byteLength":5124,
			"byteOffset":1683648,
			"target":34963
		},
		{
			"buffer":0,
			"byteLength":2760,
			"byteOffset":1688772,
			"target":34962
		},
		{
			"buffer":0,
			"byteLength":2760,
			"byteOffset":1691532,
			"target":34962
		},
		{
			"buffer":0,
			"byteLength":1840,
			"byteOffset":1694292,
			"target":34962
		},
		{
			"buffer":0,
			"byteLength":1800,
			"byteOffset":1696132,
			"target":34963
		},
		{
			"buffer":0,
			"byteLength":87156,
			"byteOffset":1697932,
			"target":34962
		},
		{
			"buffer":0,
			"byteLength":87156,
			"byteOffset":1785088,
			"target":34962
		},
		{
			"buffer":0,
			"byteLength":58104,
			"byteOffset":1872244,
			"target":34962
		},
		{
			"buffer":0,
			"byteLength":66816,
			"byteOffset":1930348,
			"target":34963
		},
		{
			"buffer":0,
			"byteLength":48,
			"byteOffset":1997164,
			"target":34962
		},
		{
			"buffer":0,
			"byteLength":48,
			"byteOffset":1997212,
			"target":34962
		},
		{
			"buffer":0,
			"byteLength":32,
			"byteOffset":1997260,
			"target":34962
		},
		{
			"buffer":0,
			"byteLength":12,
			"byteOffset":1997292,
			"target":34963
		},
		{
			"buffer":0,
			"byteLength":360,
			"byteOffset":1997304,
			"target":34962
		},
		{
			"buffer":0,
			"byteLength":360,
			"byteOffset":1997664,
			"target":34962
		},
		{
			"buffer":0,
			"byteLength":240,
			"byteOffset":1998024,
			"target":34962
		},
		{
			"buffer":0,
			"byteLength":96,
			"byteOffset":1998264,
			"target":34963
		},
		{
			"buffer":0,
			"byteLength":672,
			"byteOffset":1998360,
			"target":34962
		},
		{
			"buffer":0,
			"byteLength":672,
			"byteOffset":1999032,
			"target":34962
		},
		{
			"buffer":0,
			"byteLength":448,
			"byteOffset":1999704,
			"target":34962
		},
		{
			"buffer":0,
			"byteLength":336,
			"byteOffset":2000152,
			"target":34963
		}
	],
	"samplers":[
		{
			"magFilter":9729,
			"minFilter":9987
		},
		{
			"magFilter":9729,
			"minFilter":9987,
			"wrapS":33071,
			"wrapT":33071
		}
	],
	"buffers":[
		{
			"byteLength":2000488,
			"uri":"kitchen.bin"
		}
	]
}
