{
	"asset":{
		"generator":"Khronos glTF Blender I/O v3.6.27",
		"version":"2.0"
	},
	"extensionsUsed":[
		"KHR_materials_specular",
		"KHR_materials_ior",
		"KHR_materials_emissive_strength"
	],
	"scene":0,
	"scenes":[
		{
			"name":"2 Animation to export Scene (Linked)",
			"nodes":[
				0
			]
		}
	],
	"nodes":[
		{
			"mesh":0,
			"name":"OfficePhotoshoot"
		}
	],
	"materials":[
		{
			"doubleSided":true,
			"extensions":{
				"KHR_materials_specular":{
					"specularColorFactor":[
						2.3713576144413984,
						2.3713576144413984,
						2.3713576144413984
					]
				},
				"KHR_materials_ior":{
					"ior":1.4500000476837158
				}
			},
			"name":"Paint White",
			"pbrMetallicRoughness":{
				"metallicFactor":0,
				"roughnessFactor":0.4000000059604645
			}
		},
		{
			"doubleSided":true,
			"extensions":{
				"KHR_materials_specular":{
					"specularColorFactor":[
						2.371357614441398,
						2.371357614441398,
						2.371357614441398
					]
				},
				"KHR_materials_ior":{
					"ior":1.4500000476837158
				}
			},
			"name":"Paint Gray",
			"pbrMetallicRoughness":{
				"baseColorFactor":[
					0.1169707253575325,
					0.12213879078626633,
					0.16513225436210632,
					1
				],
				"metallicFactor":0,
				"roughnessFactor":0.5527864098548889
			}
		},
		{
			"doubleSided":true,
			"emissiveFactor":[
				1,
				1,
				1
			],
			"extensions":{
				"KHR_materials_emissive_strength":{
					"emissiveStrength":10
				}
			},
			"name":"Lightning",
			"pbrMetallicRoughness":{
				"baseColorFactor":[
					0,
					0,
					0,
					1
				]
			}
		}
	],
	"meshes":[
		{
			"name":"Mesh.234",
			"primitives":[
				{
					"attributes":{
						"POSITION":0,
						"NORMAL":1,
						"TEXCOORD_0":2
					},
					"indices":3,
					"material":0
				},
				{
					"attributes":{
						"POSITION":4,
						"NORMAL":5,
						"TEXCOORD_0":6
					},
					"indices":7,
					"material":1
				},
				{
					"attributes":{
						"POSITION":8,
						"NORMAL":9,
						"TEXCOORD_0":10
					},
					"indices":11,
					"material":2
				}
			]
		}
	],
	"accessors":[
		{
			"bufferView":0,
			"componentType":5126,
			"count":7359,
			"max":[
				0.45677804946899414,
				0.7974294424057007,
				0.5057392120361328
			],
			"min":[
				-0.4541206359863281,
				-1.0087577104568481,
				-0.28699588775634766
			],
			"type":"VEC3"
		},
		{
			"bufferView":1,
			"componentType":5126,
			"count":7359,
			"type":"VEC3"
		},
		{
			"bufferView":2,
			"componentType":5126,
			"count":7359,
			"type":"VEC2"
		},
		{
			"bufferView":3,
			"componentType":5123,
			"count":23526,
			"type":"SCALAR"
		},
		{
			"bufferView":4,
			"componentType":5126,
			"count":6089,
			"max":[
				0.44692420959472656,
				0.6563773155212402,
				0.495758056640625
			],
			"min":[
				-0.44426655769348145,
				-1.0007356405258179,
				-0.2776346206665039
			],
			"type":"VEC3"
		},
		{
			"bufferView":5,
			"componentType":5126,
			"count":6089,
			"type":"VEC3"
		},
		{
			"bufferView":6,
			"componentType":5126,
			"count":6089,
			"type":"VEC2"
		},
		{
			"bufferView":7,
			"componentType":5123,
			"count":29796,
			"type":"SCALAR"
		},
		{
			"bufferView":8,
			"componentType":5126,
			"count":482,
			"max":[
				0.04016590118408203,
				0.6754096746444702,
				0.08464717864990234
			],
			"min":[
				-0.03750872611999512,
				0.5977349281311035,
				-0.005721092224121094
			],
			"type":"VEC3"
		},
		{
			"bufferView":9,
			"componentType":5126,
			"count":482,
			"type":"VEC3"
		},
		{
			"bufferView":10,
			"componentType":5126,
			"count":482,
			"type":"VEC2"
		},
		{
			"bufferView":11,
			"componentType":5123,
			"count":2880,
			"type":"SCALAR"
		}
	],
	"bufferViews":[
		{
			"buffer":0,
			"byteLength":88308,
			"byteOffset":0,
			"target":34962
		},
		{
			"buffer":0,
			"byteLength":88308,
			"byteOffset":88308,
			"target":34962
		},
		{
			"buffer":0,
			"byteLength":58872,
			"byteOffset":176616,
			"target":34962
		},
		{
			"buffer":0,
			"byteLength":47052,
			"byteOffset":235488,
			"target":34963
		},
		{
			"buffer":0,
			"byteLength":73068,
			"byteOffset":282540,
			"target":34962
		},
		{
			"buffer":0,
			"byteLength":73068,
			"byteOffset":355608,
			"target":34962
		},
		{
			"buffer":0,
			"byteLength":48712,
			"byteOffset":428676,
			"target":34962
		},
		{
			"buffer":0,
			"byteLength":59592,
			"byteOffset":477388,
			"target":34963
		},
		{
			"buffer":0,
			"byteLength":5784,
			"byteOffset":536980,
			"target":34962
		},
		{
			"buffer":0,
			"byteLength":5784,
			"byteOffset":542764,
			"target":34962
		},
		{
			"buffer":0,
			"byteLength":3856,
			"byteOffset":548548,
			"target":34962
		},
		{
			"buffer":0,
			"byteLength":5760,
			"byteOffset":552404,
			"target":34963
		}
	],
	"buffers":[
		{
			"byteLength":558164,
			"uri":"movable_office_photoshoot.bin"
		}
	]
}
