{
	"asset":{
		"generator":"Khronos glTF Blender I/O v3.6.27",
		"version":"2.0"
	},
	"extensionsUsed":[
		"KHR_materials_specular",
		"KHR_materials_ior"
	],
	"scene":0,
	"scenes":[
		{
			"name":"2 Animation to export Scene (Linked)",
			"nodes":[
				0
			]
		}
	],
	"nodes":[
		{
			"mesh":0,
			"name":"RestzoneKresloHib"
		}
	],
	"materials":[
		{
			"doubleSided":true,
			"extensions":{
				"KHR_materials_specular":{
					"specularColorFactor":[
						0.237135764977738,
						0.237135764977738,
						0.237135764977738
					]
				},
				"KHR_materials_ior":{
					"ior":1.4500000476837158
				}
			},
			"name":"Textile Carpet Caput Mortuum",
			"normalTexture":{
				"index":0
			},
			"pbrMetallicRoughness":{
				"baseColorTexture":{
					"index":1
				},
				"metallicFactor":0,
				"metallicRoughnessTexture":{
					"index":2
				}
			}
		},
		{
			"doubleSided":true,
			"extensions":{
				"KHR_materials_specular":{
					"specularColorTexture":{
						"index":3
					},
					"specularColorFactor":[
						2.371357614441398,
						2.371357614441398,
						2.371357614441398
					]
				},
				"KHR_materials_ior":{
					"ior":1.4500000476837158
				}
			},
			"name":"Wood Real Ash",
			"normalTexture":{
				"index":4,
				"scale":0.10000000149011612
			},
			"pbrMetallicRoughness":{
				"baseColorTexture":{
					"index":5
				},
				"metallicFactor":0,
				"roughnessFactor":0.5
			}
		}
	],
	"meshes":[
		{
			"name":"kreslo hib",
			"primitives":[
				{
					"attributes":{
						"POSITION":0,
						"NORMAL":1,
						"TEXCOORD_0":2
					},
					"indices":3,
					"material":0
				},
				{
					"attributes":{
						"POSITION":4,
						"NORMAL":5,
						"TEXCOORD_0":6
					},
					"indices":7,
					"material":1
				}
			]
		}
	],
	"textures":[
		{
			"sampler":0,
			"source":0
		},
		{
			"sampler":0,
			"source":1
		},
		{
			"sampler":0,
			"source":2
		},
		{
			"sampler":0,
			"source":3
		},
		{
			"sampler":0,
			"source":4
		},
		{
			"sampler":0,
			"source":5
		}
	],
	"images":[
		{
			"mimeType":"image/jpeg",
			"name":"Carpet001_1K_NormalDX",
			"uri":"textures/Carpet001_1K_NormalDX.jpg"
		},
		{
			"mimeType":"image/jpeg",
			"name":"Carpet001_1K_Caput_Mortuum",
			"uri":"textures/Carpet001_1K_Caput_Mortuum.jpg"
		},
		{
			"mimeType":"image/png",
			"name":"Carpet001_1K_Roughness",
			"uri":"textures/Carpet001_1K_Roughness.png"
		},
		{
			"mimeType":"image/png",
			"name":"Image",
			"uri":"textures/Image.png"
		},
		{
			"mimeType":"image/png",
			"name":"NormalMap (1).png",
			"uri":"textures/NormalMap%201_png.png"
		},
		{
			"mimeType":"image/jpeg",
			"name":"textura-dereva 212.jpg",
			"uri":"textures/textura-dereva%20212_jpg.jpg"
		}
	],
	"accessors":[
		{
			"bufferView":0,
			"componentType":5126,
			"count":8974,
			"max":[
				0.3475818634033203,
				0.793960452079773,
				0.2948804199695587
			],
			"min":[
				-0.3776524066925049,
				0.2471185326576233,
				-0.3023633062839508
			],
			"type":"VEC3"
		},
		{
			"bufferView":1,
			"componentType":5126,
			"count":8974,
			"type":"VEC3"
		},
		{
			"bufferView":2,
			"componentType":5126,
			"count":8974,
			"type":"VEC2"
		},
		{
			"bufferView":3,
			"componentType":5123,
			"count":49656,
			"type":"SCALAR"
		},
		{
			"bufferView":4,
			"componentType":5126,
			"count":1701,
			"max":[
				0.37484729290008545,
				0.6631389260292053,
				0.3225851058959961
			],
			"min":[
				-0.37281733751296997,
				-3.9292190194828436e-05,
				-0.33074459433555603
			],
			"type":"VEC3"
		},
		{
			"bufferView":5,
			"componentType":5126,
			"count":1701,
			"type":"VEC3"
		},
		{
			"bufferView":6,
			"componentType":5126,
			"count":1701,
			"type":"VEC2"
		},
		{
			"bufferView":7,
			"componentType":5123,
			"count":4182,
			"type":"SCALAR"
		}
	],
	"bufferViews":[
		{
			"buffer":0,
			"byteLength":107688,
			"byteOffset":0,
			"target":34962
		},
		{
			"buffer":0,
			"byteLength":107688,
			"byteOffset":107688,
			"target":34962
		},
		{
			"buffer":0,
			"byteLength":71792,
			"byteOffset":215376,
			"target":34962
		},
		{
			"buffer":0,
			"byteLength":99312,
			"byteOffset":287168,
			"target":34963
		},
		{
			"buffer":0,
			"byteLength":20412,
			"byteOffset":386480,
			"target":34962
		},
		{
			"buffer":0,
			"byteLength":20412,
			"byteOffset":406892,
			"target":34962
		},
		{
			"buffer":0,
			"byteLength":13608,
			"byteOffset":427304,
			"target":34962
		},
		{
			"buffer":0,
			"byteLength":8364,
			"byteOffset":440912,
			"target":34963
		}
	],
	"samplers":[
		{
			"magFilter":9729,
			"minFilter":9987
		}
	],
	"buffers":[
		{
			"byteLength":449276,
			"uri":"movable_restzone_kreslo_hib.bin"
		}
	]
}
