{
	"asset":{
		"generator":"Khronos glTF Blender I/O v3.6.27",
		"version":"2.0"
	},
	"extensionsUsed":[
		"KHR_materials_specular",
		"KHR_materials_ior"
	],
	"scene":0,
	"scenes":[
		{
			"name":"2 Animation to export Scene (Linked)",
			"nodes":[
				0
			]
		}
	],
	"nodes":[
		{
			"mesh":0,
			"name":"GuestroomHanger"
		}
	],
	"materials":[
		{
			"doubleSided":true,
			"extensions":{
				"KHR_materials_specular":{
					"specularColorFactor":[
						2.3713576144413984,
						2.3713576144413984,
						2.3713576144413984
					]
				},
				"KHR_materials_ior":{
					"ior":1.4500000476837158
				}
			},
			"name":"Paint White",
			"pbrMetallicRoughness":{
				"metallicFactor":0,
				"roughnessFactor":0.4000000059604645
			}
		},
		{
			"doubleSided":true,
			"extensions":{
				"KHR_materials_specular":{
					"specularColorTexture":{
						"index":0
					},
					"specularColorFactor":[
						2.371357614441398,
						2.371357614441398,
						2.371357614441398
					]
				},
				"KHR_materials_ior":{
					"ior":1.4500000476837158
				}
			},
			"name":"Wood Real Ash",
			"normalTexture":{
				"index":1,
				"scale":0.10000000149011612
			},
			"pbrMetallicRoughness":{
				"baseColorTexture":{
					"index":2
				},
				"metallicFactor":0,
				"roughnessFactor":0.5
			}
		},
		{
			"doubleSided":true,
			"extensions":{
				"KHR_materials_specular":{
					"specularColorFactor":[
						1,
						1,
						1
					]
				},
				"KHR_materials_ior":{
					"ior":1
				}
			},
			"name":"Metal Chrome",
			"pbrMetallicRoughness":{
				"baseColorFactor":[
					0.4910377264022827,
					0.4764433801174164,
					0.40801364183425903,
					1
				],
				"roughnessFactor":0.21590909361839294
			}
		},
		{
			"doubleSided":true,
			"extensions":{
				"KHR_materials_specular":{
					"specularColorFactor":[
						0.711407312601205,
						0.711407312601205,
						0.711407312601205
					]
				},
				"KHR_materials_ior":{
					"ior":1.4500000476837158
				}
			},
			"name":"Textile Pillow Caput Mortuum",
			"normalTexture":{
				"index":3
			},
			"pbrMetallicRoughness":{
				"baseColorTexture":{
					"index":4
				},
				"metallicFactor":0,
				"metallicRoughnessTexture":{
					"index":5
				}
			}
		},
		{
			"doubleSided":true,
			"extensions":{
				"KHR_materials_specular":{
					"specularColorFactor":[
						0.711407312601205,
						0.711407312601205,
						0.711407312601205
					]
				},
				"KHR_materials_ior":{
					"ior":1.4500000476837158
				}
			},
			"name":"Textile Pillow Persimmon",
			"normalTexture":{
				"index":6
			},
			"pbrMetallicRoughness":{
				"baseColorTexture":{
					"index":7
				},
				"metallicFactor":0,
				"metallicRoughnessTexture":{
					"index":8
				}
			}
		},
		{
			"doubleSided":true,
			"name":"Textile Pillow Yellow",
			"normalTexture":{
				"index":9
			},
			"pbrMetallicRoughness":{
				"baseColorTexture":{
					"index":10
				},
				"metallicFactor":0,
				"metallicRoughnessTexture":{
					"index":11
				}
			}
		}
	],
	"meshes":[
		{
			"name":"uploads_files_786384_RAIL+8",
			"primitives":[
				{
					"attributes":{
						"POSITION":0,
						"NORMAL":1,
						"TEXCOORD_0":2
					},
					"indices":3,
					"material":0
				},
				{
					"attributes":{
						"POSITION":4,
						"NORMAL":5,
						"TEXCOORD_0":6
					},
					"indices":7,
					"material":1
				},
				{
					"attributes":{
						"POSITION":8,
						"NORMAL":9,
						"TEXCOORD_0":10
					},
					"indices":11,
					"material":2
				},
				{
					"attributes":{
						"POSITION":12,
						"NORMAL":13,
						"TEXCOORD_0":14
					},
					"indices":15,
					"material":3
				},
				{
					"attributes":{
						"POSITION":16,
						"NORMAL":17,
						"TEXCOORD_0":18
					},
					"indices":19,
					"material":4
				},
				{
					"attributes":{
						"POSITION":20,
						"NORMAL":21,
						"TEXCOORD_0":22
					},
					"indices":23,
					"material":5
				}
			]
		}
	],
	"textures":[
		{
			"sampler":0,
			"source":0
		},
		{
			"sampler":0,
			"source":1
		},
		{
			"sampler":0,
			"source":2
		},
		{
			"sampler":0,
			"source":3
		},
		{
			"sampler":0,
			"source":4
		},
		{
			"sampler":0,
			"source":5
		},
		{
			"sampler":0,
			"source":3
		},
		{
			"sampler":0,
			"source":6
		},
		{
			"sampler":0,
			"source":5
		},
		{
			"sampler":0,
			"source":3
		},
		{
			"sampler":0,
			"source":7
		},
		{
			"sampler":0,
			"source":5
		}
	],
	"images":[
		{
			"mimeType":"image/png",
			"name":"Image",
			"uri":"textures/Image.png"
		},
		{
			"mimeType":"image/png",
			"name":"NormalMap (1).png",
			"uri":"textures/NormalMap%201_png.png"
		},
		{
			"mimeType":"image/jpeg",
			"name":"textura-dereva 212.jpg",
			"uri":"textures/textura-dereva%20212_jpg.jpg"
		},
		{
			"mimeType":"image/jpeg",
			"name":"Fabric001_2K_NormalDX",
			"uri":"textures/Fabric001_2K_NormalDX.jpg"
		},
		{
			"mimeType":"image/jpeg",
			"name":"Fabric001_2K_Caput_Mortuum",
			"uri":"textures/Fabric001_2K_Caput_Mortuum.jpg"
		},
		{
			"mimeType":"image/png",
			"name":"Fabric001_2K_Roughness",
			"uri":"textures/Fabric001_2K_Roughness.png"
		},
		{
			"mimeType":"image/jpeg",
			"name":"Fabric001_2K_Persimmon",
			"uri":"textures/Fabric001_2K_Persimmon.jpg"
		},
		{
			"mimeType":"image/jpeg",
			"name":"Fabric001_2K_Yellow",
			"uri":"textures/Fabric001_2K_Yellow.jpg"
		}
	],
	"accessors":[
		{
			"bufferView":0,
			"componentType":5126,
			"count":527,
			"max":[
				0.5898202657699585,
				1.4160065650939941,
				0.17124813795089722
			],
			"min":[
				-0.5899497270584106,
				-0.0012554163113236427,
				-0.17127123475074768
			],
			"type":"VEC3"
		},
		{
			"bufferView":1,
			"componentType":5126,
			"count":527,
			"type":"VEC3"
		},
		{
			"bufferView":2,
			"componentType":5126,
			"count":527,
			"type":"VEC2"
		},
		{
			"bufferView":3,
			"componentType":5123,
			"count":996,
			"type":"SCALAR"
		},
		{
			"bufferView":4,
			"componentType":5126,
			"count":452,
			"max":[
				0.587073564529419,
				1.3499326705932617,
				0.14333121478557587
			],
			"min":[
				-0.586280107498169,
				0.33053669333457947,
				-0.20001140236854553
			],
			"type":"VEC3"
		},
		{
			"bufferView":5,
			"componentType":5126,
			"count":452,
			"type":"VEC3"
		},
		{
			"bufferView":6,
			"componentType":5126,
			"count":452,
			"type":"VEC2"
		},
		{
			"bufferView":7,
			"componentType":5123,
			"count":1206,
			"type":"SCALAR"
		},
		{
			"bufferView":8,
			"componentType":5126,
			"count":1364,
			"max":[
				0.30039292573928833,
				1.4264589548110962,
				0.047084562480449677
			],
			"min":[
				-0.43350324034690857,
				1.3304753303527832,
				-0.09520843625068665
			],
			"type":"VEC3"
		},
		{
			"bufferView":9,
			"componentType":5126,
			"count":1364,
			"type":"VEC3"
		},
		{
			"bufferView":10,
			"componentType":5126,
			"count":1364,
			"type":"VEC2"
		},
		{
			"bufferView":11,
			"componentType":5123,
			"count":2673,
			"type":"SCALAR"
		},
		{
			"bufferView":12,
			"componentType":5126,
			"count":1701,
			"max":[
				-0.1828444004058838,
				1.3432449102401733,
				0.09243068099021912
			],
			"min":[
				-0.6072773337364197,
				0.705687403678894,
				-0.11541877686977386
			],
			"type":"VEC3"
		},
		{
			"bufferView":13,
			"componentType":5126,
			"count":1701,
			"type":"VEC3"
		},
		{
			"bufferView":14,
			"componentType":5126,
			"count":1701,
			"type":"VEC2"
		},
		{
			"bufferView":15,
			"componentType":5123,
			"count":5853,
			"type":"SCALAR"
		},
		{
			"bufferView":16,
			"componentType":5126,
			"count":1514,
			"max":[
				0.09811520576477051,
				0.388583779335022,
				0.07473144680261612
			],
			"min":[
				-0.2031312882900238,
				0.345572292804718,
				-0.14258703589439392
			],
			"type":"VEC3"
		},
		{
			"bufferView":17,
			"componentType":5126,
			"count":1514,
			"type":"VEC3"
		},
		{
			"bufferView":18,
			"componentType":5126,
			"count":1514,
			"type":"VEC2"
		},
		{
			"bufferView":19,
			"componentType":5123,
			"count":4485,
			"type":"SCALAR"
		},
		{
			"bufferView":20,
			"componentType":5126,
			"count":1517,
			"max":[
				0.09688282012939453,
				0.41917067766189575,
				0.07463297247886658
			],
			"min":[
				-0.19788864254951477,
				0.3591932952404022,
				-0.15667617321014404
			],
			"type":"VEC3"
		},
		{
			"bufferView":21,
			"componentType":5126,
			"count":1517,
			"type":"VEC3"
		},
		{
			"bufferView":22,
			"componentType":5126,
			"count":1517,
			"type":"VEC2"
		},
		{
			"bufferView":23,
			"componentType":5123,
			"count":4716,
			"type":"SCALAR"
		}
	],
	"bufferViews":[
		{
			"buffer":0,
			"byteLength":6324,
			"byteOffset":0,
			"target":34962
		},
		{
			"buffer":0,
			"byteLength":6324,
			"byteOffset":6324,
			"target":34962
		},
		{
			"buffer":0,
			"byteLength":4216,
			"byteOffset":12648,
			"target":34962
		},
		{
			"buffer":0,
			"byteLength":1992,
			"byteOffset":16864,
			"target":34963
		},
		{
			"buffer":0,
			"byteLength":5424,
			"byteOffset":18856,
			"target":34962
		},
		{
			"buffer":0,
			"byteLength":5424,
			"byteOffset":24280,
			"target":34962
		},
		{
			"buffer":0,
			"byteLength":3616,
			"byteOffset":29704,
			"target":34962
		},
		{
			"buffer":0,
			"byteLength":2412,
			"byteOffset":33320,
			"target":34963
		},
		{
			"buffer":0,
			"byteLength":16368,
			"byteOffset":35732,
			"target":34962
		},
		{
			"buffer":0,
			"byteLength":16368,
			"byteOffset":52100,
			"target":34962
		},
		{
			"buffer":0,
			"byteLength":10912,
			"byteOffset":68468,
			"target":34962
		},
		{
			"buffer":0,
			"byteLength":5346,
			"byteOffset":79380,
			"target":34963
		},
		{
			"buffer":0,
			"byteLength":20412,
			"byteOffset":84728,
			"target":34962
		},
		{
			"buffer":0,
			"byteLength":20412,
			"byteOffset":105140,
			"target":34962
		},
		{
			"buffer":0,
			"byteLength":13608,
			"byteOffset":125552,
			"target":34962
		},
		{
			"buffer":0,
			"byteLength":11706,
			"byteOffset":139160,
			"target":34963
		},
		{
			"buffer":0,
			"byteLength":18168,
			"byteOffset":150868,
			"target":34962
		},
		{
			"buffer":0,
			"byteLength":18168,
			"byteOffset":169036,
			"target":34962
		},
		{
			"buffer":0,
			"byteLength":12112,
			"byteOffset":187204,
			"target":34962
		},
		{
			"buffer":0,
			"byteLength":8970,
			"byteOffset":199316,
			"target":34963
		},
		{
			"buffer":0,
			"byteLength":18204,
			"byteOffset":208288,
			"target":34962
		},
		{
			"buffer":0,
			"byteLength":18204,
			"byteOffset":226492,
			"target":34962
		},
		{
			"buffer":0,
			"byteLength":12136,
			"byteOffset":244696,
			"target":34962
		},
		{
			"buffer":0,
			"byteLength":9432,
			"byteOffset":256832,
			"target":34963
		}
	],
	"samplers":[
		{
			"magFilter":9729,
			"minFilter":9987
		}
	],
	"buffers":[
		{
			"byteLength":266264,
			"uri":"movable_guestroom_hanger.bin"
		}
	]
}
