{
	"asset":{
		"generator":"Khronos glTF Blender I/O v3.6.27",
		"version":"2.0"
	},
	"extensionsUsed":[
		"KHR_materials_specular",
		"KHR_materials_ior"
	],
	"scene":0,
	"scenes":[
		{
			"name":"2 Animation to export Scene (Linked)",
			"nodes":[
				0
			]
		}
	],
	"nodes":[
		{
			"mesh":0,
			"name":"Mov Pouffe Stool",
			"rotation":[
				0.70710688829422,
				0,
				0,
				0.7071066498756409
			],
			"scale":[
				0.009999990463256836,
				0.009999990463256836,
				0.009999990463256836
			]
		}
	],
	"materials":[
		{
			"doubleSided":true,
			"extensions":{
				"KHR_materials_specular":{
					"specularColorFactor":[
						2.3713576144413984,
						2.3713576144413984,
						2.3713576144413984
					]
				},
				"KHR_materials_ior":{
					"ior":1.4500000476837158
				}
			},
			"name":"Paint White",
			"pbrMetallicRoughness":{
				"metallicFactor":0,
				"roughnessFactor":0.4000000059604645
			}
		},
		{
			"doubleSided":true,
			"extensions":{
				"KHR_materials_specular":{
					"specularColorFactor":[
						2.371357614441398,
						2.371357614441398,
						2.371357614441398
					]
				},
				"KHR_materials_ior":{
					"ior":1.4500000476837158
				}
			},
			"name":"Metal Mat",
			"pbrMetallicRoughness":{
				"baseColorFactor":[
					0.06993462890386581,
					0.06993462890386581,
					0.06993462890386581,
					1
				],
				"roughnessFactor":0.5527864098548889
			}
		},
		{
			"doubleSided":true,
			"name":"Textile Divan Orange",
			"normalTexture":{
				"index":0
			},
			"pbrMetallicRoughness":{
				"baseColorTexture":{
					"index":1
				},
				"metallicFactor":0,
				"metallicRoughnessTexture":{
					"index":2
				}
			}
		},
		{
			"doubleSided":true,
			"extensions":{
				"KHR_materials_specular":{
					"specularColorFactor":[
						2.371357614441398,
						2.371357614441398,
						2.371357614441398
					]
				},
				"KHR_materials_ior":{
					"ior":1.4500000476837158
				}
			},
			"name":"Textile Sofa Classic Soft",
			"pbrMetallicRoughness":{
				"baseColorFactor":[
					1,
					1,
					1,
					0.9960784316062927
				],
				"baseColorTexture":{
					"index":3
				},
				"metallicRoughnessTexture":{
					"index":4
				},
				"roughnessFactor":0.5527864098548889
			}
		}
	],
	"meshes":[
		{
			"name":"Cylinder001.005",
			"primitives":[
				{
					"attributes":{
						"POSITION":0,
						"NORMAL":1,
						"TEXCOORD_0":2
					},
					"indices":3,
					"material":0
				},
				{
					"attributes":{
						"POSITION":4,
						"NORMAL":5,
						"TEXCOORD_0":6
					},
					"indices":7,
					"material":1
				},
				{
					"attributes":{
						"POSITION":8,
						"NORMAL":9,
						"TEXCOORD_0":10
					},
					"indices":11,
					"material":2
				},
				{
					"attributes":{
						"POSITION":12,
						"NORMAL":13,
						"TEXCOORD_0":14
					},
					"indices":15,
					"material":3
				}
			]
		}
	],
	"textures":[
		{
			"sampler":0,
			"source":0
		},
		{
			"sampler":0,
			"source":1
		},
		{
			"sampler":0,
			"source":2
		},
		{
			"sampler":0,
			"source":3
		},
		{
			"sampler":0,
			"source":4
		}
	],
	"images":[
		{
			"mimeType":"image/jpeg",
			"name":"Fabric061_1K_NormalDX",
			"uri":"textures/Fabric061_1K_NormalDX.jpg"
		},
		{
			"mimeType":"image/jpeg",
			"name":"Fabric061_1K_Persimmon",
			"uri":"textures/Fabric061_1K_Persimmon.jpg"
		},
		{
			"mimeType":"image/png",
			"name":"Fabric061_1K_Roughness",
			"uri":"textures/Fabric061_1K_Roughness.png"
		},
		{
			"mimeType":"image/jpeg",
			"name":"MATERIAL_CLASSIC_SOFT_DIFFUSE",
			"uri":"textures/MATERIAL_CLASSIC_SOFT_DIFFUSE.jpg"
		},
		{
			"mimeType":"image/png",
			"name":"MATERIAL_CLASSIC_SOFT_REFLECT",
			"uri":"textures/MATERIAL_CLASSIC_SOFT_REFLECT.png"
		}
	],
	"accessors":[
		{
			"bufferView":0,
			"componentType":5126,
			"count":1220,
			"max":[
				20.02997398376465,
				15.768354415893555,
				-0.25525856018066406
			],
			"min":[
				-20.3054256439209,
				-16.061939239501953,
				-43.053348541259766
			],
			"type":"VEC3"
		},
		{
			"bufferView":1,
			"componentType":5126,
			"count":1220,
			"type":"VEC3"
		},
		{
			"bufferView":2,
			"componentType":5126,
			"count":1220,
			"type":"VEC2"
		},
		{
			"bufferView":3,
			"componentType":5123,
			"count":5178,
			"type":"SCALAR"
		},
		{
			"bufferView":4,
			"componentType":5126,
			"count":154,
			"max":[
				16.132774353027344,
				14.120980262756348,
				0
			],
			"min":[
				-16.132526397705078,
				-14.120920181274414,
				-0.2839012145996094
			],
			"type":"VEC3"
		},
		{
			"bufferView":5,
			"componentType":5126,
			"count":154,
			"type":"VEC3"
		},
		{
			"bufferView":6,
			"componentType":5126,
			"count":154,
			"type":"VEC2"
		},
		{
			"bufferView":7,
			"componentType":5123,
			"count":438,
			"type":"SCALAR"
		},
		{
			"bufferView":8,
			"componentType":5126,
			"count":6310,
			"max":[
				17.35427474975586,
				16.5164852142334,
				-37.08290100097656
			],
			"min":[
				-17.64412498474121,
				-17.02852439880371,
				-45.10803985595703
			],
			"type":"VEC3"
		},
		{
			"bufferView":9,
			"componentType":5126,
			"count":6310,
			"type":"VEC3"
		},
		{
			"bufferView":10,
			"componentType":5126,
			"count":6310,
			"type":"VEC2"
		},
		{
			"bufferView":11,
			"componentType":5123,
			"count":21168,
			"type":"SCALAR"
		},
		{
			"bufferView":12,
			"componentType":5126,
			"count":1740,
			"max":[
				18.149526596069336,
				16.732439041137695,
				-37.089195251464844
			],
			"min":[
				-18.326200485229492,
				-17.264680862426758,
				-46.362178802490234
			],
			"type":"VEC3"
		},
		{
			"bufferView":13,
			"componentType":5126,
			"count":1740,
			"type":"VEC3"
		},
		{
			"bufferView":14,
			"componentType":5126,
			"count":1740,
			"type":"VEC2"
		},
		{
			"bufferView":15,
			"componentType":5123,
			"count":9804,
			"type":"SCALAR"
		}
	],
	"bufferViews":[
		{
			"buffer":0,
			"byteLength":14640,
			"byteOffset":0,
			"target":34962
		},
		{
			"buffer":0,
			"byteLength":14640,
			"byteOffset":14640,
			"target":34962
		},
		{
			"buffer":0,
			"byteLength":9760,
			"byteOffset":29280,
			"target":34962
		},
		{
			"buffer":0,
			"byteLength":10356,
			"byteOffset":39040,
			"target":34963
		},
		{
			"buffer":0,
			"byteLength":1848,
			"byteOffset":49396,
			"target":34962
		},
		{
			"buffer":0,
			"byteLength":1848,
			"byteOffset":51244,
			"target":34962
		},
		{
			"buffer":0,
			"byteLength":1232,
			"byteOffset":53092,
			"target":34962
		},
		{
			"buffer":0,
			"byteLength":876,
			"byteOffset":54324,
			"target":34963
		},
		{
			"buffer":0,
			"byteLength":75720,
			"byteOffset":55200,
			"target":34962
		},
		{
			"buffer":0,
			"byteLength":75720,
			"byteOffset":130920,
			"target":34962
		},
		{
			"buffer":0,
			"byteLength":50480,
			"byteOffset":206640,
			"target":34962
		},
		{
			"buffer":0,
			"byteLength":42336,
			"byteOffset":257120,
			"target":34963
		},
		{
			"buffer":0,
			"byteLength":20880,
			"byteOffset":299456,
			"target":34962
		},
		{
			"buffer":0,
			"byteLength":20880,
			"byteOffset":320336,
			"target":34962
		},
		{
			"buffer":0,
			"byteLength":13920,
			"byteOffset":341216,
			"target":34962
		},
		{
			"buffer":0,
			"byteLength":19608,
			"byteOffset":355136,
			"target":34963
		}
	],
	"samplers":[
		{
			"magFilter":9729,
			"minFilter":9987
		}
	],
	"buffers":[
		{
			"byteLength":374744,
			"uri":"movable_pouffe_stool.bin"
		}
	]
}
