{
	"asset":{
		"generator":"Khronos glTF Blender I/O v3.6.27",
		"version":"2.0"
	},
	"extensionsUsed":[
		"KHR_materials_specular",
		"KHR_materials_ior"
	],
	"scene":0,
	"scenes":[
		{
			"name":"2 Animation to export Scene (Linked)",
			"nodes":[
				0
			]
		}
	],
	"nodes":[
		{
			"mesh":0,
			"name":"KitchenChair"
		}
	],
	"materials":[
		{
			"doubleSided":true,
			"extensions":{
				"KHR_materials_specular":{
					"specularColorFactor":[
						2.371357614441398,
						2.371357614441398,
						2.371357614441398
					]
				},
				"KHR_materials_ior":{
					"ior":1.4500000476837158
				}
			},
			"name":"Metal Mat",
			"pbrMetallicRoughness":{
				"baseColorFactor":[
					0.06993462890386581,
					0.06993462890386581,
					0.06993462890386581,
					1
				],
				"roughnessFactor":0.5527864098548889
			}
		},
		{
			"doubleSided":true,
			"extensions":{
				"KHR_materials_specular":{
					"specularColorFactor":[
						2.371357614441398,
						2.371357614441398,
						2.371357614441398
					]
				},
				"KHR_materials_ior":{
					"ior":1.4500000476837158
				}
			},
			"name":"Textile Sofa Classic Soft",
			"pbrMetallicRoughness":{
				"baseColorFactor":[
					1,
					1,
					1,
					0.9960784316062927
				],
				"baseColorTexture":{
					"index":0
				},
				"metallicRoughnessTexture":{
					"index":1
				},
				"roughnessFactor":0.5527864098548889
			}
		},
		{
			"doubleSided":true,
			"extensions":{
				"KHR_materials_specular":{
					"specularColorFactor":[
						2.3713576144413984,
						2.3713576144413984,
						2.3713576144413984
					]
				},
				"KHR_materials_ior":{
					"ior":1.4500000476837158
				}
			},
			"name":"Paint White",
			"pbrMetallicRoughness":{
				"metallicFactor":0,
				"roughnessFactor":0.4000000059604645
			}
		}
	],
	"meshes":[
		{
			"name":"Cylinder001",
			"primitives":[
				{
					"attributes":{
						"POSITION":0,
						"NORMAL":1,
						"TEXCOORD_0":2
					},
					"indices":3,
					"material":0
				},
				{
					"attributes":{
						"POSITION":4,
						"NORMAL":5,
						"TEXCOORD_0":6
					},
					"indices":7,
					"material":1
				},
				{
					"attributes":{
						"POSITION":8,
						"NORMAL":9,
						"TEXCOORD_0":10
					},
					"indices":11,
					"material":2
				}
			]
		}
	],
	"textures":[
		{
			"sampler":0,
			"source":0
		},
		{
			"sampler":0,
			"source":1
		}
	],
	"images":[
		{
			"mimeType":"image/jpeg",
			"name":"MATERIAL_CLASSIC_SOFT_DIFFUSE",
			"uri":"textures/MATERIAL_CLASSIC_SOFT_DIFFUSE.jpg"
		},
		{
			"mimeType":"image/png",
			"name":"MATERIAL_CLASSIC_SOFT_REFLECT",
			"uri":"textures/MATERIAL_CLASSIC_SOFT_REFLECT.png"
		}
	],
	"accessors":[
		{
			"bufferView":0,
			"componentType":5126,
			"count":264,
			"max":[
				0.20369559526443481,
				0.006208013743162155,
				0.20270845293998718
			],
			"min":[
				-0.2047390192747116,
				-4.470348358154297e-08,
				-0.2027091532945633
			],
			"type":"VEC3"
		},
		{
			"bufferView":1,
			"componentType":5126,
			"count":264,
			"type":"VEC3"
		},
		{
			"bufferView":2,
			"componentType":5126,
			"count":264,
			"type":"VEC2"
		},
		{
			"bufferView":3,
			"componentType":5123,
			"count":816,
			"type":"SCALAR"
		},
		{
			"bufferView":4,
			"componentType":5126,
			"count":2908,
			"max":[
				0.23614056408405304,
				0.8062043190002441,
				0.2259795069694519
			],
			"min":[
				-0.23420898616313934,
				0.37329062819480896,
				-0.2883889675140381
			],
			"type":"VEC3"
		},
		{
			"bufferView":5,
			"componentType":5126,
			"count":2908,
			"type":"VEC3"
		},
		{
			"bufferView":6,
			"componentType":5126,
			"count":2908,
			"type":"VEC2"
		},
		{
			"bufferView":7,
			"componentType":5123,
			"count":15552,
			"type":"SCALAR"
		},
		{
			"bufferView":8,
			"componentType":5126,
			"count":864,
			"max":[
				0.21171358227729797,
				0.39021360874176025,
				0.21142244338989258
			],
			"min":[
				-0.2128020077943802,
				0.00394495390355587,
				-0.2113511562347412
			],
			"type":"VEC3"
		},
		{
			"bufferView":9,
			"componentType":5126,
			"count":864,
			"type":"VEC3"
		},
		{
			"bufferView":10,
			"componentType":5126,
			"count":864,
			"type":"VEC2"
		},
		{
			"bufferView":11,
			"componentType":5123,
			"count":3624,
			"type":"SCALAR"
		}
	],
	"bufferViews":[
		{
			"buffer":0,
			"byteLength":3168,
			"byteOffset":0,
			"target":34962
		},
		{
			"buffer":0,
			"byteLength":3168,
			"byteOffset":3168,
			"target":34962
		},
		{
			"buffer":0,
			"byteLength":2112,
			"byteOffset":6336,
			"target":34962
		},
		{
			"buffer":0,
			"byteLength":1632,
			"byteOffset":8448,
			"target":34963
		},
		{
			"buffer":0,
			"byteLength":34896,
			"byteOffset":10080,
			"target":34962
		},
		{
			"buffer":0,
			"byteLength":34896,
			"byteOffset":44976,
			"target":34962
		},
		{
			"buffer":0,
			"byteLength":23264,
			"byteOffset":79872,
			"target":34962
		},
		{
			"buffer":0,
			"byteLength":31104,
			"byteOffset":103136,
			"target":34963
		},
		{
			"buffer":0,
			"byteLength":10368,
			"byteOffset":134240,
			"target":34962
		},
		{
			"buffer":0,
			"byteLength":10368,
			"byteOffset":144608,
			"target":34962
		},
		{
			"buffer":0,
			"byteLength":6912,
			"byteOffset":154976,
			"target":34962
		},
		{
			"buffer":0,
			"byteLength":7248,
			"byteOffset":161888,
			"target":34963
		}
	],
	"samplers":[
		{
			"magFilter":9729,
			"minFilter":9987
		}
	],
	"buffers":[
		{
			"byteLength":169136,
			"uri":"movable_kitchen_chair.bin"
		}
	]
}
