{
	"asset":{
		"generator":"Khronos glTF Blender I/O v3.6.27",
		"version":"2.0"
	},
	"extensionsUsed":[
		"KHR_materials_specular",
		"KHR_materials_ior"
	],
	"scene":0,
	"scenes":[
		{
			"name":"2 Animation to export Scene (Linked)",
			"nodes":[
				0
			]
		}
	],
	"nodes":[
		{
			"mesh":0,
			"name":"OfficeChair"
		}
	],
	"materials":[
		{
			"doubleSided":true,
			"name":"Textile Pillow Yellow",
			"normalTexture":{
				"index":0
			},
			"pbrMetallicRoughness":{
				"baseColorTexture":{
					"index":1
				},
				"metallicFactor":0,
				"metallicRoughnessTexture":{
					"index":2
				}
			}
		},
		{
			"doubleSided":true,
			"extensions":{
				"KHR_materials_specular":{
					"specularColorFactor":[
						0.711407312601205,
						0.711407312601205,
						0.711407312601205
					]
				},
				"KHR_materials_ior":{
					"ior":1.4500000476837158
				}
			},
			"name":"Textile Pillow Caput Mortuum",
			"normalTexture":{
				"index":3
			},
			"pbrMetallicRoughness":{
				"baseColorTexture":{
					"index":4
				},
				"metallicFactor":0,
				"metallicRoughnessTexture":{
					"index":5
				}
			}
		},
		{
			"doubleSided":true,
			"extensions":{
				"KHR_materials_specular":{
					"specularColorFactor":[
						2.3713576144413984,
						2.3713576144413984,
						2.3713576144413984
					]
				},
				"KHR_materials_ior":{
					"ior":1.4500000476837158
				}
			},
			"name":"Paint White",
			"pbrMetallicRoughness":{
				"metallicFactor":0,
				"roughnessFactor":0.4000000059604645
			}
		},
		{
			"doubleSided":true,
			"extensions":{
				"KHR_materials_specular":{
					"specularColorFactor":[
						2.371357614441398,
						2.371357614441398,
						2.371357614441398
					]
				},
				"KHR_materials_ior":{
					"ior":1.4500000476837158
				}
			},
			"name":"Paint Gray",
			"pbrMetallicRoughness":{
				"baseColorFactor":[
					0.1169707253575325,
					0.12213879078626633,
					0.16513225436210632,
					1
				],
				"metallicFactor":0,
				"roughnessFactor":0.5527864098548889
			}
		}
	],
	"meshes":[
		{
			"name":"Plane014",
			"primitives":[
				{
					"attributes":{
						"POSITION":0,
						"NORMAL":1,
						"TEXCOORD_0":2
					},
					"indices":3,
					"material":0
				},
				{
					"attributes":{
						"POSITION":4,
						"NORMAL":5,
						"TEXCOORD_0":6
					},
					"indices":7,
					"material":1
				},
				{
					"attributes":{
						"POSITION":8,
						"NORMAL":9,
						"TEXCOORD_0":10
					},
					"indices":11,
					"material":2
				},
				{
					"attributes":{
						"POSITION":12,
						"NORMAL":13,
						"TEXCOORD_0":14
					},
					"indices":15,
					"material":3
				}
			]
		}
	],
	"textures":[
		{
			"sampler":0,
			"source":0
		},
		{
			"sampler":0,
			"source":1
		},
		{
			"sampler":0,
			"source":2
		},
		{
			"sampler":0,
			"source":0
		},
		{
			"sampler":0,
			"source":3
		},
		{
			"sampler":0,
			"source":2
		}
	],
	"images":[
		{
			"mimeType":"image/jpeg",
			"name":"Fabric001_2K_NormalDX",
			"uri":"textures/Fabric001_2K_NormalDX.jpg"
		},
		{
			"mimeType":"image/jpeg",
			"name":"Fabric001_2K_Yellow",
			"uri":"textures/Fabric001_2K_Yellow.jpg"
		},
		{
			"mimeType":"image/png",
			"name":"Fabric001_2K_Roughness",
			"uri":"textures/Fabric001_2K_Roughness.png"
		},
		{
			"mimeType":"image/jpeg",
			"name":"Fabric001_2K_Caput_Mortuum",
			"uri":"textures/Fabric001_2K_Caput_Mortuum.jpg"
		}
	],
	"accessors":[
		{
			"bufferView":0,
			"componentType":5126,
			"count":4124,
			"max":[
				0.38745471835136414,
				1.142574667930603,
				0.31727850437164307
			],
			"min":[
				-0.3515695035457611,
				0.34699568152427673,
				-0.2895664870738983
			],
			"type":"VEC3"
		},
		{
			"bufferView":1,
			"componentType":5126,
			"count":4124,
			"type":"VEC3"
		},
		{
			"bufferView":2,
			"componentType":5126,
			"count":4124,
			"type":"VEC2"
		},
		{
			"bufferView":3,
			"componentType":5123,
			"count":14043,
			"type":"SCALAR"
		},
		{
			"bufferView":4,
			"componentType":5126,
			"count":956,
			"max":[
				0.36097243428230286,
				1.0406742095947266,
				0.25523626804351807
			],
			"min":[
				0.15664729475975037,
				0.8862379789352417,
				-0.22858373820781708
			],
			"type":"VEC3"
		},
		{
			"bufferView":5,
			"componentType":5126,
			"count":956,
			"type":"VEC3"
		},
		{
			"bufferView":6,
			"componentType":5126,
			"count":956,
			"type":"VEC2"
		},
		{
			"bufferView":7,
			"componentType":5123,
			"count":3486,
			"type":"SCALAR"
		},
		{
			"bufferView":8,
			"componentType":5126,
			"count":2532,
			"max":[
				0.32907193899154663,
				0.6960298418998718,
				0.3730201721191406
			],
			"min":[
				-0.3684135973453522,
				0.07279391586780548,
				-0.35042962431907654
			],
			"type":"VEC3"
		},
		{
			"bufferView":9,
			"componentType":5126,
			"count":2532,
			"type":"VEC3"
		},
		{
			"bufferView":10,
			"componentType":5126,
			"count":2532,
			"type":"VEC2"
		},
		{
			"bufferView":11,
			"componentType":5123,
			"count":6540,
			"type":"SCALAR"
		},
		{
			"bufferView":12,
			"componentType":5126,
			"count":1779,
			"max":[
				0.34074631333351135,
				0.09171325713396072,
				0.380623996257782
			],
			"min":[
				-0.3873332142829895,
				-0.000411100045312196,
				-0.3798343539237976
			],
			"type":"VEC3"
		},
		{
			"bufferView":13,
			"componentType":5126,
			"count":1779,
			"type":"VEC3"
		},
		{
			"bufferView":14,
			"componentType":5126,
			"count":1779,
			"type":"VEC2"
		},
		{
			"bufferView":15,
			"componentType":5123,
			"count":3084,
			"type":"SCALAR"
		}
	],
	"bufferViews":[
		{
			"buffer":0,
			"byteLength":49488,
			"byteOffset":0,
			"target":34962
		},
		{
			"buffer":0,
			"byteLength":49488,
			"byteOffset":49488,
			"target":34962
		},
		{
			"buffer":0,
			"byteLength":32992,
			"byteOffset":98976,
			"target":34962
		},
		{
			"buffer":0,
			"byteLength":28086,
			"byteOffset":131968,
			"target":34963
		},
		{
			"buffer":0,
			"byteLength":11472,
			"byteOffset":160056,
			"target":34962
		},
		{
			"buffer":0,
			"byteLength":11472,
			"byteOffset":171528,
			"target":34962
		},
		{
			"buffer":0,
			"byteLength":7648,
			"byteOffset":183000,
			"target":34962
		},
		{
			"buffer":0,
			"byteLength":6972,
			"byteOffset":190648,
			"target":34963
		},
		{
			"buffer":0,
			"byteLength":30384,
			"byteOffset":197620,
			"target":34962
		},
		{
			"buffer":0,
			"byteLength":30384,
			"byteOffset":228004,
			"target":34962
		},
		{
			"buffer":0,
			"byteLength":20256,
			"byteOffset":258388,
			"target":34962
		},
		{
			"buffer":0,
			"byteLength":13080,
			"byteOffset":278644,
			"target":34963
		},
		{
			"buffer":0,
			"byteLength":21348,
			"byteOffset":291724,
			"target":34962
		},
		{
			"buffer":0,
			"byteLength":21348,
			"byteOffset":313072,
			"target":34962
		},
		{
			"buffer":0,
			"byteLength":14232,
			"byteOffset":334420,
			"target":34962
		},
		{
			"buffer":0,
			"byteLength":6168,
			"byteOffset":348652,
			"target":34963
		}
	],
	"samplers":[
		{
			"magFilter":9729,
			"minFilter":9987
		}
	],
	"buffers":[
		{
			"byteLength":354820,
			"uri":"movable_office_chair.bin"
		}
	]
}
