{
	"asset":{
		"generator":"Khronos glTF Blender I/O v3.6.27",
		"version":"2.0"
	},
	"extensionsUsed":[
		"KHR_materials_specular",
		"KHR_materials_ior"
	],
	"scene":0,
	"scenes":[
		{
			"name":"2 Animation to export Scene (Linked)",
			"nodes":[
				0
			]
		}
	],
	"nodes":[
		{
			"mesh":0,
			"name":"RestzoneRockingChair"
		}
	],
	"materials":[
		{
			"doubleSided":true,
			"extensions":{
				"KHR_materials_specular":{
					"specularColorFactor":[
						0.711407312601205,
						0.711407312601205,
						0.711407312601205
					]
				},
				"KHR_materials_ior":{
					"ior":1.4500000476837158
				}
			},
			"name":"Textile Pillow Caput Mortuum",
			"normalTexture":{
				"index":0
			},
			"pbrMetallicRoughness":{
				"baseColorTexture":{
					"index":1
				},
				"metallicFactor":0,
				"metallicRoughnessTexture":{
					"index":2
				}
			}
		},
		{
			"doubleSided":true,
			"extensions":{
				"KHR_materials_specular":{
					"specularColorTexture":{
						"index":3
					},
					"specularColorFactor":[
						2.371357614441398,
						2.371357614441398,
						2.371357614441398
					]
				},
				"KHR_materials_ior":{
					"ior":1.4500000476837158
				}
			},
			"name":"Wood Real Ash",
			"normalTexture":{
				"index":4,
				"scale":0.10000000149011612
			},
			"pbrMetallicRoughness":{
				"baseColorTexture":{
					"index":5
				},
				"metallicFactor":0,
				"roughnessFactor":0.5
			}
		}
	],
	"meshes":[
		{
			"name":"Mesh.013",
			"primitives":[
				{
					"attributes":{
						"POSITION":0,
						"NORMAL":1,
						"TEXCOORD_0":2
					},
					"indices":3,
					"material":0
				},
				{
					"attributes":{
						"POSITION":4,
						"NORMAL":5,
						"TEXCOORD_0":6
					},
					"indices":7,
					"material":1
				}
			]
		}
	],
	"textures":[
		{
			"sampler":0,
			"source":0
		},
		{
			"sampler":0,
			"source":1
		},
		{
			"sampler":0,
			"source":2
		},
		{
			"sampler":0,
			"source":3
		},
		{
			"sampler":0,
			"source":4
		},
		{
			"sampler":0,
			"source":5
		}
	],
	"images":[
		{
			"mimeType":"image/jpeg",
			"name":"Fabric001_2K_NormalDX",
			"uri":"textures/Fabric001_2K_NormalDX.jpg"
		},
		{
			"mimeType":"image/jpeg",
			"name":"Fabric001_2K_Caput_Mortuum",
			"uri":"textures/Fabric001_2K_Caput_Mortuum.jpg"
		},
		{
			"mimeType":"image/png",
			"name":"Fabric001_2K_Roughness",
			"uri":"textures/Fabric001_2K_Roughness.png"
		},
		{
			"mimeType":"image/png",
			"name":"Image",
			"uri":"textures/Image.png"
		},
		{
			"mimeType":"image/png",
			"name":"NormalMap (1).png",
			"uri":"textures/NormalMap%201_png.png"
		},
		{
			"mimeType":"image/jpeg",
			"name":"textura-dereva 212.jpg",
			"uri":"textures/textura-dereva%20212_jpg.jpg"
		}
	],
	"accessors":[
		{
			"bufferView":0,
			"componentType":5126,
			"count":1273,
			"max":[
				0.23973368108272552,
				0.9076977968215942,
				0.3241730332374573
			],
			"min":[
				-0.23681363463401794,
				0.29229646921157837,
				-0.3966781497001648
			],
			"type":"VEC3"
		},
		{
			"bufferView":1,
			"componentType":5126,
			"count":1273,
			"type":"VEC3"
		},
		{
			"bufferView":2,
			"componentType":5126,
			"count":1273,
			"type":"VEC2"
		},
		{
			"bufferView":3,
			"componentType":5123,
			"count":4992,
			"type":"SCALAR"
		},
		{
			"bufferView":4,
			"componentType":5126,
			"count":1412,
			"max":[
				0.30672121047973633,
				0.8996338844299316,
				0.41241076588630676
			],
			"min":[
				-0.30672121047973633,
				-0.0005039065727032721,
				-0.41275811195373535
			],
			"type":"VEC3"
		},
		{
			"bufferView":5,
			"componentType":5126,
			"count":1412,
			"type":"VEC3"
		},
		{
			"bufferView":6,
			"componentType":5126,
			"count":1412,
			"type":"VEC2"
		},
		{
			"bufferView":7,
			"componentType":5123,
			"count":3933,
			"type":"SCALAR"
		}
	],
	"bufferViews":[
		{
			"buffer":0,
			"byteLength":15276,
			"byteOffset":0,
			"target":34962
		},
		{
			"buffer":0,
			"byteLength":15276,
			"byteOffset":15276,
			"target":34962
		},
		{
			"buffer":0,
			"byteLength":10184,
			"byteOffset":30552,
			"target":34962
		},
		{
			"buffer":0,
			"byteLength":9984,
			"byteOffset":40736,
			"target":34963
		},
		{
			"buffer":0,
			"byteLength":16944,
			"byteOffset":50720,
			"target":34962
		},
		{
			"buffer":0,
			"byteLength":16944,
			"byteOffset":67664,
			"target":34962
		},
		{
			"buffer":0,
			"byteLength":11296,
			"byteOffset":84608,
			"target":34962
		},
		{
			"buffer":0,
			"byteLength":7866,
			"byteOffset":95904,
			"target":34963
		}
	],
	"samplers":[
		{
			"magFilter":9729,
			"minFilter":9987
		}
	],
	"buffers":[
		{
			"byteLength":103772,
			"uri":"movable_restzone_rocking_chair.bin"
		}
	]
}
