{
	"asset":{
		"generator":"Khronos glTF Blender I/O v3.6.27",
		"version":"2.0"
	},
	"extensionsUsed":[
		"KHR_materials_specular",
		"KHR_materials_ior"
	],
	"scene":0,
	"scenes":[
		{
			"name":"2 Animation to export Scene (Linked)",
			"nodes":[
				0
			]
		}
	],
	"nodes":[
		{
			"mesh":0,
			"name":"RestzonePillarTable",
			"translation":[
				0,
				0.25999999046325684,
				0
			]
		}
	],
	"materials":[
		{
			"doubleSided":true,
			"extensions":{
				"KHR_materials_specular":{
					"specularColorTexture":{
						"index":0
					},
					"specularColorFactor":[
						2.371357614441398,
						2.371357614441398,
						2.371357614441398
					]
				},
				"KHR_materials_ior":{
					"ior":1.4500000476837158
				}
			},
			"name":"Wood Real Ash",
			"normalTexture":{
				"index":1,
				"scale":0.10000000149011612
			},
			"pbrMetallicRoughness":{
				"baseColorTexture":{
					"index":2
				},
				"metallicFactor":0,
				"roughnessFactor":0.5
			}
		},
		{
			"doubleSided":true,
			"extensions":{
				"KHR_materials_specular":{
					"specularColorFactor":[
						2.3713576144413984,
						2.3713576144413984,
						2.3713576144413984
					]
				},
				"KHR_materials_ior":{
					"ior":1.4500000476837158
				}
			},
			"name":"Paint White",
			"pbrMetallicRoughness":{
				"metallicFactor":0,
				"roughnessFactor":0.4000000059604645
			}
		}
	],
	"meshes":[
		{
			"name":"Cylinder.003",
			"primitives":[
				{
					"attributes":{
						"POSITION":0,
						"NORMAL":1,
						"TEXCOORD_0":2
					},
					"indices":3,
					"material":0
				},
				{
					"attributes":{
						"POSITION":4,
						"NORMAL":5,
						"TEXCOORD_0":6
					},
					"indices":7,
					"material":1
				}
			]
		}
	],
	"textures":[
		{
			"sampler":0,
			"source":0
		},
		{
			"sampler":0,
			"source":1
		},
		{
			"sampler":0,
			"source":2
		}
	],
	"images":[
		{
			"mimeType":"image/png",
			"name":"Image",
			"uri":"textures/Image.png"
		},
		{
			"mimeType":"image/png",
			"name":"NormalMap (1).png",
			"uri":"textures/NormalMap%201_png.png"
		},
		{
			"mimeType":"image/jpeg",
			"name":"textura-dereva 212.jpg",
			"uri":"textures/textura-dereva%20212_jpg.jpg"
		}
	],
	"accessors":[
		{
			"bufferView":0,
			"componentType":5126,
			"count":140,
			"max":[
				0.17244286835193634,
				0.25,
				0.17687755823135376
			],
			"min":[
				-0.17244286835193634,
				0.18215037882328033,
				-0.17687755823135376
			],
			"type":"VEC3"
		},
		{
			"bufferView":1,
			"componentType":5126,
			"count":140,
			"type":"VEC3"
		},
		{
			"bufferView":2,
			"componentType":5126,
			"count":140,
			"type":"VEC2"
		},
		{
			"bufferView":3,
			"componentType":5123,
			"count":240,
			"type":"SCALAR"
		},
		{
			"bufferView":4,
			"componentType":5126,
			"count":126,
			"max":[
				0.08503961563110352,
				0.18215037882328033,
				0.13899168372154236
			],
			"min":[
				-0.08503961563110352,
				-0.25,
				-0.13899168372154236
			],
			"type":"VEC3"
		},
		{
			"bufferView":5,
			"componentType":5126,
			"count":126,
			"type":"VEC3"
		},
		{
			"bufferView":6,
			"componentType":5126,
			"count":126,
			"type":"VEC2"
		},
		{
			"bufferView":7,
			"componentType":5123,
			"count":204,
			"type":"SCALAR"
		}
	],
	"bufferViews":[
		{
			"buffer":0,
			"byteLength":1680,
			"byteOffset":0,
			"target":34962
		},
		{
			"buffer":0,
			"byteLength":1680,
			"byteOffset":1680,
			"target":34962
		},
		{
			"buffer":0,
			"byteLength":1120,
			"byteOffset":3360,
			"target":34962
		},
		{
			"buffer":0,
			"byteLength":480,
			"byteOffset":4480,
			"target":34963
		},
		{
			"buffer":0,
			"byteLength":1512,
			"byteOffset":4960,
			"target":34962
		},
		{
			"buffer":0,
			"byteLength":1512,
			"byteOffset":6472,
			"target":34962
		},
		{
			"buffer":0,
			"byteLength":1008,
			"byteOffset":7984,
			"target":34962
		},
		{
			"buffer":0,
			"byteLength":408,
			"byteOffset":8992,
			"target":34963
		}
	],
	"samplers":[
		{
			"magFilter":9729,
			"minFilter":9987
		}
	],
	"buffers":[
		{
			"byteLength":9400,
			"uri":"movable_restzone_pillar_table.bin"
		}
	]
}
