{
	"asset":{
		"generator":"Khronos glTF Blender I/O v3.6.27",
		"version":"2.0"
	},
	"extensionsUsed":[
		"KHR_materials_emissive_strength",
		"KHR_materials_specular",
		"KHR_materials_ior"
	],
	"scene":0,
	"scenes":[
		{
			"name":"2 Animation to export Scene (Linked)",
			"nodes":[
				0
			]
		}
	],
	"nodes":[
		{
			"mesh":0,
			"name":"OfficePhotolight"
		}
	],
	"materials":[
		{
			"doubleSided":true,
			"emissiveFactor":[
				1,
				1,
				1
			],
			"extensions":{
				"KHR_materials_emissive_strength":{
					"emissiveStrength":10
				}
			},
			"name":"Lightning",
			"pbrMetallicRoughness":{
				"baseColorFactor":[
					0,
					0,
					0,
					1
				]
			}
		},
		{
			"doubleSided":true,
			"extensions":{
				"KHR_materials_specular":{
					"specularColorFactor":[
						2.3713576144413984,
						2.3713576144413984,
						2.3713576144413984
					]
				},
				"KHR_materials_ior":{
					"ior":1.4500000476837158
				}
			},
			"name":"Paint White",
			"pbrMetallicRoughness":{
				"metallicFactor":0,
				"roughnessFactor":0.4000000059604645
			}
		},
		{
			"doubleSided":true,
			"extensions":{
				"KHR_materials_specular":{
					"specularColorFactor":[
						2.371357614441398,
						2.371357614441398,
						2.371357614441398
					]
				},
				"KHR_materials_ior":{
					"ior":1.4500000476837158
				}
			},
			"name":"Paint Gray",
			"pbrMetallicRoughness":{
				"baseColorFactor":[
					0.1169707253575325,
					0.12213879078626633,
					0.16513225436210632,
					1
				],
				"metallicFactor":0,
				"roughnessFactor":0.5527864098548889
			}
		}
	],
	"meshes":[
		{
			"name":"Mesh.226",
			"primitives":[
				{
					"attributes":{
						"POSITION":0,
						"NORMAL":1,
						"TEXCOORD_0":2
					},
					"indices":3,
					"material":0
				},
				{
					"attributes":{
						"POSITION":4,
						"NORMAL":5,
						"TEXCOORD_0":6
					},
					"indices":7,
					"material":1
				},
				{
					"attributes":{
						"POSITION":8,
						"NORMAL":9,
						"TEXCOORD_0":10
					},
					"indices":11,
					"material":2
				}
			]
		}
	],
	"accessors":[
		{
			"bufferView":0,
			"componentType":5126,
			"count":400,
			"max":[
				0.12335824966430664,
				0.9255965948104858,
				0.011769294738769531
			],
			"min":[
				-0.12788152694702148,
				0.4911045730113983,
				-0.017049789428710938
			],
			"type":"VEC3"
		},
		{
			"bufferView":1,
			"componentType":5126,
			"count":400,
			"type":"VEC3"
		},
		{
			"bufferView":2,
			"componentType":5126,
			"count":400,
			"type":"VEC2"
		},
		{
			"bufferView":3,
			"componentType":5123,
			"count":900,
			"type":"SCALAR"
		},
		{
			"bufferView":4,
			"componentType":5126,
			"count":7355,
			"max":[
				0.3885502815246582,
				1.0306241512298584,
				0.44361114501953125
			],
			"min":[
				-0.3882718086242676,
				-0.4843563139438629,
				-0.23244094848632812
			],
			"type":"VEC3"
		},
		{
			"bufferView":5,
			"componentType":5126,
			"count":7355,
			"type":"VEC3"
		},
		{
			"bufferView":6,
			"componentType":5126,
			"count":7355,
			"type":"VEC2"
		},
		{
			"bufferView":7,
			"componentType":5123,
			"count":22668,
			"type":"SCALAR"
		},
		{
			"bufferView":8,
			"componentType":5126,
			"count":3086,
			"max":[
				0.38014698028564453,
				0.7812052965164185,
				0.43509864807128906
			],
			"min":[
				-0.3798685073852539,
				-0.47751501202583313,
				-0.2244577407836914
			],
			"type":"VEC3"
		},
		{
			"bufferView":9,
			"componentType":5126,
			"count":3086,
			"type":"VEC3"
		},
		{
			"bufferView":10,
			"componentType":5126,
			"count":3086,
			"type":"VEC2"
		},
		{
			"bufferView":11,
			"componentType":5123,
			"count":13524,
			"type":"SCALAR"
		}
	],
	"bufferViews":[
		{
			"buffer":0,
			"byteLength":4800,
			"byteOffset":0,
			"target":34962
		},
		{
			"buffer":0,
			"byteLength":4800,
			"byteOffset":4800,
			"target":34962
		},
		{
			"buffer":0,
			"byteLength":3200,
			"byteOffset":9600,
			"target":34962
		},
		{
			"buffer":0,
			"byteLength":1800,
			"byteOffset":12800,
			"target":34963
		},
		{
			"buffer":0,
			"byteLength":88260,
			"byteOffset":14600,
			"target":34962
		},
		{
			"buffer":0,
			"byteLength":88260,
			"byteOffset":102860,
			"target":34962
		},
		{
			"buffer":0,
			"byteLength":58840,
			"byteOffset":191120,
			"target":34962
		},
		{
			"buffer":0,
			"byteLength":45336,
			"byteOffset":249960,
			"target":34963
		},
		{
			"buffer":0,
			"byteLength":37032,
			"byteOffset":295296,
			"target":34962
		},
		{
			"buffer":0,
			"byteLength":37032,
			"byteOffset":332328,
			"target":34962
		},
		{
			"buffer":0,
			"byteLength":24688,
			"byteOffset":369360,
			"target":34962
		},
		{
			"buffer":0,
			"byteLength":27048,
			"byteOffset":394048,
			"target":34963
		}
	],
	"buffers":[
		{
			"byteLength":421096,
			"uri":"movable_office_photolight.bin"
		}
	]
}
