{
	"asset":{
		"generator":"Khronos glTF Blender I/O v3.6.27",
		"version":"2.0"
	},
	"extensionsUsed":[
		"KHR_materials_specular",
		"KHR_materials_ior"
	],
	"scene":0,
	"scenes":[
		{
			"name":"2 Animation to export Scene (Linked)",
			"nodes":[
				0
			]
		}
	],
	"nodes":[
		{
			"mesh":0,
			"name":"OfficePhotostand"
		}
	],
	"materials":[
		{
			"doubleSided":true,
			"extensions":{
				"KHR_materials_specular":{
					"specularColorFactor":[
						2.3713576144413984,
						2.3713576144413984,
						2.3713576144413984
					]
				},
				"KHR_materials_ior":{
					"ior":1.4500000476837158
				}
			},
			"name":"Paint White",
			"pbrMetallicRoughness":{
				"metallicFactor":0,
				"roughnessFactor":0.4000000059604645
			}
		},
		{
			"doubleSided":true,
			"extensions":{
				"KHR_materials_specular":{
					"specularColorFactor":[
						2.371357614441398,
						2.371357614441398,
						2.371357614441398
					]
				},
				"KHR_materials_ior":{
					"ior":1.4500000476837158
				}
			},
			"name":"Paint Gray",
			"pbrMetallicRoughness":{
				"baseColorFactor":[
					0.1169707253575325,
					0.12213879078626633,
					0.16513225436210632,
					1
				],
				"metallicFactor":0,
				"roughnessFactor":0.5527864098548889
			}
		}
	],
	"meshes":[
		{
			"name":"Mesh.097",
			"primitives":[
				{
					"attributes":{
						"POSITION":0,
						"NORMAL":1,
						"TEXCOORD_0":2
					},
					"indices":3,
					"material":0
				},
				{
					"attributes":{
						"POSITION":4,
						"NORMAL":5,
						"TEXCOORD_0":6
					},
					"indices":7,
					"material":1
				}
			]
		}
	],
	"accessors":[
		{
			"bufferView":0,
			"componentType":5126,
			"count":5411,
			"max":[
				0.4011077880859375,
				0.5167971253395081,
				0.45961856842041016
			],
			"min":[
				-0.38594961166381836,
				-0.6074888110160828,
				-0.23047351837158203
			],
			"type":"VEC3"
		},
		{
			"bufferView":1,
			"componentType":5126,
			"count":5411,
			"type":"VEC3"
		},
		{
			"bufferView":2,
			"componentType":5126,
			"count":5411,
			"type":"VEC2"
		},
		{
			"bufferView":3,
			"componentType":5123,
			"count":17862,
			"type":"SCALAR"
		},
		{
			"bufferView":4,
			"componentType":5126,
			"count":3066,
			"max":[
				0.39026355743408203,
				0.49800437688827515,
				0.44861793518066406
			],
			"min":[
				-0.3751053810119629,
				-0.6013604998588562,
				-0.21608829498291016
			],
			"type":"VEC3"
		},
		{
			"bufferView":5,
			"componentType":5126,
			"count":3066,
			"type":"VEC3"
		},
		{
			"bufferView":6,
			"componentType":5126,
			"count":3066,
			"type":"VEC2"
		},
		{
			"bufferView":7,
			"componentType":5123,
			"count":14220,
			"type":"SCALAR"
		}
	],
	"bufferViews":[
		{
			"buffer":0,
			"byteLength":64932,
			"byteOffset":0,
			"target":34962
		},
		{
			"buffer":0,
			"byteLength":64932,
			"byteOffset":64932,
			"target":34962
		},
		{
			"buffer":0,
			"byteLength":43288,
			"byteOffset":129864,
			"target":34962
		},
		{
			"buffer":0,
			"byteLength":35724,
			"byteOffset":173152,
			"target":34963
		},
		{
			"buffer":0,
			"byteLength":36792,
			"byteOffset":208876,
			"target":34962
		},
		{
			"buffer":0,
			"byteLength":36792,
			"byteOffset":245668,
			"target":34962
		},
		{
			"buffer":0,
			"byteLength":24528,
			"byteOffset":282460,
			"target":34962
		},
		{
			"buffer":0,
			"byteLength":28440,
			"byteOffset":306988,
			"target":34963
		}
	],
	"buffers":[
		{
			"byteLength":335428,
			"uri":"movable_office_photostand.bin"
		}
	]
}
