{
	"asset":{
		"generator":"Khronos glTF Blender I/O v3.6.27",
		"version":"2.0"
	},
	"extensionsUsed":[
		"KHR_materials_specular",
		"KHR_materials_ior"
	],
	"scene":0,
	"scenes":[
		{
			"name":"Scene",
			"nodes":[
				4,
				5
			]
		}
	],
	"nodes":[
		{
			"mesh":0,
			"name":"Shelf Guides.001",
			"scale":[
				0.01180824264883995,
				0.08901321142911911,
				0.02524464949965477
			],
			"translation":[
				7.086444854736328,
				0.1917239874601364,
				-5.989237308502197
			]
		},
		{
			"mesh":1,
			"name":"Shelf Guides.002",
			"scale":[
				0.01180824264883995,
				0.08901321142911911,
				0.02524464949965477
			],
			"translation":[
				7.086444854736328,
				0.1917239874601364,
				-6.520927429199219
			]
		},
		{
			"mesh":2,
			"name":"Shelf Guides.003",
			"rotation":[
				0,
				-1,
				0,
				1.6292068494294654e-07
			],
			"scale":[
				0.01180824264883995,
				0.08901321142911911,
				0.02524464949965477
			],
			"translation":[
				5.811373710632324,
				0.1917239874601364,
				-6.380964756011963
			]
		},
		{
			"mesh":3,
			"name":"Shelf Guides",
			"rotation":[
				0,
				-1,
				0,
				1.6292068494294654e-07
			],
			"scale":[
				0.01180824264883995,
				0.08901321142911911,
				0.02524464949965477
			],
			"translation":[
				5.811373710632324,
				0.1917239874601364,
				-5.989236831665039
			]
		},
		{
			"children":[
				0,
				1,
				2,
				3
			],
			"mesh":4,
			"name":"Wardrobe Shelves"
		},
		{
			"mesh":5,
			"name":"Wardrobe Mirror"
		}
	],
	"materials":[
		{
			"doubleSided":true,
			"extensions":{
				"KHR_materials_specular":{
					"specularColorFactor":[
						2.371357614441398,
						2.371357614441398,
						2.371357614441398
					]
				},
				"KHR_materials_ior":{
					"ior":1.4500000476837158
				}
			},
			"name":"Metal Mat",
			"pbrMetallicRoughness":{
				"baseColorFactor":[
					0.06993462890386581,
					0.06993462890386581,
					0.06993462890386581,
					1
				],
				"roughnessFactor":0.5527864098548889
			}
		},
		{
			"doubleSided":true,
			"extensions":{
				"KHR_materials_specular":{
					"specularColorFactor":[
						1,
						1,
						1
					]
				},
				"KHR_materials_ior":{
					"ior":1
				}
			},
			"name":"Metal Chrome",
			"pbrMetallicRoughness":{
				"baseColorFactor":[
					0.4910377264022827,
					0.4764433801174164,
					0.40801364183425903,
					1
				],
				"roughnessFactor":0.21590909361839294
			}
		},
		{
			"doubleSided":true,
			"extensions":{
				"KHR_materials_specular":{
					"specularColorTexture":{
						"index":0
					},
					"specularColorFactor":[
						2.371357614441398,
						2.371357614441398,
						2.371357614441398
					]
				},
				"KHR_materials_ior":{
					"ior":1.4500000476837158
				}
			},
			"name":"Wood Real Ash",
			"normalTexture":{
				"index":1,
				"scale":0.10000000149011612
			},
			"pbrMetallicRoughness":{
				"baseColorTexture":{
					"index":2
				},
				"metallicFactor":0,
				"roughnessFactor":0.5
			}
		},
		{
			"doubleSided":true,
			"name":"Mirror",
			"pbrMetallicRoughness":{}
		}
	],
	"meshes":[
		{
			"name":"Cube.009",
			"primitives":[
				{
					"attributes":{
						"POSITION":0,
						"NORMAL":1,
						"TEXCOORD_0":2
					},
					"indices":3,
					"material":0
				}
			]
		},
		{
			"name":"Cube.010",
			"primitives":[
				{
					"attributes":{
						"POSITION":4,
						"NORMAL":5,
						"TEXCOORD_0":6
					},
					"indices":3,
					"material":0
				}
			]
		},
		{
			"name":"Cube.014",
			"primitives":[
				{
					"attributes":{
						"POSITION":7,
						"NORMAL":8,
						"TEXCOORD_0":9
					},
					"indices":10,
					"material":0
				}
			]
		},
		{
			"name":"Cube.012",
			"primitives":[
				{
					"attributes":{
						"POSITION":11,
						"NORMAL":12,
						"TEXCOORD_0":13
					},
					"indices":10,
					"material":0
				}
			]
		},
		{
			"name":"Mesh.009",
			"primitives":[
				{
					"attributes":{
						"POSITION":14,
						"NORMAL":15,
						"TEXCOORD_0":16
					},
					"indices":17,
					"material":1
				},
				{
					"attributes":{
						"POSITION":18,
						"NORMAL":19,
						"TEXCOORD_0":20
					},
					"indices":21,
					"material":2
				}
			]
		},
		{
			"name":"Plane.006",
			"primitives":[
				{
					"attributes":{
						"POSITION":22,
						"NORMAL":23,
						"TEXCOORD_0":24
					},
					"indices":25,
					"material":3
				}
			]
		}
	],
	"textures":[
		{
			"sampler":0,
			"source":0
		},
		{
			"sampler":0,
			"source":1
		},
		{
			"sampler":0,
			"source":2
		}
	],
	"images":[
		{
			"mimeType":"image/png",
			"name":"Image",
			"uri":"textures/Image.png"
		},
		{
			"mimeType":"image/png",
			"name":"NormalMap (1).png",
			"uri":"textures/NormalMap%201_png.png"
		},
		{
			"mimeType":"image/jpeg",
			"name":"textura-dereva 212.jpg",
			"uri":"textures/textura-dereva%20212_jpg.jpg"
		}
	],
	"accessors":[
		{
			"bufferView":0,
			"componentType":5126,
			"count":464,
			"max":[
				0.8967366218566895,
				21.438114166259766,
				0.9999735951423645
			],
			"min":[
				-1.1032634973526,
				-2.1538822650909424,
				-1.0000264644622803
			],
			"type":"VEC3"
		},
		{
			"bufferView":1,
			"componentType":5126,
			"count":464,
			"type":"VEC3"
		},
		{
			"bufferView":2,
			"componentType":5126,
			"count":464,
			"type":"VEC2"
		},
		{
			"bufferView":3,
			"componentType":5123,
			"count":804,
			"type":"SCALAR"
		},
		{
			"bufferView":4,
			"componentType":5126,
			"count":464,
			"max":[
				0.8967366218566895,
				21.438114166259766,
				0.9999735951423645
			],
			"min":[
				-1.1032634973526,
				-2.1538822650909424,
				-1.0000264644622803
			],
			"type":"VEC3"
		},
		{
			"bufferView":5,
			"componentType":5126,
			"count":464,
			"type":"VEC3"
		},
		{
			"bufferView":6,
			"componentType":5126,
			"count":464,
			"type":"VEC2"
		},
		{
			"bufferView":7,
			"componentType":5126,
			"count":464,
			"max":[
				0.8967366218566895,
				21.438114166259766,
				0.9999735951423645
			],
			"min":[
				-1.1032634973526,
				-2.1538822650909424,
				-1.0000264644622803
			],
			"type":"VEC3"
		},
		{
			"bufferView":8,
			"componentType":5126,
			"count":464,
			"type":"VEC3"
		},
		{
			"bufferView":9,
			"componentType":5126,
			"count":464,
			"type":"VEC2"
		},
		{
			"bufferView":10,
			"componentType":5123,
			"count":804,
			"type":"SCALAR"
		},
		{
			"bufferView":11,
			"componentType":5126,
			"count":464,
			"max":[
				0.8967366218566895,
				21.438114166259766,
				0.9999735951423645
			],
			"min":[
				-1.1032634973526,
				-2.1538822650909424,
				-1.0000264644622803
			],
			"type":"VEC3"
		},
		{
			"bufferView":12,
			"componentType":5126,
			"count":464,
			"type":"VEC3"
		},
		{
			"bufferView":13,
			"componentType":5126,
			"count":464,
			"type":"VEC2"
		},
		{
			"bufferView":14,
			"componentType":5126,
			"count":1876,
			"max":[
				7.098034858703613,
				1.9804195165634155,
				-3.7403697967529297
			],
			"min":[
				5.984991073608398,
				1.910802960395813,
				-5.8555097579956055
			],
			"type":"VEC3"
		},
		{
			"bufferView":15,
			"componentType":5126,
			"count":1876,
			"type":"VEC3"
		},
		{
			"bufferView":16,
			"componentType":5126,
			"count":1876,
			"type":"VEC2"
		},
		{
			"bufferView":17,
			"componentType":5123,
			"count":5340,
			"type":"SCALAR"
		},
		{
			"bufferView":18,
			"componentType":5126,
			"count":336,
			"max":[
				7.0980353355407715,
				2.124999523162842,
				-3.4847793579101562
			],
			"min":[
				5.7997870445251465,
				-3.725290298461914e-09,
				-6.704588890075684
			],
			"type":"VEC3"
		},
		{
			"bufferView":19,
			"componentType":5126,
			"count":336,
			"type":"VEC3"
		},
		{
			"bufferView":20,
			"componentType":5126,
			"count":336,
			"type":"VEC2"
		},
		{
			"bufferView":21,
			"componentType":5123,
			"count":504,
			"type":"SCALAR"
		},
		{
			"bufferView":22,
			"componentType":5126,
			"count":4,
			"max":[
				7.092894554138184,
				3.0000007152557373,
				-4.119974613189697
			],
			"min":[
				7.092894077301025,
				0,
				-4.7209858894348145
			],
			"type":"VEC3"
		},
		{
			"bufferView":23,
			"componentType":5126,
			"count":4,
			"type":"VEC3"
		},
		{
			"bufferView":24,
			"componentType":5126,
			"count":4,
			"type":"VEC2"
		},
		{
			"bufferView":25,
			"componentType":5123,
			"count":6,
			"type":"SCALAR"
		}
	],
	"bufferViews":[
		{
			"buffer":0,
			"byteLength":5568,
			"byteOffset":0,
			"target":34962
		},
		{
			"buffer":0,
			"byteLength":5568,
			"byteOffset":5568,
			"target":34962
		},
		{
			"buffer":0,
			"byteLength":3712,
			"byteOffset":11136,
			"target":34962
		},
		{
			"buffer":0,
			"byteLength":1608,
			"byteOffset":14848,
			"target":34963
		},
		{
			"buffer":0,
			"byteLength":5568,
			"byteOffset":16456,
			"target":34962
		},
		{
			"buffer":0,
			"byteLength":5568,
			"byteOffset":22024,
			"target":34962
		},
		{
			"buffer":0,
			"byteLength":3712,
			"byteOffset":27592,
			"target":34962
		},
		{
			"buffer":0,
			"byteLength":5568,
			"byteOffset":31304,
			"target":34962
		},
		{
			"buffer":0,
			"byteLength":5568,
			"byteOffset":36872,
			"target":34962
		},
		{
			"buffer":0,
			"byteLength":3712,
			"byteOffset":42440,
			"target":34962
		},
		{
			"buffer":0,
			"byteLength":1608,
			"byteOffset":46152,
			"target":34963
		},
		{
			"buffer":0,
			"byteLength":5568,
			"byteOffset":47760,
			"target":34962
		},
		{
			"buffer":0,
			"byteLength":5568,
			"byteOffset":53328,
			"target":34962
		},
		{
			"buffer":0,
			"byteLength":3712,
			"byteOffset":58896,
			"target":34962
		},
		{
			"buffer":0,
			"byteLength":22512,
			"byteOffset":62608,
			"target":34962
		},
		{
			"buffer":0,
			"byteLength":22512,
			"byteOffset":85120,
			"target":34962
		},
		{
			"buffer":0,
			"byteLength":15008,
			"byteOffset":107632,
			"target":34962
		},
		{
			"buffer":0,
			"byteLength":10680,
			"byteOffset":122640,
			"target":34963
		},
		{
			"buffer":0,
			"byteLength":4032,
			"byteOffset":133320,
			"target":34962
		},
		{
			"buffer":0,
			"byteLength":4032,
			"byteOffset":137352,
			"target":34962
		},
		{
			"buffer":0,
			"byteLength":2688,
			"byteOffset":141384,
			"target":34962
		},
		{
			"buffer":0,
			"byteLength":1008,
			"byteOffset":144072,
			"target":34963
		},
		{
			"buffer":0,
			"byteLength":48,
			"byteOffset":145080,
			"target":34962
		},
		{
			"buffer":0,
			"byteLength":48,
			"byteOffset":145128,
			"target":34962
		},
		{
			"buffer":0,
			"byteLength":32,
			"byteOffset":145176,
			"target":34962
		},
		{
			"buffer":0,
			"byteLength":12,
			"byteOffset":145208,
			"target":34963
		}
	],
	"samplers":[
		{
			"magFilter":9729,
			"minFilter":9987
		}
	],
	"buffers":[
		{
			"byteLength":145220,
			"uri":"wardrobe.bin"
		}
	]
}
