<svg width="1280" height="951" viewBox="0 0 1280 951" fill="none" xmlns="http://www.w3.org/2000/svg">
<rect x="668" y="272" width="85" height="9" fill="#A1A1A1"/>
<rect x="815" y="98" width="131" height="147" fill="#A1A1A1"/>
<rect x="764" y="98" width="51" height="32" fill="#A1A1A1"/>
<rect x="946" y="98" width="51" height="32" fill="#A1A1A1"/>
<rect x="698" y="98" width="46" height="38" fill="#A1A1A1"/>
<rect x="698" y="211" width="46" height="38" fill="#A1A1A1"/>
<rect x="668" y="98" width="30" height="151" fill="#A1A1A1"/>
<rect x="744" y="98" width="4" height="62" fill="#A1A1A1"/>
<rect x="748" y="154" width="4" height="61" fill="#A1A1A1"/>
<rect x="744" y="210" width="4" height="62" fill="#A1A1A1"/>
<rect x="445" y="530" width="4" height="62" fill="#A1A1A1"/>
<rect x="411" y="534" width="4" height="34" transform="rotate(-90 411 534)" fill="#A1A1A1"/>
<rect x="449" y="586" width="4" height="61" fill="#A1A1A1"/>
<rect x="445" y="642" width="4" height="62" fill="#A1A1A1"/>
<rect x="753" y="358" width="74" height="45" fill="#A1A1A1"/>
<rect x="844" y="380" width="74" height="8" fill="#A1A1A1"/>
<circle cx="982" cy="333" r="21" fill="#A1A1A1"/>
<rect x="190" y="123" width="46" height="112" fill="#A1A1A1"/>
<rect x="184" y="98" width="220" height="20" fill="#A1A1A1"/>
<rect x="184" y="534" width="102" height="47" fill="#A1A1A1"/>
<rect x="184" y="658" width="172" height="46" fill="#A1A1A1"/>
<rect x="356" y="704" width="64" height="46" transform="rotate(-90 356 704)" fill="#A1A1A1"/>
<rect x="356" y="640" width="44" height="46" transform="rotate(-90 356 640)" fill="#A1A1A1"/>
<rect x="356" y="596" width="53" height="46" transform="rotate(-90 356 596)" fill="#A1A1A1"/>
<rect x="517.716" y="638.922" width="39.9521" height="39.9521" rx="11" transform="rotate(-97.2878 517.716 638.922)" fill="#A1A1A1"/>
<rect x="251.998" y="197.219" width="39.9521" height="39.9521" rx="11" transform="rotate(-111.31 251.998 197.219)" fill="#A1A1A1"/>
<rect x="597" y="586" width="32" height="75" fill="#A1A1A1"/>
<rect x="349" y="126" width="47" height="101" fill="#A1A1A1"/>
<rect x="413" y="98" width="64" height="132" fill="#A1A1A1"/>
<rect x="485" y="98" width="59" height="31" fill="#A1A1A1"/>
<rect x="544" y="98" width="89" height="31" fill="#A1A1A1"/>
<rect x="579" y="152" width="51" height="27" rx="8" fill="#A1A1A1"/>
<rect x="939" y="358" width="74" height="45" fill="#A1A1A1"/>
<rect x="815" y="354" width="135" height="49" fill="#A1A1A1"/>
<rect x="668" y="412" width="218" height="35" fill="#A1A1A1"/>
<rect x="668" y="553" width="51" height="100" fill="#A1A1A1"/>
<rect x="858" y="653" width="51" height="190" transform="rotate(90 858 653)" fill="#A1A1A1"/>
<circle cx="404" cy="381" r="50" fill="#A1A1A1"/>
<circle cx="404" cy="381" r="29" fill="#A1A1A1"/>
<path d="M305.584 347.467C301.921 346.232 299.932 342.25 301.391 338.67C308.239 321.866 319.031 306.914 332.895 295.102C348.54 281.774 367.51 272.944 387.781 269.554C408.051 266.165 428.862 268.343 447.991 275.856C464.945 282.514 480.014 293.141 491.956 306.804C494.501 309.715 493.916 314.127 490.854 316.487L460.144 340.155C457.082 342.515 452.714 341.912 450.017 339.142C444.017 332.978 436.756 328.139 428.7 324.975C418.465 320.955 407.33 319.79 396.484 321.603C385.638 323.417 375.488 328.141 367.118 335.273C360.529 340.885 355.238 347.823 351.57 355.604C349.921 359.101 345.986 361.092 342.323 359.857L305.584 347.467Z" fill="#A1A1A1"/>
<rect x="210" y="511" width="26" height="26" rx="5" fill="#A1A1A1"/>
<rect x="210" y="576" width="26" height="26" rx="5" fill="#A1A1A1"/>
<rect x="251" y="511" width="26" height="26" rx="5" fill="#A1A1A1"/>
<rect x="251" y="576" width="26" height="26" rx="5" fill="#A1A1A1"/>
</svg>
