<svg width="1280" height="951" viewBox="0 0 1280 951" fill="none" xmlns="http://www.w3.org/2000/svg">
<rect x="149" y="63" width="35" height="67" fill="#C4C4C4"/>
<rect x="149" y="499" width="35" height="94" fill="#C4C4C4"/>
<rect x="149" y="658" width="35" height="81" fill="#C4C4C4"/>
<rect x="668" y="403" width="218" height="9" fill="#C4C4C4"/>
<rect x="642" y="352" width="51" height="9" transform="rotate(90 642 352)" fill="#C4C4C4"/>
<rect x="633" y="98" width="35" height="183" fill="#C4C4C4"/>
<rect x="1013" y="63" width="35" height="829" transform="rotate(90 1013 63)" fill="#C4C4C4"/>
<rect x="1013" y="403" width="35" height="127" transform="rotate(90 1013 403)" fill="#C4C4C4"/>
<rect x="515" y="704" width="35" height="331" transform="rotate(90 515 704)" fill="#C4C4C4"/>
<rect x="921" y="704" width="35" height="335" transform="rotate(90 921 704)" fill="#C4C4C4"/>
<rect x="1013" y="63" width="35" height="120" fill="#C4C4C4"/>
<rect x="1013" y="288" width="35" height="150" fill="#C4C4C4"/>
<rect x="886" y="438" width="35" height="91" fill="#C4C4C4"/>
<rect x="633" y="403" width="35" height="47" fill="#C4C4C4"/>
<rect x="633" y="521" width="35" height="183" fill="#C4C4C4"/>
<rect x="886" y="634" width="35" height="70" fill="#C4C4C4"/>
<rect x="149" y="214" width="35" height="111" fill="#C4C4C4"/>
<rect x="69" y="668" width="20" height="20" fill="#C4C4C4"/>
<rect x="139" y="668" width="10" height="20" fill="#C4C4C4"/>
<rect x="184" y="316" width="11" height="9" fill="#C4C4C4"/>
<rect x="512" y="607" width="97" height="9" transform="rotate(90 512 607)" fill="#C4C4C4"/>
<rect x="512" y="460" width="76" height="9" transform="rotate(90 512 460)" fill="#C4C4C4"/>
<rect x="368" y="485" width="14" height="9" transform="rotate(90 368 485)" fill="#C4C4C4"/>
<path d="M411 482.423V704H402L402 483.966L411 482.423Z" fill="#C4C4C4"/>
<path d="M368 489.796L368 498.927L402 493.098L402 483.966L368 489.796Z" fill="#C4C4C4"/>
<path d="M411 482.423L411 491.555L503 475.781V466.65L411 482.423Z" fill="#C4C4C4"/>
<path d="M516 281V272H514.552L508.324 281H516Z" fill="#C4C4C4"/>
<path d="M266 316V325H277.62L269.954 316H266Z" fill="#C4C4C4"/>
<path d="M413 98L404 98V231.08L413 231.051V98Z" fill="#C4C4C4"/>
<path d="M385.166 232.826C359.852 236.726 335.891 246.781 315.399 262.101C296.298 276.381 280.758 294.827 269.954 316L277.62 325L294.363 332.428C295.541 329.907 296.8 327.43 298.137 325L289.516 321.042L281.5 317.361C291.442 299.145 305.214 283.24 321.912 270.756C340.978 256.502 363.272 247.148 386.825 243.518C410.378 239.889 434.465 242.096 456.959 249.946C476.102 256.626 493.591 267.218 508.324 281L514.552 272C498.971 257.728 480.603 246.733 460.545 239.734C445.192 234.376 429.149 231.464 413 231.051L404 231.08C397.71 231.281 391.421 231.862 385.166 232.826Z" fill="#C4C4C4"/>
<path d="M383.707 252.373C362.527 256.382 342.603 265.368 325.579 278.59C310.734 290.119 298.465 304.581 289.516 321.042L298.137 325C306.436 309.917 317.741 296.659 331.383 286.064C347.223 273.761 365.761 265.4 385.467 261.67C405.174 257.94 425.484 258.948 444.725 264.611C463.965 270.273 481.584 280.428 496.129 294.238L502.644 287.376C487.012 272.533 468.076 261.619 447.397 255.533C426.717 249.447 404.887 248.364 383.707 252.373Z" fill="#C4C4C4"/>
<rect x="633" y="272" width="9" height="46" transform="rotate(90 633 272)" fill="#C4C4C4"/>
</svg>
